M48
; DRILL file {KiCad 7.0.7} date 2024 January 02, Tuesday 15:01:56
; FORMAT={-:-/ absolute / metric / decimal}
; #@! TF.CreationDate,2024-01-02T15:01:56+01:00
; #@! TF.GenerationSoftware,Kicad,Pcbnew,7.0.7
; #@! TF.FileFunction,Plated,1,2,PTH
FMAT,2
METRIC
; #@! TA.AperFunction,Plated,PTH,ViaDrill
T1C0.400
; #@! TA.AperFunction,Plated,PTH,ViaDrill
T2C0.600
; #@! TA.AperFunction,Plated,PTH,ComponentDrill
T3C0.800
; #@! TA.AperFunction,Plated,PTH,ViaDrill
T4C1.000
; #@! TA.AperFunction,Plated,PTH,ComponentDrill
T5C1.000
; #@! TA.AperFunction,Plated,PTH,ComponentDrill
T6C1.300
; #@! TA.AperFunction,Plated,PTH,ComponentDrill
T7C1.520
%
G90
G05
T1
X86.157Y-96.19
X131.445Y-60.706
X131.445Y-69.088
X133.858Y-78.486
X136.398Y-74.422
X138.938Y-78.486
X155.194Y-60.706
X155.194Y-70.739
X156.718Y-78.486
X157.687Y-67.146
X158.586Y-66.246
X159.258Y-74.422
X159.496Y-65.337
X160.247Y-67.157
X160.395Y-64.438
X161.32Y-63.513
X161.798Y-78.486
X162.097Y-62.735
X162.409Y-66.244
X162.975Y-61.847
X163.309Y-65.344
X164.108Y-64.545
X165.007Y-63.646
X165.906Y-62.747
X166.814Y-61.838
X175.641Y-60.706
X175.641Y-72.4
X179.578Y-78.486
X184.658Y-78.486
X199.77Y-74.294
X200.66Y-73.394
X201.422Y-72.495
X202.288Y-71.49
X202.312Y-74.296
X203.073Y-70.59
X204.114Y-69.682
X204.204Y-73.394
X205.129Y-68.761
X206.248Y-61.214
X206.248Y-72.39
X208.096Y-71.482
X209.677Y-57.785
X210.007Y-70.561
X211.901Y-69.661
X213.818Y-68.733
X214.762Y-69.677
X221.336Y-52.832
X221.878Y-51.502
T2
X107.594Y-100.025
X144.78Y-43.688
X175.641Y-50.059
T3
X81.153Y-91.184
X81.153Y-96.264
X81.153Y-101.344
X81.153Y-106.426
X81.153Y-111.504
X88.773Y-91.184
X88.773Y-96.264
X88.773Y-101.344
X88.773Y-106.426
X88.773Y-111.504
X97.07Y-95.8
X97.07Y-98.34
X97.07Y-100.88
X97.07Y-103.42
X97.07Y-105.96
X97.07Y-108.5
X97.07Y-111.04
X97.07Y-113.58
X99.66Y-80.264
X99.66Y-85.344
X99.66Y-90.424
X107.28Y-80.264
X107.28Y-85.344
X107.28Y-90.424
X109.77Y-95.8
X109.77Y-98.34
X109.77Y-100.88
X109.77Y-103.42
X109.77Y-105.96
X109.77Y-108.5
X109.77Y-111.04
X109.77Y-113.58
X113.626Y-89.154
X116.126Y-89.154
X119.94Y-95.8
X119.94Y-98.34
X119.94Y-100.88
X119.94Y-103.42
X119.94Y-105.96
X119.94Y-108.5
X119.94Y-111.04
X119.94Y-113.58
X122.503Y-80.264
X122.513Y-85.344
X122.52Y-90.41
X130.123Y-80.264
X130.133Y-85.344
X130.14Y-90.41
X132.64Y-95.8
X132.64Y-98.34
X132.64Y-100.88
X132.64Y-103.42
X132.64Y-105.96
X132.64Y-108.5
X132.64Y-111.04
X132.64Y-113.58
X136.486Y-89.154
X138.986Y-89.154
X142.8Y-95.8
X142.8Y-98.34
X142.8Y-100.88
X142.8Y-103.42
X142.8Y-105.96
X142.8Y-108.5
X142.8Y-111.04
X142.8Y-113.58
X145.38Y-80.01
X145.38Y-85.09
X145.38Y-90.17
X153.0Y-80.01
X153.0Y-85.09
X153.0Y-90.17
X155.5Y-95.8
X155.5Y-98.34
X155.5Y-100.88
X155.5Y-103.42
X155.5Y-105.96
X155.5Y-108.5
X155.5Y-111.04
X155.5Y-113.58
X159.346Y-89.154
X161.846Y-89.154
X165.66Y-95.8
X165.66Y-98.34
X165.66Y-100.88
X165.66Y-103.42
X165.66Y-105.96
X165.66Y-108.5
X165.66Y-111.04
X165.66Y-113.58
X168.24Y-80.01
X168.24Y-85.09
X168.24Y-90.17
X175.86Y-80.01
X175.86Y-85.09
X175.86Y-90.17
X178.36Y-95.8
X178.36Y-98.34
X178.36Y-100.88
X178.36Y-103.42
X178.36Y-105.96
X178.36Y-108.5
X178.36Y-111.04
X178.36Y-113.58
X182.206Y-89.154
X184.706Y-89.154
X188.52Y-95.8
X188.52Y-98.34
X188.52Y-100.88
X188.52Y-103.42
X188.52Y-105.96
X188.52Y-108.5
X188.52Y-111.04
X188.52Y-113.58
X191.1Y-80.01
X191.1Y-85.09
X191.1Y-90.17
X198.72Y-80.01
X198.72Y-85.09
X198.72Y-90.17
X201.22Y-95.8
X201.22Y-98.34
X201.22Y-100.88
X201.22Y-103.42
X201.22Y-105.96
X201.22Y-108.5
X201.22Y-111.04
X201.22Y-113.58
X205.066Y-89.154
X207.566Y-89.154
X207.747Y-73.66
X207.747Y-83.82
X214.884Y-109.728
X214.884Y-119.888
X215.138Y-124.714
X217.678Y-124.714
X219.71Y-109.728
X219.71Y-119.888
X220.218Y-124.714
T4
X157.48Y-48.26
T5
X80.772Y-47.803
X80.772Y-50.343
X83.312Y-47.803
X83.312Y-50.343
X85.852Y-47.803
X85.852Y-50.343
X88.392Y-47.803
X88.392Y-50.343
X142.24Y-48.26
X142.24Y-50.8
X144.78Y-48.26
X144.78Y-50.8
X147.32Y-48.26
X147.32Y-50.8
X149.86Y-48.26
X149.86Y-50.8
X152.4Y-48.26
X152.4Y-50.8
X154.94Y-48.26
X154.94Y-50.8
X177.8Y-47.803
X177.8Y-50.343
X180.34Y-47.803
X180.34Y-50.343
X182.88Y-47.803
X182.88Y-50.343
X185.42Y-47.803
X185.42Y-50.343
X187.96Y-47.803
X187.96Y-50.343
X190.5Y-47.803
X190.5Y-50.343
X193.04Y-47.803
X193.04Y-50.343
X195.58Y-47.803
X195.58Y-50.343
X198.12Y-47.803
X198.12Y-50.343
X200.66Y-47.803
X200.66Y-50.343
X203.2Y-47.803
X203.2Y-50.343
X205.74Y-47.803
X205.74Y-50.343
X208.28Y-47.803
X208.28Y-50.343
X210.82Y-47.803
X210.82Y-50.343
X213.36Y-47.803
X213.36Y-50.343
X215.9Y-78.74
X215.9Y-81.28
X215.9Y-83.82
X215.9Y-99.06
X215.9Y-101.6
X215.9Y-104.14
T6
X95.16Y-55.88
X99.76Y-55.88
X111.06Y-55.88
X115.66Y-55.88
T7
X70.866Y-55.372
X70.866Y-60.452
X70.866Y-68.58
X70.866Y-73.66
X70.866Y-78.74
X70.866Y-83.82
X70.866Y-91.44
X70.866Y-96.52
X70.866Y-101.6
X70.866Y-106.68
X70.866Y-111.87
X70.866Y-116.95
X82.498Y-124.206
X87.578Y-124.206
X92.658Y-124.206
X97.738Y-124.206
X102.818Y-124.206
X107.898Y-124.206
X113.03Y-124.206
X118.11Y-124.206
X123.19Y-124.206
X128.27Y-124.206
X133.35Y-124.206
X138.43Y-124.206
X143.51Y-124.206
X148.59Y-124.206
X153.67Y-124.206
X158.75Y-124.206
X163.83Y-124.206
X168.91Y-124.206
X173.99Y-124.206
X179.07Y-124.206
X184.15Y-124.206
X189.23Y-124.206
X194.31Y-124.206
X199.39Y-124.206
X204.47Y-124.206
X209.55Y-124.206
X227.076Y-52.832
X227.076Y-57.912
X227.076Y-62.992
X227.076Y-68.072
X227.076Y-73.152
X227.076Y-78.232
X227.076Y-83.312
X227.076Y-88.392
X227.076Y-93.472
X227.076Y-98.552
X227.076Y-103.632
X227.076Y-108.712
X227.076Y-113.792
X227.076Y-118.872
T0
M30
