%TF.GenerationSoftware,KiCad,Pcbnew,7.0.7*%
%TF.CreationDate,2024-01-02T15:01:59+01:00*%
%TF.ProjectId,periphery_5_drivers,70657269-7068-4657-9279-5f355f647269,rev?*%
%TF.SameCoordinates,Original*%
%TF.FileFunction,Soldermask,Top*%
%TF.FilePolarity,Negative*%
%FSLAX46Y46*%
G04 Gerber Fmt 4.6, Leading zero omitted, Abs format (unit mm)*
G04 Created by KiCad (PCBNEW 7.0.7) date 2024-01-02 15:01:59*
%MOMM*%
%LPD*%
G01*
G04 APERTURE LIST*
%ADD10R,1.600000X1.600000*%
%ADD11C,1.600000*%
%ADD12O,1.600000X1.600000*%
%ADD13R,3.000000X3.000000*%
%ADD14C,3.000000*%
%ADD15C,3.200000*%
%ADD16R,1.700000X1.700000*%
%ADD17O,1.700000X1.700000*%
%ADD18R,1.500000X1.500000*%
%ADD19C,1.500000*%
%ADD20C,2.300000*%
G04 APERTURE END LIST*
D10*
%TO.C,C3*%
X159345621Y-89154000D03*
D11*
X161845621Y-89154000D03*
%TD*%
D10*
%TO.C,C4*%
X182205621Y-89154000D03*
D11*
X184705621Y-89154000D03*
%TD*%
D10*
%TO.C,SW8*%
X99660000Y-85344000D03*
D12*
X107280000Y-85344000D03*
%TD*%
D13*
%TO.C,J12*%
X92658000Y-124206000D03*
D14*
X97738000Y-124206000D03*
%TD*%
D10*
%TO.C,SW15*%
X191100000Y-90170000D03*
D12*
X198720000Y-90170000D03*
%TD*%
D10*
%TO.C,A1*%
X109770000Y-113580000D03*
D12*
X109770000Y-111040000D03*
X109770000Y-108500000D03*
X109770000Y-105960000D03*
X109770000Y-103420000D03*
X109770000Y-100880000D03*
X109770000Y-98340000D03*
X109770000Y-95800000D03*
X97070000Y-95800000D03*
X97070000Y-98340000D03*
X97070000Y-100880000D03*
X97070000Y-103420000D03*
X97070000Y-105960000D03*
X97070000Y-108500000D03*
X97070000Y-111040000D03*
X97070000Y-113580000D03*
%TD*%
D15*
%TO.C,H1*%
X229000000Y-46000000D03*
%TD*%
D10*
%TO.C,C5*%
X205065621Y-89154000D03*
D11*
X207565621Y-89154000D03*
%TD*%
D13*
%TO.C,J24*%
X153670000Y-124206000D03*
D14*
X158750000Y-124206000D03*
X163830000Y-124206000D03*
X168910000Y-124206000D03*
%TD*%
D13*
%TO.C,J22*%
X227076000Y-118872000D03*
D14*
X227076000Y-113792000D03*
%TD*%
D10*
%TO.C,SW19*%
X81153000Y-111504400D03*
D12*
X88773000Y-111504400D03*
%TD*%
D13*
%TO.C,J17*%
X227076000Y-68072000D03*
D14*
X227076000Y-62992000D03*
%TD*%
D10*
%TO.C,SW13*%
X191100000Y-80010000D03*
D12*
X198720000Y-80010000D03*
%TD*%
D16*
%TO.C,J8*%
X88392000Y-50342800D03*
D17*
X88392000Y-47802800D03*
X85852000Y-50342800D03*
X85852000Y-47802800D03*
X83312000Y-50342800D03*
X83312000Y-47802800D03*
X80772000Y-50342800D03*
X80772000Y-47802800D03*
%TD*%
D13*
%TO.C,J13*%
X70866000Y-111870000D03*
D14*
X70866000Y-116950000D03*
%TD*%
D16*
%TO.C,J2*%
X213360000Y-50342800D03*
D17*
X213360000Y-47802800D03*
X210820000Y-50342800D03*
X210820000Y-47802800D03*
X208280000Y-50342800D03*
X208280000Y-47802800D03*
X205740000Y-50342800D03*
X205740000Y-47802800D03*
X203200000Y-50342800D03*
X203200000Y-47802800D03*
X200660000Y-50342800D03*
X200660000Y-47802800D03*
X198120000Y-50342800D03*
X198120000Y-47802800D03*
X195580000Y-50342800D03*
X195580000Y-47802800D03*
X193040000Y-50342800D03*
X193040000Y-47802800D03*
X190500000Y-50342800D03*
X190500000Y-47802800D03*
X187960000Y-50342800D03*
X187960000Y-47802800D03*
X185420000Y-50342800D03*
X185420000Y-47802800D03*
X182880000Y-50342800D03*
X182880000Y-47802800D03*
X180340000Y-50342800D03*
X180340000Y-47802800D03*
X177800000Y-50342800D03*
X177800000Y-47802800D03*
%TD*%
D15*
%TO.C,H3*%
X69000000Y-126000000D03*
%TD*%
D11*
%TO.C,R3*%
X214884000Y-109728000D03*
D12*
X214884000Y-119888000D03*
%TD*%
D10*
%TO.C,A2*%
X132640000Y-113580000D03*
D12*
X132640000Y-111040000D03*
X132640000Y-108500000D03*
X132640000Y-105960000D03*
X132640000Y-103420000D03*
X132640000Y-100880000D03*
X132640000Y-98340000D03*
X132640000Y-95800000D03*
X119940000Y-95800000D03*
X119940000Y-98340000D03*
X119940000Y-100880000D03*
X119940000Y-103420000D03*
X119940000Y-105960000D03*
X119940000Y-108500000D03*
X119940000Y-111040000D03*
X119940000Y-113580000D03*
%TD*%
D16*
%TO.C,J23*%
X142240000Y-48260000D03*
D17*
X142240000Y-50800000D03*
X144780000Y-48260000D03*
X144780000Y-50800000D03*
X147320000Y-48260000D03*
X147320000Y-50800000D03*
X149860000Y-48260000D03*
X149860000Y-50800000D03*
X152400000Y-48260000D03*
X152400000Y-50800000D03*
X154940000Y-48260000D03*
X154940000Y-50800000D03*
%TD*%
D10*
%TO.C,SW6*%
X122520000Y-90410000D03*
D12*
X130140000Y-90410000D03*
%TD*%
D18*
%TO.C,Q1*%
X220218000Y-124714000D03*
D19*
X217678000Y-124714000D03*
X215138000Y-124714000D03*
%TD*%
D10*
%TO.C,SW12*%
X168240000Y-90170000D03*
D12*
X175860000Y-90170000D03*
%TD*%
D10*
%TO.C,A5*%
X155500000Y-113580000D03*
D12*
X155500000Y-111040000D03*
X155500000Y-108500000D03*
X155500000Y-105960000D03*
X155500000Y-103420000D03*
X155500000Y-100880000D03*
X155500000Y-98340000D03*
X155500000Y-95800000D03*
X142800000Y-95800000D03*
X142800000Y-98340000D03*
X142800000Y-100880000D03*
X142800000Y-103420000D03*
X142800000Y-105960000D03*
X142800000Y-108500000D03*
X142800000Y-111040000D03*
X142800000Y-113580000D03*
%TD*%
D13*
%TO.C,J6*%
X70866000Y-78740000D03*
D14*
X70866000Y-83820000D03*
%TD*%
D10*
%TO.C,SW5*%
X122513200Y-85344000D03*
D12*
X130133200Y-85344000D03*
%TD*%
D10*
%TO.C,SW21*%
X145380000Y-85090000D03*
D12*
X153000000Y-85090000D03*
%TD*%
D15*
%TO.C,H4*%
X69000000Y-46000000D03*
%TD*%
D10*
%TO.C,SW20*%
X145380000Y-80010000D03*
D12*
X153000000Y-80010000D03*
%TD*%
D10*
%TO.C,SW4*%
X122502900Y-80264000D03*
D12*
X130122900Y-80264000D03*
%TD*%
D10*
%TO.C,C1*%
X113625621Y-89154000D03*
D11*
X116125621Y-89154000D03*
%TD*%
D13*
%TO.C,J21*%
X227076000Y-88392000D03*
D14*
X227076000Y-83312000D03*
%TD*%
D16*
%TO.C,SW3*%
X215900000Y-78740000D03*
D17*
X215900000Y-81280000D03*
X215900000Y-83820000D03*
%TD*%
D15*
%TO.C,H2*%
X229000000Y-126000000D03*
%TD*%
D10*
%TO.C,SW22*%
X145380000Y-90170000D03*
D12*
X153000000Y-90170000D03*
%TD*%
D10*
%TO.C,SW18*%
X81153000Y-106426000D03*
D12*
X88773000Y-106426000D03*
%TD*%
D13*
%TO.C,J14*%
X102818000Y-124206000D03*
D14*
X107898000Y-124206000D03*
%TD*%
D10*
%TO.C,SW11*%
X168240000Y-85090000D03*
D12*
X175860000Y-85090000D03*
%TD*%
D10*
%TO.C,A3*%
X178360000Y-113580000D03*
D12*
X178360000Y-111040000D03*
X178360000Y-108500000D03*
X178360000Y-105960000D03*
X178360000Y-103420000D03*
X178360000Y-100880000D03*
X178360000Y-98340000D03*
X178360000Y-95800000D03*
X165660000Y-95800000D03*
X165660000Y-98340000D03*
X165660000Y-100880000D03*
X165660000Y-103420000D03*
X165660000Y-105960000D03*
X165660000Y-108500000D03*
X165660000Y-111040000D03*
X165660000Y-113580000D03*
%TD*%
D10*
%TO.C,SW2*%
X81153000Y-91184400D03*
D12*
X88773000Y-91184400D03*
%TD*%
D20*
%TO.C,F1*%
X115660000Y-55880000D03*
X111060000Y-55880000D03*
X99760000Y-55880000D03*
X95160000Y-55880000D03*
%TD*%
D10*
%TO.C,A4*%
X201220000Y-113580000D03*
D12*
X201220000Y-111040000D03*
X201220000Y-108500000D03*
X201220000Y-105960000D03*
X201220000Y-103420000D03*
X201220000Y-100880000D03*
X201220000Y-98340000D03*
X201220000Y-95800000D03*
X188520000Y-95800000D03*
X188520000Y-98340000D03*
X188520000Y-100880000D03*
X188520000Y-103420000D03*
X188520000Y-105960000D03*
X188520000Y-108500000D03*
X188520000Y-111040000D03*
X188520000Y-113580000D03*
%TD*%
D10*
%TO.C,C2*%
X136485621Y-89154000D03*
D11*
X138985621Y-89154000D03*
%TD*%
D13*
%TO.C,J4*%
X70866000Y-68580000D03*
D14*
X70866000Y-73660000D03*
%TD*%
D13*
%TO.C,J16*%
X227076000Y-57912000D03*
D14*
X227076000Y-52832000D03*
%TD*%
D10*
%TO.C,SW10*%
X168240000Y-80010000D03*
D12*
X175860000Y-80010000D03*
%TD*%
D10*
%TO.C,SW14*%
X191100000Y-85090000D03*
D12*
X198720000Y-85090000D03*
%TD*%
D13*
%TO.C,J5*%
X173990000Y-124206000D03*
D14*
X179070000Y-124206000D03*
X184150000Y-124206000D03*
X189230000Y-124206000D03*
%TD*%
D16*
%TO.C,SW1*%
X215900000Y-99060000D03*
D17*
X215900000Y-101600000D03*
X215900000Y-104140000D03*
%TD*%
D13*
%TO.C,J9*%
X70866000Y-91440000D03*
D14*
X70866000Y-96520000D03*
%TD*%
D13*
%TO.C,J7*%
X194310000Y-124206000D03*
D14*
X199390000Y-124206000D03*
X204470000Y-124206000D03*
X209550000Y-124206000D03*
%TD*%
D13*
%TO.C,J1*%
X113030000Y-124206000D03*
D14*
X118110000Y-124206000D03*
X123190000Y-124206000D03*
X128270000Y-124206000D03*
%TD*%
D10*
%TO.C,SW7*%
X99660000Y-80264000D03*
D12*
X107280000Y-80264000D03*
%TD*%
D13*
%TO.C,J19*%
X227076000Y-108712000D03*
D14*
X227076000Y-103632000D03*
%TD*%
D13*
%TO.C,J20*%
X227076000Y-98552000D03*
D14*
X227076000Y-93472000D03*
%TD*%
D13*
%TO.C,J10*%
X82498000Y-124206000D03*
D14*
X87578000Y-124206000D03*
%TD*%
D10*
%TO.C,SW16*%
X81153000Y-96264400D03*
D12*
X88773000Y-96264400D03*
%TD*%
D13*
%TO.C,J18*%
X227076000Y-78232000D03*
D14*
X227076000Y-73152000D03*
%TD*%
D11*
%TO.C,R2*%
X219710000Y-109728000D03*
D12*
X219710000Y-119888000D03*
%TD*%
D11*
%TO.C,R1*%
X207746600Y-73660000D03*
D12*
X207746600Y-83820000D03*
%TD*%
D10*
%TO.C,SW9*%
X99660000Y-90424000D03*
D12*
X107280000Y-90424000D03*
%TD*%
D13*
%TO.C,J26*%
X70866000Y-55372000D03*
D14*
X70866000Y-60452000D03*
%TD*%
D13*
%TO.C,J11*%
X70866000Y-101600000D03*
D14*
X70866000Y-106680000D03*
%TD*%
D13*
%TO.C,J3*%
X133350000Y-124206000D03*
D14*
X138430000Y-124206000D03*
X143510000Y-124206000D03*
X148590000Y-124206000D03*
%TD*%
D10*
%TO.C,SW17*%
X81153000Y-101344400D03*
D12*
X88773000Y-101344400D03*
%TD*%
M02*
