%TF.GenerationSoftware,KiCad,Pcbnew,7.0.7*%
%TF.CreationDate,2024-01-02T15:01:12+01:00*%
%TF.ProjectId,fan-control,66616e2d-636f-46e7-9472-6f6c2e6b6963,rev?*%
%TF.SameCoordinates,Original*%
%TF.FileFunction,Copper,L2,Bot*%
%TF.FilePolarity,Positive*%
%FSLAX46Y46*%
G04 Gerber Fmt 4.6, Leading zero omitted, Abs format (unit mm)*
G04 Created by KiCad (PCBNEW 7.0.7) date 2024-01-02 15:01:12*
%MOMM*%
%LPD*%
G01*
G04 APERTURE LIST*
%TA.AperFunction,ComponentPad*%
%ADD10R,1.600000X1.600000*%
%TD*%
%TA.AperFunction,ComponentPad*%
%ADD11O,1.600000X1.600000*%
%TD*%
%TA.AperFunction,ComponentPad*%
%ADD12R,3.000000X3.000000*%
%TD*%
%TA.AperFunction,ComponentPad*%
%ADD13C,3.000000*%
%TD*%
%TA.AperFunction,ComponentPad*%
%ADD14C,2.340000*%
%TD*%
%TA.AperFunction,ComponentPad*%
%ADD15R,2.030000X1.730000*%
%TD*%
%TA.AperFunction,ComponentPad*%
%ADD16O,2.030000X1.730000*%
%TD*%
%TA.AperFunction,ComponentPad*%
%ADD17C,1.600000*%
%TD*%
%TA.AperFunction,ViaPad*%
%ADD18C,0.800000*%
%TD*%
%TA.AperFunction,Conductor*%
%ADD19C,1.270000*%
%TD*%
%TA.AperFunction,Conductor*%
%ADD20C,2.000000*%
%TD*%
G04 APERTURE END LIST*
D10*
%TO.P,SW1,1*%
%TO.N,Net-(A1-VIN)*%
X128227500Y-77470000D03*
D11*
%TO.P,SW1,2*%
%TO.N,12V*%
X120607500Y-77470000D03*
%TD*%
D12*
%TO.P,J6,1,Pin_1*%
%TO.N,GND*%
X140970000Y-64770000D03*
D13*
%TO.P,J6,2,Pin_2*%
%TO.N,12V*%
X135890000Y-64770000D03*
%TD*%
D14*
%TO.P,RV1,1,1*%
%TO.N,5V*%
X138510000Y-117856000D03*
%TO.P,RV1,2,2*%
%TO.N,SPEED_CONTROL*%
X143510000Y-117856000D03*
%TO.P,RV1,3,3*%
%TO.N,GND*%
X148510000Y-117856000D03*
%TD*%
D10*
%TO.P,A1,1,TX1*%
%TO.N,unconnected-(A1-TX1-Pad1)*%
X116840000Y-86360000D03*
D11*
%TO.P,A1,2,RX1*%
%TO.N,unconnected-(A1-RX1-Pad2)*%
X116840000Y-88900000D03*
%TO.P,A1,3,~{RESET}*%
%TO.N,unconnected-(A1-~{RESET}-Pad3)*%
X116840000Y-91440000D03*
%TO.P,A1,4,GND*%
%TO.N,GND*%
X116840000Y-93980000D03*
%TO.P,A1,5,D2*%
%TO.N,unconnected-(A1-D2-Pad5)*%
X116840000Y-96520000D03*
%TO.P,A1,6,D3*%
%TO.N,unconnected-(A1-D3-Pad6)*%
X116840000Y-99060000D03*
%TO.P,A1,7,D4*%
%TO.N,unconnected-(A1-D4-Pad7)*%
X116840000Y-101600000D03*
%TO.P,A1,8,D5*%
%TO.N,unconnected-(A1-D5-Pad8)*%
X116840000Y-104140000D03*
%TO.P,A1,9,D6*%
%TO.N,unconnected-(A1-D6-Pad9)*%
X116840000Y-106680000D03*
%TO.P,A1,10,D7*%
%TO.N,unconnected-(A1-D7-Pad10)*%
X116840000Y-109220000D03*
%TO.P,A1,11,D8*%
%TO.N,unconnected-(A1-D8-Pad11)*%
X116840000Y-111760000D03*
%TO.P,A1,12,D9*%
%TO.N,PWM*%
X116840000Y-114300000D03*
%TO.P,A1,13,D10*%
%TO.N,unconnected-(A1-D10-Pad13)*%
X116840000Y-116840000D03*
%TO.P,A1,14,MOSI*%
%TO.N,unconnected-(A1-MOSI-Pad14)*%
X116840000Y-119380000D03*
%TO.P,A1,15,MISO*%
%TO.N,unconnected-(A1-MISO-Pad15)*%
X116840000Y-121920000D03*
%TO.P,A1,16,SCK*%
%TO.N,unconnected-(A1-SCK-Pad16)*%
X132080000Y-121920000D03*
%TO.P,A1,17,3V3*%
%TO.N,unconnected-(A1-3V3-Pad17)*%
X132080000Y-119380000D03*
%TO.P,A1,18,AREF*%
%TO.N,unconnected-(A1-AREF-Pad18)*%
X132080000Y-116840000D03*
%TO.P,A1,19,A0*%
%TO.N,SPEED_CONTROL*%
X132080000Y-114300000D03*
%TO.P,A1,20,A1*%
%TO.N,SENSE_1*%
X132080000Y-111760000D03*
%TO.P,A1,21,A2*%
%TO.N,SENSE_2*%
X132080000Y-109220000D03*
%TO.P,A1,22,A3*%
%TO.N,SENSE_3*%
X132080000Y-106680000D03*
%TO.P,A1,23,SDA/A4*%
%TO.N,unconnected-(A1-SDA{slash}A4-Pad23)*%
X132080000Y-104140000D03*
%TO.P,A1,24,SCL/A5*%
%TO.N,unconnected-(A1-SCL{slash}A5-Pad24)*%
X132080000Y-101600000D03*
%TO.P,A1,25,A6*%
%TO.N,SENSE_4*%
X132080000Y-99060000D03*
%TO.P,A1,26,A7*%
%TO.N,SENSE_5*%
X132080000Y-96520000D03*
%TO.P,A1,27,+5V*%
%TO.N,5V*%
X132080000Y-93980000D03*
%TO.P,A1,28,~{RESET}*%
%TO.N,unconnected-(A1-~{RESET}-Pad28)*%
X132080000Y-91440000D03*
%TO.P,A1,29,GND*%
%TO.N,GND*%
X132080000Y-88900000D03*
%TO.P,A1,30,VIN*%
%TO.N,Net-(A1-VIN)*%
X132080000Y-86360000D03*
%TD*%
D15*
%TO.P,J2,1,Pin_1*%
%TO.N,GND*%
X157180000Y-113380000D03*
D16*
%TO.P,J2,2,Pin_2*%
%TO.N,12V*%
X157180000Y-110840000D03*
%TO.P,J2,3,Pin_3*%
%TO.N,SENSE_2*%
X157180000Y-108300000D03*
%TO.P,J2,4,Pin_4*%
%TO.N,PWM*%
X157180000Y-105760000D03*
%TD*%
D10*
%TO.P,C1,1*%
%TO.N,5V*%
X142280000Y-109996000D03*
D17*
%TO.P,C1,2*%
%TO.N,GND*%
X144780000Y-109996000D03*
%TD*%
D15*
%TO.P,J4,1,Pin_1*%
%TO.N,GND*%
X157180000Y-88128000D03*
D16*
%TO.P,J4,2,Pin_2*%
%TO.N,12V*%
X157180000Y-85588000D03*
%TO.P,J4,3,Pin_3*%
%TO.N,SENSE_4*%
X157180000Y-83048000D03*
%TO.P,J4,4,Pin_4*%
%TO.N,PWM*%
X157180000Y-80508000D03*
%TD*%
D15*
%TO.P,J5,1,Pin_1*%
%TO.N,GND*%
X157180000Y-75184000D03*
D16*
%TO.P,J5,2,Pin_2*%
%TO.N,12V*%
X157180000Y-72644000D03*
%TO.P,J5,3,Pin_3*%
%TO.N,SENSE_5*%
X157180000Y-70104000D03*
%TO.P,J5,4,Pin_4*%
%TO.N,PWM*%
X157180000Y-67564000D03*
%TD*%
D15*
%TO.P,J1,1,Pin_1*%
%TO.N,GND*%
X157180000Y-126080000D03*
D16*
%TO.P,J1,2,Pin_2*%
%TO.N,12V*%
X157180000Y-123540000D03*
%TO.P,J1,3,Pin_3*%
%TO.N,SENSE_1*%
X157180000Y-121000000D03*
%TO.P,J1,4,Pin_4*%
%TO.N,PWM*%
X157180000Y-118460000D03*
%TD*%
D15*
%TO.P,J3,1,Pin_1*%
%TO.N,GND*%
X157180000Y-100680000D03*
D16*
%TO.P,J3,2,Pin_2*%
%TO.N,12V*%
X157180000Y-98140000D03*
%TO.P,J3,3,Pin_3*%
%TO.N,SENSE_3*%
X157180000Y-95600000D03*
%TO.P,J3,4,Pin_4*%
%TO.N,PWM*%
X157180000Y-93060000D03*
%TD*%
D18*
%TO.N,5V*%
X135382000Y-104902000D03*
X135382000Y-111506000D03*
X135382000Y-89662000D03*
%TD*%
D19*
%TO.N,PWM*%
X145390920Y-123952000D02*
X131064000Y-123952000D01*
X131064000Y-123952000D02*
X121412000Y-114300000D01*
X150882920Y-118460000D02*
X145390920Y-123952000D01*
X157180000Y-118460000D02*
X150882920Y-118460000D01*
X121412000Y-114300000D02*
X116840000Y-114300000D01*
%TO.N,5V*%
X135382000Y-104902000D02*
X135382000Y-89662000D01*
X135382000Y-111506000D02*
X135382000Y-104902000D01*
D20*
%TO.N,Net-(A1-VIN)*%
X128227500Y-77470000D02*
X128778000Y-77470000D01*
X132080000Y-80772000D02*
X132080000Y-86360000D01*
X128778000Y-77470000D02*
X132080000Y-80772000D01*
%TO.N,12V*%
X157180000Y-98140000D02*
X159416000Y-98140000D01*
X120607500Y-74464500D02*
X125730000Y-69342000D01*
X159416000Y-98140000D02*
X160020000Y-97536000D01*
X160020000Y-85344000D02*
X160020000Y-73544000D01*
X158908000Y-123540000D02*
X160020000Y-122428000D01*
X157180000Y-72644000D02*
X139192000Y-72644000D01*
X120607500Y-77470000D02*
X120607500Y-74464500D01*
X135890000Y-69342000D02*
X135890000Y-64770000D01*
X157180000Y-85588000D02*
X159776000Y-85588000D01*
X125730000Y-69342000D02*
X135890000Y-69342000D01*
X160020000Y-97536000D02*
X160020000Y-85344000D01*
X157180000Y-110840000D02*
X159924000Y-110840000D01*
X139192000Y-72644000D02*
X135890000Y-69342000D01*
X159776000Y-85588000D02*
X160020000Y-85344000D01*
X160020000Y-73544000D02*
X159120000Y-72644000D01*
X160020000Y-122428000D02*
X160020000Y-109728000D01*
X157180000Y-123540000D02*
X158908000Y-123540000D01*
X159120000Y-72644000D02*
X157180000Y-72644000D01*
X159924000Y-110840000D02*
X160020000Y-110744000D01*
X160020000Y-109728000D02*
X160020000Y-97536000D01*
%TD*%
%TA.AperFunction,Conductor*%
%TO.N,GND*%
G36*
X162942539Y-57020185D02*
G01*
X162988294Y-57072989D01*
X162999500Y-57124500D01*
X162999500Y-136875500D01*
X162979815Y-136942539D01*
X162927011Y-136988294D01*
X162875500Y-136999500D01*
X115124500Y-136999500D01*
X115057461Y-136979815D01*
X115011706Y-136927011D01*
X115000500Y-136875500D01*
X115000500Y-132069594D01*
X118095686Y-132069594D01*
X118126114Y-132346125D01*
X118196478Y-132615272D01*
X118251726Y-132745283D01*
X118305284Y-132871314D01*
X118450205Y-133108776D01*
X118450212Y-133108786D01*
X118628161Y-133322616D01*
X118628167Y-133322621D01*
X118793918Y-133471133D01*
X118835357Y-133508263D01*
X119067373Y-133661763D01*
X119319267Y-133779846D01*
X119319274Y-133779848D01*
X119319276Y-133779849D01*
X119585657Y-133859992D01*
X119585664Y-133859993D01*
X119585669Y-133859995D01*
X119860901Y-133900500D01*
X119860906Y-133900500D01*
X120069469Y-133900500D01*
X120129862Y-133896079D01*
X120277455Y-133885277D01*
X120548997Y-133824788D01*
X120808838Y-133725408D01*
X121051440Y-133589253D01*
X121271632Y-133419226D01*
X121464722Y-133218951D01*
X121626593Y-132992696D01*
X121702580Y-132844900D01*
X121753790Y-132745298D01*
X121753794Y-132745288D01*
X121753797Y-132745283D01*
X121843621Y-132481986D01*
X121894152Y-132208416D01*
X121899226Y-132069594D01*
X156255686Y-132069594D01*
X156286114Y-132346125D01*
X156356478Y-132615272D01*
X156411726Y-132745283D01*
X156465284Y-132871314D01*
X156610205Y-133108776D01*
X156610212Y-133108786D01*
X156788161Y-133322616D01*
X156788167Y-133322621D01*
X156953918Y-133471133D01*
X156995357Y-133508263D01*
X157227373Y-133661763D01*
X157479267Y-133779846D01*
X157479274Y-133779848D01*
X157479276Y-133779849D01*
X157745657Y-133859992D01*
X157745664Y-133859993D01*
X157745669Y-133859995D01*
X158020901Y-133900500D01*
X158020906Y-133900500D01*
X158229469Y-133900500D01*
X158289862Y-133896079D01*
X158437455Y-133885277D01*
X158708997Y-133824788D01*
X158968838Y-133725408D01*
X159211440Y-133589253D01*
X159431632Y-133419226D01*
X159624722Y-133218951D01*
X159786593Y-132992696D01*
X159862580Y-132844900D01*
X159913790Y-132745298D01*
X159913794Y-132745288D01*
X159913797Y-132745283D01*
X160003621Y-132481986D01*
X160054152Y-132208416D01*
X160064313Y-131930404D01*
X160033886Y-131653876D01*
X159963520Y-131384724D01*
X159854716Y-131128686D01*
X159709792Y-130891219D01*
X159618112Y-130781053D01*
X159531838Y-130677383D01*
X159531832Y-130677378D01*
X159324643Y-130491737D01*
X159092629Y-130338238D01*
X159092627Y-130338237D01*
X158840733Y-130220154D01*
X158840728Y-130220152D01*
X158840723Y-130220150D01*
X158574342Y-130140007D01*
X158574328Y-130140004D01*
X158455565Y-130122526D01*
X158299099Y-130099500D01*
X158090537Y-130099500D01*
X158090531Y-130099500D01*
X157882545Y-130114723D01*
X157882535Y-130114724D01*
X157611007Y-130175210D01*
X157610997Y-130175213D01*
X157351161Y-130274592D01*
X157108561Y-130410746D01*
X157108556Y-130410749D01*
X156888369Y-130580772D01*
X156888359Y-130580781D01*
X156695281Y-130781045D01*
X156695274Y-130781053D01*
X156533412Y-131007295D01*
X156533405Y-131007307D01*
X156406209Y-131254701D01*
X156406205Y-131254711D01*
X156316379Y-131518012D01*
X156316378Y-131518018D01*
X156265848Y-131791584D01*
X156265847Y-131791591D01*
X156255686Y-132069594D01*
X121899226Y-132069594D01*
X121904313Y-131930404D01*
X121873886Y-131653876D01*
X121803520Y-131384724D01*
X121694716Y-131128686D01*
X121549792Y-130891219D01*
X121458112Y-130781053D01*
X121371838Y-130677383D01*
X121371832Y-130677378D01*
X121164643Y-130491737D01*
X120932629Y-130338238D01*
X120932627Y-130338237D01*
X120680733Y-130220154D01*
X120680728Y-130220152D01*
X120680723Y-130220150D01*
X120414342Y-130140007D01*
X120414328Y-130140004D01*
X120295565Y-130122526D01*
X120139099Y-130099500D01*
X119930537Y-130099500D01*
X119930531Y-130099500D01*
X119722545Y-130114723D01*
X119722535Y-130114724D01*
X119451007Y-130175210D01*
X119450997Y-130175213D01*
X119191161Y-130274592D01*
X118948561Y-130410746D01*
X118948556Y-130410749D01*
X118728369Y-130580772D01*
X118728359Y-130580781D01*
X118535281Y-130781045D01*
X118535274Y-130781053D01*
X118373412Y-131007295D01*
X118373405Y-131007307D01*
X118246209Y-131254701D01*
X118246205Y-131254711D01*
X118156379Y-131518012D01*
X118156378Y-131518018D01*
X118105848Y-131791584D01*
X118105847Y-131791591D01*
X118095686Y-132069594D01*
X115000500Y-132069594D01*
X115000500Y-121920001D01*
X115534532Y-121920001D01*
X115554364Y-122146686D01*
X115554366Y-122146697D01*
X115613258Y-122366488D01*
X115613261Y-122366497D01*
X115709431Y-122572732D01*
X115709432Y-122572734D01*
X115839954Y-122759141D01*
X116000858Y-122920045D01*
X116000861Y-122920047D01*
X116187266Y-123050568D01*
X116393504Y-123146739D01*
X116613308Y-123205635D01*
X116775230Y-123219801D01*
X116839998Y-123225468D01*
X116840000Y-123225468D01*
X116840002Y-123225468D01*
X116896672Y-123220509D01*
X117066692Y-123205635D01*
X117286496Y-123146739D01*
X117492734Y-123050568D01*
X117679139Y-122920047D01*
X117840047Y-122759139D01*
X117970568Y-122572734D01*
X118066739Y-122366496D01*
X118125635Y-122146692D01*
X118145468Y-121920000D01*
X118125635Y-121693308D01*
X118080916Y-121526415D01*
X118066741Y-121473511D01*
X118066738Y-121473502D01*
X117970568Y-121267266D01*
X117840047Y-121080861D01*
X117840045Y-121080858D01*
X117679141Y-120919954D01*
X117492734Y-120789432D01*
X117492728Y-120789429D01*
X117434725Y-120762382D01*
X117382285Y-120716210D01*
X117363133Y-120649017D01*
X117383348Y-120582135D01*
X117434725Y-120537618D01*
X117492734Y-120510568D01*
X117679139Y-120380047D01*
X117840047Y-120219139D01*
X117970568Y-120032734D01*
X118066739Y-119826496D01*
X118125635Y-119606692D01*
X118145468Y-119380000D01*
X118125635Y-119153308D01*
X118066739Y-118933504D01*
X117970568Y-118727266D01*
X117840047Y-118540861D01*
X117840045Y-118540858D01*
X117679141Y-118379954D01*
X117492734Y-118249432D01*
X117492728Y-118249429D01*
X117434725Y-118222382D01*
X117382285Y-118176210D01*
X117363133Y-118109017D01*
X117383348Y-118042135D01*
X117434725Y-117997618D01*
X117492734Y-117970568D01*
X117679139Y-117840047D01*
X117840047Y-117679139D01*
X117970568Y-117492734D01*
X118066739Y-117286496D01*
X118125635Y-117066692D01*
X118145468Y-116840000D01*
X118125635Y-116613308D01*
X118069885Y-116405244D01*
X118066741Y-116393511D01*
X118066738Y-116393502D01*
X118021559Y-116296616D01*
X117970568Y-116187266D01*
X117840047Y-116000861D01*
X117840045Y-116000858D01*
X117679141Y-115839954D01*
X117492734Y-115709432D01*
X117492732Y-115709431D01*
X117434725Y-115682382D01*
X117382286Y-115636209D01*
X117363134Y-115569016D01*
X117383350Y-115502135D01*
X117434725Y-115457618D01*
X117457242Y-115447118D01*
X117509647Y-115435500D01*
X120890299Y-115435500D01*
X120957338Y-115455185D01*
X120977979Y-115471818D01*
X125585027Y-120078867D01*
X130186721Y-124680561D01*
X130200049Y-124696317D01*
X130201942Y-124698976D01*
X130201944Y-124698978D01*
X130270621Y-124764461D01*
X130299316Y-124793157D01*
X130299337Y-124793176D01*
X130303323Y-124796467D01*
X130308069Y-124800385D01*
X130311373Y-124803318D01*
X130358889Y-124848624D01*
X130390082Y-124868670D01*
X130396028Y-124873010D01*
X130419822Y-124892656D01*
X130424652Y-124896644D01*
X130451214Y-124911147D01*
X130482303Y-124928122D01*
X130486085Y-124930367D01*
X130541317Y-124965863D01*
X130575744Y-124979644D01*
X130582413Y-124982786D01*
X130614974Y-125000567D01*
X130614972Y-125000567D01*
X130677527Y-125020563D01*
X130681672Y-125022053D01*
X130742638Y-125046460D01*
X130779053Y-125053478D01*
X130786193Y-125055299D01*
X130821534Y-125066597D01*
X130821536Y-125066597D01*
X130821539Y-125066598D01*
X130850645Y-125070077D01*
X130886734Y-125074392D01*
X130891075Y-125075068D01*
X130955573Y-125087500D01*
X130992662Y-125087500D01*
X131000029Y-125087939D01*
X131003494Y-125088353D01*
X131036855Y-125092342D01*
X131102348Y-125087657D01*
X131106770Y-125087500D01*
X145285758Y-125087500D01*
X145306322Y-125089216D01*
X145309546Y-125089759D01*
X145402376Y-125087549D01*
X145404439Y-125087500D01*
X145445002Y-125087500D01*
X145445011Y-125087500D01*
X145445020Y-125087499D01*
X145445022Y-125087499D01*
X145445723Y-125087431D01*
X145456289Y-125086422D01*
X145460683Y-125086160D01*
X145526339Y-125084598D01*
X145552068Y-125079000D01*
X145562573Y-125076716D01*
X145569865Y-125075578D01*
X145575164Y-125075072D01*
X145606792Y-125072052D01*
X145669820Y-125053544D01*
X145674065Y-125052461D01*
X145738237Y-125038502D01*
X145772325Y-125023903D01*
X145779263Y-125021409D01*
X145814862Y-125010957D01*
X145868996Y-124983048D01*
X145873227Y-124980867D01*
X145877234Y-124978979D01*
X145937583Y-124953137D01*
X145968300Y-124932346D01*
X145974650Y-124928579D01*
X145975750Y-124928011D01*
X146007610Y-124911588D01*
X146059233Y-124870989D01*
X146062790Y-124868393D01*
X146069025Y-124864173D01*
X146117170Y-124831589D01*
X146143395Y-124805362D01*
X146148912Y-124800465D01*
X146178069Y-124777538D01*
X146221082Y-124727897D01*
X146224063Y-124724694D01*
X151316940Y-119631819D01*
X151378264Y-119598334D01*
X151404622Y-119595500D01*
X156230445Y-119595500D01*
X156290919Y-119611246D01*
X156309629Y-119621698D01*
X156358555Y-119671578D01*
X156372748Y-119739991D01*
X156347701Y-119805217D01*
X156318592Y-119832687D01*
X156169065Y-119933749D01*
X156001251Y-120094586D01*
X155863035Y-120281467D01*
X155863029Y-120281476D01*
X155821517Y-120363810D01*
X155773759Y-120414809D01*
X155706010Y-120431892D01*
X155639780Y-120409634D01*
X155616287Y-120388260D01*
X155608337Y-120378900D01*
X155608336Y-120378899D01*
X155608335Y-120378898D01*
X155529448Y-120318930D01*
X155461064Y-120266946D01*
X155293167Y-120189268D01*
X155293163Y-120189266D01*
X155112497Y-120149500D01*
X154973887Y-120149500D01*
X154973883Y-120149500D01*
X154836088Y-120164486D01*
X154660776Y-120223557D01*
X154660774Y-120223558D01*
X154502262Y-120318931D01*
X154502261Y-120318932D01*
X154367959Y-120446149D01*
X154264138Y-120599276D01*
X154195669Y-120771122D01*
X154165740Y-120953685D01*
X154175755Y-121138406D01*
X154175755Y-121138411D01*
X154225244Y-121316656D01*
X154225247Y-121316662D01*
X154311898Y-121480102D01*
X154394046Y-121576814D01*
X154431663Y-121621100D01*
X154578936Y-121733054D01*
X154746833Y-121810732D01*
X154746834Y-121810732D01*
X154746836Y-121810733D01*
X154801648Y-121822797D01*
X154927503Y-121850500D01*
X154927506Y-121850500D01*
X155066107Y-121850500D01*
X155066113Y-121850500D01*
X155203910Y-121835514D01*
X155379221Y-121776444D01*
X155537736Y-121681070D01*
X155621465Y-121601756D01*
X155683672Y-121569945D01*
X155753203Y-121576814D01*
X155807983Y-121620184D01*
X155812315Y-121626743D01*
X155853304Y-121693313D01*
X155928170Y-121814903D01*
X155928171Y-121814905D01*
X155928173Y-121814907D01*
X156081741Y-121989395D01*
X156081743Y-121989396D01*
X156081746Y-121989400D01*
X156262583Y-122135415D01*
X156266953Y-122138369D01*
X156265556Y-122140435D01*
X156307190Y-122182908D01*
X156321361Y-122251326D01*
X156296292Y-122316543D01*
X156265597Y-122345053D01*
X156255214Y-122351836D01*
X156255213Y-122351837D01*
X156072261Y-122520257D01*
X155919523Y-122716494D01*
X155919522Y-122716496D01*
X155801173Y-122935187D01*
X155801169Y-122935197D01*
X155792891Y-122959307D01*
X155789610Y-122967092D01*
X155758389Y-123029018D01*
X155758386Y-123029024D01*
X155690322Y-123251272D01*
X155690321Y-123251277D01*
X155660798Y-123481837D01*
X155670662Y-123714066D01*
X155670662Y-123714067D01*
X155719634Y-123941296D01*
X155799165Y-124139217D01*
X155800273Y-124142194D01*
X155801172Y-124144810D01*
X155801174Y-124144814D01*
X155802981Y-124148933D01*
X155803796Y-124150743D01*
X155806300Y-124156974D01*
X155806302Y-124156979D01*
X155817401Y-124175004D01*
X155819133Y-124178002D01*
X155919519Y-124363499D01*
X155919523Y-124363505D01*
X156062724Y-124547490D01*
X156088366Y-124612484D01*
X156074799Y-124681024D01*
X156026331Y-124731349D01*
X156008204Y-124739834D01*
X155922911Y-124771646D01*
X155922906Y-124771649D01*
X155807812Y-124857809D01*
X155807809Y-124857812D01*
X155721649Y-124972906D01*
X155721645Y-124972913D01*
X155671403Y-125107620D01*
X155671401Y-125107627D01*
X155665000Y-125167155D01*
X155665000Y-125830000D01*
X156556231Y-125830000D01*
X156623270Y-125849685D01*
X156669025Y-125902489D01*
X156678969Y-125971647D01*
X156675208Y-125988936D01*
X156670000Y-126006672D01*
X156670000Y-126153327D01*
X156675208Y-126171064D01*
X156675208Y-126240934D01*
X156637434Y-126299712D01*
X156573879Y-126328738D01*
X156556231Y-126330000D01*
X155665000Y-126330000D01*
X155665000Y-126992844D01*
X155671401Y-127052372D01*
X155671403Y-127052379D01*
X155721645Y-127187086D01*
X155721649Y-127187093D01*
X155807809Y-127302187D01*
X155807812Y-127302190D01*
X155922906Y-127388350D01*
X155922913Y-127388354D01*
X156057620Y-127438596D01*
X156057627Y-127438598D01*
X156117155Y-127444999D01*
X156117172Y-127445000D01*
X156930000Y-127445000D01*
X156930000Y-126702403D01*
X156949685Y-126635364D01*
X157002489Y-126589609D01*
X157071646Y-126579665D01*
X157143527Y-126590000D01*
X157143530Y-126590000D01*
X157216470Y-126590000D01*
X157216473Y-126590000D01*
X157288353Y-126579665D01*
X157357512Y-126589609D01*
X157410316Y-126635364D01*
X157430000Y-126702403D01*
X157430000Y-127445000D01*
X158242828Y-127445000D01*
X158242844Y-127444999D01*
X158302372Y-127438598D01*
X158302379Y-127438596D01*
X158437086Y-127388354D01*
X158437093Y-127388350D01*
X158552187Y-127302190D01*
X158552190Y-127302187D01*
X158638350Y-127187093D01*
X158638354Y-127187086D01*
X158688596Y-127052379D01*
X158688598Y-127052372D01*
X158694999Y-126992844D01*
X158695000Y-126992827D01*
X158695000Y-126330000D01*
X157803769Y-126330000D01*
X157736730Y-126310315D01*
X157690975Y-126257511D01*
X157681031Y-126188353D01*
X157684792Y-126171064D01*
X157690000Y-126153327D01*
X157690000Y-126006672D01*
X157684792Y-125988936D01*
X157684792Y-125919066D01*
X157722566Y-125860288D01*
X157786121Y-125831262D01*
X157803769Y-125830000D01*
X158695000Y-125830000D01*
X158695000Y-125165978D01*
X158714685Y-125098939D01*
X158767489Y-125053184D01*
X158834340Y-125042931D01*
X158845779Y-125044357D01*
X158845779Y-125044356D01*
X158845780Y-125044357D01*
X158939035Y-125040500D01*
X158970066Y-125040500D01*
X158970067Y-125040500D01*
X159000990Y-125037937D01*
X159094237Y-125034081D01*
X159120982Y-125028472D01*
X159128582Y-125027364D01*
X159155821Y-125025108D01*
X159155824Y-125025107D01*
X159155826Y-125025107D01*
X159155829Y-125025106D01*
X159246288Y-125002198D01*
X159254062Y-125000568D01*
X159337614Y-124983049D01*
X159363077Y-124973112D01*
X159370374Y-124970774D01*
X159396881Y-124964063D01*
X159482335Y-124926579D01*
X159569274Y-124892656D01*
X159592761Y-124878659D01*
X159599581Y-124875149D01*
X159624607Y-124864173D01*
X159702720Y-124813139D01*
X159782894Y-124765366D01*
X159803754Y-124747697D01*
X159809894Y-124743117D01*
X159832785Y-124728164D01*
X159901435Y-124664966D01*
X159925126Y-124644902D01*
X159947078Y-124622949D01*
X160015738Y-124559744D01*
X160032530Y-124538167D01*
X160037604Y-124532422D01*
X161012426Y-123557599D01*
X161018163Y-123552534D01*
X161039744Y-123535738D01*
X161102960Y-123467066D01*
X161124901Y-123445126D01*
X161124900Y-123445128D01*
X161144955Y-123421447D01*
X161144955Y-123421446D01*
X161208164Y-123352785D01*
X161223117Y-123329894D01*
X161227697Y-123323754D01*
X161245366Y-123302894D01*
X161293134Y-123222727D01*
X161344173Y-123144607D01*
X161355148Y-123119584D01*
X161358668Y-123112747D01*
X161372655Y-123089274D01*
X161387758Y-123050567D01*
X161406574Y-123002348D01*
X161425453Y-122959307D01*
X161444063Y-122916881D01*
X161450774Y-122890374D01*
X161453112Y-122883077D01*
X161463049Y-122857614D01*
X161482196Y-122766297D01*
X161505108Y-122675821D01*
X161507364Y-122648583D01*
X161508471Y-122640980D01*
X161514080Y-122614237D01*
X161517936Y-122521005D01*
X161520500Y-122490067D01*
X161520500Y-122459026D01*
X161524357Y-122365779D01*
X161520975Y-122338653D01*
X161520500Y-122330981D01*
X161520500Y-110775034D01*
X161524357Y-110681778D01*
X161520976Y-110654655D01*
X161520500Y-110646980D01*
X161520500Y-97567035D01*
X161524357Y-97473779D01*
X161520976Y-97446656D01*
X161520500Y-97438981D01*
X161520500Y-85375026D01*
X161524357Y-85281779D01*
X161520976Y-85254656D01*
X161520500Y-85246981D01*
X161520500Y-73641018D01*
X161520977Y-73633342D01*
X161522276Y-73622914D01*
X161524357Y-73606221D01*
X161520500Y-73512973D01*
X161520500Y-73481933D01*
X161517936Y-73450994D01*
X161514080Y-73357763D01*
X161508471Y-73331018D01*
X161507364Y-73323415D01*
X161505108Y-73296179D01*
X161482196Y-73205702D01*
X161463049Y-73114386D01*
X161453116Y-73088932D01*
X161450771Y-73081609D01*
X161450340Y-73079908D01*
X161444063Y-73055119D01*
X161406579Y-72969664D01*
X161372656Y-72882726D01*
X161372653Y-72882720D01*
X161366656Y-72872657D01*
X161358663Y-72859243D01*
X161355147Y-72852412D01*
X161344173Y-72827393D01*
X161344172Y-72827392D01*
X161293139Y-72749278D01*
X161245365Y-72669105D01*
X161227704Y-72648253D01*
X161223106Y-72642086D01*
X161208166Y-72619218D01*
X161208165Y-72619217D01*
X161208164Y-72619215D01*
X161144966Y-72550564D01*
X161124902Y-72526874D01*
X161124894Y-72526865D01*
X161102950Y-72504921D01*
X161039747Y-72436265D01*
X161039746Y-72436264D01*
X161039744Y-72436262D01*
X161018174Y-72419473D01*
X161012412Y-72414384D01*
X160249615Y-71651587D01*
X160244524Y-71645822D01*
X160227739Y-71624257D01*
X160159078Y-71561049D01*
X160137129Y-71539100D01*
X160113435Y-71519033D01*
X160044786Y-71455837D01*
X160044785Y-71455836D01*
X160021904Y-71440887D01*
X160015747Y-71436296D01*
X159994894Y-71418634D01*
X159914720Y-71370860D01*
X159836607Y-71319827D01*
X159836604Y-71319825D01*
X159811588Y-71308852D01*
X159804750Y-71305332D01*
X159781275Y-71291344D01*
X159694335Y-71257420D01*
X159608881Y-71219937D01*
X159608877Y-71219936D01*
X159608875Y-71219935D01*
X159582387Y-71213227D01*
X159575067Y-71210882D01*
X159558593Y-71204454D01*
X159549614Y-71200951D01*
X159458288Y-71181801D01*
X159458288Y-71181800D01*
X159367819Y-71158891D01*
X159340590Y-71156635D01*
X159332983Y-71155526D01*
X159312986Y-71151334D01*
X159306237Y-71149919D01*
X159306235Y-71149918D01*
X159212990Y-71146062D01*
X159182067Y-71143500D01*
X159182064Y-71143500D01*
X159151035Y-71143500D01*
X159057780Y-71139643D01*
X159057779Y-71139643D01*
X159030652Y-71143024D01*
X159022981Y-71143500D01*
X158505518Y-71143500D01*
X158438479Y-71123815D01*
X158392724Y-71071011D01*
X158382780Y-71001853D01*
X158405822Y-70945766D01*
X158425687Y-70918907D01*
X158496967Y-70822530D01*
X158601613Y-70614976D01*
X158669678Y-70392723D01*
X158699202Y-70162163D01*
X158689337Y-69929930D01*
X158640366Y-69702705D01*
X158553699Y-69487024D01*
X158434398Y-69293268D01*
X158431829Y-69289096D01*
X158431828Y-69289095D01*
X158431827Y-69289093D01*
X158278259Y-69114605D01*
X158278256Y-69114602D01*
X158278253Y-69114599D01*
X158097416Y-68968584D01*
X158097410Y-68968580D01*
X158050370Y-68942302D01*
X158001444Y-68892422D01*
X157987251Y-68824009D01*
X158012298Y-68758784D01*
X158041407Y-68731313D01*
X158088594Y-68699420D01*
X158190936Y-68630249D01*
X158358749Y-68469413D01*
X158496967Y-68282530D01*
X158601613Y-68074976D01*
X158669678Y-67852723D01*
X158699202Y-67622163D01*
X158689337Y-67389930D01*
X158640366Y-67162705D01*
X158553699Y-66947024D01*
X158431827Y-66749093D01*
X158278259Y-66574605D01*
X158278256Y-66574602D01*
X158278253Y-66574599D01*
X158097416Y-66428584D01*
X158097410Y-66428579D01*
X157894488Y-66315220D01*
X157675323Y-66237784D01*
X157675313Y-66237781D01*
X157446230Y-66198500D01*
X157446221Y-66198500D01*
X156971993Y-66198500D01*
X156971987Y-66198500D01*
X156798399Y-66213273D01*
X156573453Y-66271845D01*
X156573449Y-66271846D01*
X156361654Y-66367583D01*
X156361642Y-66367590D01*
X156169065Y-66497749D01*
X156001251Y-66658586D01*
X155863035Y-66845467D01*
X155863032Y-66845471D01*
X155758387Y-67053022D01*
X155690321Y-67275278D01*
X155660798Y-67505837D01*
X155670662Y-67738066D01*
X155670662Y-67738067D01*
X155719634Y-67965296D01*
X155795395Y-68153836D01*
X155806301Y-68180976D01*
X155862715Y-68272598D01*
X155928170Y-68378903D01*
X155928171Y-68378905D01*
X155928173Y-68378907D01*
X156081741Y-68553395D01*
X156081743Y-68553396D01*
X156081746Y-68553400D01*
X156262583Y-68699415D01*
X156262593Y-68699422D01*
X156309630Y-68725699D01*
X156358556Y-68775578D01*
X156372748Y-68843992D01*
X156347700Y-68909217D01*
X156318592Y-68936687D01*
X156169065Y-69037749D01*
X156001251Y-69198586D01*
X155863035Y-69385467D01*
X155863029Y-69385476D01*
X155821517Y-69467810D01*
X155773759Y-69518809D01*
X155706010Y-69535892D01*
X155639780Y-69513634D01*
X155616287Y-69492260D01*
X155608337Y-69482900D01*
X155608336Y-69482899D01*
X155608335Y-69482898D01*
X155529448Y-69422930D01*
X155461064Y-69370946D01*
X155293167Y-69293268D01*
X155293163Y-69293266D01*
X155112497Y-69253500D01*
X154973887Y-69253500D01*
X154973883Y-69253500D01*
X154836088Y-69268486D01*
X154660776Y-69327557D01*
X154660774Y-69327558D01*
X154502262Y-69422931D01*
X154502261Y-69422932D01*
X154367959Y-69550149D01*
X154264138Y-69703276D01*
X154195669Y-69875122D01*
X154165740Y-70057685D01*
X154175755Y-70242406D01*
X154175755Y-70242411D01*
X154225244Y-70420656D01*
X154225247Y-70420662D01*
X154311898Y-70584102D01*
X154394046Y-70680814D01*
X154431663Y-70725100D01*
X154578936Y-70837054D01*
X154730037Y-70906961D01*
X154782614Y-70952975D01*
X154801968Y-71020111D01*
X154781954Y-71087053D01*
X154728925Y-71132547D01*
X154677970Y-71143500D01*
X139864890Y-71143500D01*
X139797851Y-71123815D01*
X139777209Y-71107181D01*
X137426819Y-68756790D01*
X137393334Y-68695467D01*
X137390500Y-68669109D01*
X137390500Y-66317844D01*
X138970000Y-66317844D01*
X138976401Y-66377372D01*
X138976403Y-66377379D01*
X139026645Y-66512086D01*
X139026649Y-66512093D01*
X139112809Y-66627187D01*
X139112812Y-66627190D01*
X139227906Y-66713350D01*
X139227913Y-66713354D01*
X139362620Y-66763596D01*
X139362627Y-66763598D01*
X139422155Y-66769999D01*
X139422172Y-66770000D01*
X140720000Y-66770000D01*
X140720000Y-65648625D01*
X140739685Y-65581586D01*
X140792489Y-65535831D01*
X140861647Y-65525887D01*
X140872589Y-65527966D01*
X140881169Y-65530000D01*
X140881170Y-65530000D01*
X141014260Y-65530000D01*
X141014267Y-65530000D01*
X141081605Y-65522129D01*
X141150475Y-65533897D01*
X141202051Y-65581031D01*
X141220000Y-65645290D01*
X141220000Y-66770000D01*
X142517828Y-66770000D01*
X142517844Y-66769999D01*
X142577372Y-66763598D01*
X142577379Y-66763596D01*
X142712086Y-66713354D01*
X142712093Y-66713350D01*
X142827187Y-66627190D01*
X142827190Y-66627187D01*
X142913350Y-66512093D01*
X142913354Y-66512086D01*
X142963596Y-66377379D01*
X142963598Y-66377372D01*
X142969999Y-66317844D01*
X142970000Y-66317827D01*
X142970000Y-65020000D01*
X141848159Y-65020000D01*
X141781120Y-65000315D01*
X141735365Y-64947511D01*
X141724369Y-64888790D01*
X141733879Y-64725509D01*
X141733878Y-64725506D01*
X141723304Y-64665531D01*
X141731048Y-64596092D01*
X141775105Y-64541863D01*
X141841487Y-64520062D01*
X141845420Y-64520000D01*
X142970000Y-64520000D01*
X142970000Y-63222172D01*
X142969999Y-63222155D01*
X142963598Y-63162627D01*
X142963596Y-63162620D01*
X142913354Y-63027913D01*
X142913350Y-63027906D01*
X142827190Y-62912812D01*
X142827187Y-62912809D01*
X142712093Y-62826649D01*
X142712086Y-62826645D01*
X142577379Y-62776403D01*
X142577372Y-62776401D01*
X142517844Y-62770000D01*
X141220000Y-62770000D01*
X141220000Y-63891374D01*
X141200315Y-63958413D01*
X141147511Y-64004168D01*
X141078353Y-64014112D01*
X141067407Y-64012032D01*
X141058832Y-64010000D01*
X141058831Y-64010000D01*
X140925733Y-64010000D01*
X140858393Y-64017870D01*
X140789523Y-64006102D01*
X140737948Y-63958966D01*
X140720000Y-63894709D01*
X140720000Y-62770000D01*
X139422155Y-62770000D01*
X139362627Y-62776401D01*
X139362620Y-62776403D01*
X139227913Y-62826645D01*
X139227906Y-62826649D01*
X139112812Y-62912809D01*
X139112809Y-62912812D01*
X139026649Y-63027906D01*
X139026645Y-63027913D01*
X138976403Y-63162620D01*
X138976401Y-63162627D01*
X138970000Y-63222155D01*
X138970000Y-64520000D01*
X140091841Y-64520000D01*
X140158880Y-64539685D01*
X140204635Y-64592489D01*
X140215631Y-64651210D01*
X140206120Y-64814489D01*
X140206121Y-64814491D01*
X140216696Y-64874469D01*
X140208952Y-64943908D01*
X140164895Y-64998137D01*
X140098513Y-65019938D01*
X140094580Y-65020000D01*
X138970000Y-65020000D01*
X138970000Y-66317844D01*
X137390500Y-66317844D01*
X137390500Y-66145023D01*
X137410185Y-66077984D01*
X137415233Y-66070713D01*
X137485113Y-65977363D01*
X137577226Y-65854315D01*
X137714367Y-65603161D01*
X137814369Y-65335046D01*
X137875196Y-65055428D01*
X137895610Y-64770000D01*
X137875196Y-64484572D01*
X137871358Y-64466930D01*
X137814371Y-64204962D01*
X137814370Y-64204960D01*
X137814369Y-64204954D01*
X137714367Y-63936839D01*
X137694524Y-63900500D01*
X137577229Y-63685690D01*
X137577224Y-63685682D01*
X137405745Y-63456612D01*
X137405729Y-63456594D01*
X137203405Y-63254270D01*
X137203387Y-63254254D01*
X136974317Y-63082775D01*
X136974309Y-63082770D01*
X136723166Y-62945635D01*
X136723167Y-62945635D01*
X136615915Y-62905632D01*
X136455046Y-62845631D01*
X136455043Y-62845630D01*
X136455037Y-62845628D01*
X136175433Y-62784804D01*
X135890001Y-62764390D01*
X135889999Y-62764390D01*
X135604566Y-62784804D01*
X135324962Y-62845628D01*
X135056833Y-62945635D01*
X134805690Y-63082770D01*
X134805682Y-63082775D01*
X134576612Y-63254254D01*
X134576594Y-63254270D01*
X134374270Y-63456594D01*
X134374254Y-63456612D01*
X134202775Y-63685682D01*
X134202770Y-63685690D01*
X134065635Y-63936833D01*
X133965628Y-64204962D01*
X133904804Y-64484566D01*
X133884390Y-64769998D01*
X133884390Y-64770001D01*
X133904804Y-65055433D01*
X133965628Y-65335037D01*
X133965630Y-65335043D01*
X133965631Y-65335046D01*
X134035410Y-65522129D01*
X134065635Y-65603166D01*
X134202770Y-65854309D01*
X134202775Y-65854317D01*
X134364767Y-66070713D01*
X134389184Y-66136177D01*
X134389500Y-66145023D01*
X134389500Y-67717500D01*
X134369815Y-67784539D01*
X134317011Y-67830294D01*
X134265500Y-67841500D01*
X125827019Y-67841500D01*
X125819347Y-67841024D01*
X125792221Y-67837643D01*
X125792219Y-67837643D01*
X125698965Y-67841500D01*
X125667933Y-67841500D01*
X125637008Y-67844062D01*
X125637009Y-67844062D01*
X125543763Y-67847919D01*
X125543750Y-67847920D01*
X125517016Y-67853526D01*
X125509408Y-67854635D01*
X125482185Y-67856890D01*
X125482175Y-67856892D01*
X125391711Y-67879801D01*
X125300395Y-67898948D01*
X125300379Y-67898953D01*
X125274935Y-67908881D01*
X125267616Y-67911226D01*
X125241123Y-67917935D01*
X125155663Y-67955420D01*
X125068726Y-67989343D01*
X125068717Y-67989348D01*
X125045244Y-68003335D01*
X125038409Y-68006853D01*
X125013397Y-68017824D01*
X125013390Y-68017828D01*
X124935278Y-68068860D01*
X124855104Y-68116635D01*
X124834250Y-68134297D01*
X124828087Y-68138892D01*
X124805216Y-68153834D01*
X124775737Y-68180972D01*
X124736564Y-68217033D01*
X124717376Y-68233284D01*
X124712869Y-68237102D01*
X124690922Y-68259049D01*
X124622262Y-68322256D01*
X124605471Y-68343827D01*
X124600382Y-68349588D01*
X119615088Y-73334882D01*
X119609327Y-73339971D01*
X119587756Y-73356762D01*
X119524549Y-73425422D01*
X119502602Y-73447369D01*
X119502598Y-73447374D01*
X119482533Y-73471064D01*
X119472526Y-73481935D01*
X119419334Y-73539716D01*
X119404392Y-73562587D01*
X119399797Y-73568750D01*
X119382135Y-73589604D01*
X119334360Y-73669778D01*
X119283328Y-73747890D01*
X119283324Y-73747897D01*
X119272353Y-73772909D01*
X119268835Y-73779744D01*
X119254848Y-73803217D01*
X119254843Y-73803226D01*
X119220920Y-73890163D01*
X119183435Y-73975623D01*
X119176726Y-74002116D01*
X119174381Y-74009435D01*
X119164453Y-74034879D01*
X119164448Y-74034895D01*
X119145301Y-74126211D01*
X119122392Y-74216675D01*
X119122390Y-74216685D01*
X119120135Y-74243908D01*
X119119026Y-74251516D01*
X119113420Y-74278250D01*
X119113419Y-74278263D01*
X119109562Y-74371509D01*
X119107000Y-74402436D01*
X119107000Y-74433464D01*
X119103142Y-74526719D01*
X119103142Y-74526720D01*
X119106523Y-74553842D01*
X119107000Y-74561518D01*
X119107000Y-77532065D01*
X119122390Y-77717813D01*
X119122392Y-77717824D01*
X119183436Y-77958881D01*
X119283326Y-78186606D01*
X119419333Y-78394782D01*
X119419336Y-78394785D01*
X119587756Y-78577738D01*
X119783991Y-78730474D01*
X120002690Y-78848828D01*
X120237886Y-78929571D01*
X120483165Y-78970500D01*
X120731835Y-78970500D01*
X120977114Y-78929571D01*
X121212310Y-78848828D01*
X121431009Y-78730474D01*
X121627244Y-78577738D01*
X121795664Y-78394785D01*
X121931673Y-78186607D01*
X122031563Y-77958881D01*
X122092608Y-77717821D01*
X122108000Y-77532067D01*
X122108000Y-75137389D01*
X122127685Y-75070350D01*
X122144314Y-75049713D01*
X126315209Y-70878819D01*
X126376532Y-70845334D01*
X126402890Y-70842500D01*
X135217110Y-70842500D01*
X135284149Y-70862185D01*
X135304791Y-70878819D01*
X138062384Y-73636412D01*
X138067473Y-73642174D01*
X138084262Y-73663744D01*
X138084264Y-73663746D01*
X138084265Y-73663747D01*
X138152921Y-73726950D01*
X138173862Y-73747890D01*
X138174874Y-73748902D01*
X138198564Y-73768966D01*
X138267215Y-73832164D01*
X138267217Y-73832165D01*
X138267218Y-73832166D01*
X138290086Y-73847106D01*
X138296250Y-73851702D01*
X138317106Y-73869366D01*
X138349504Y-73888671D01*
X138397278Y-73917139D01*
X138448312Y-73950480D01*
X138475393Y-73968173D01*
X138500412Y-73979147D01*
X138507243Y-73982663D01*
X138520657Y-73990656D01*
X138530720Y-73996653D01*
X138530730Y-73996658D01*
X138617663Y-74030579D01*
X138627503Y-74034895D01*
X138703119Y-74068063D01*
X138727908Y-74074340D01*
X138729609Y-74074771D01*
X138736932Y-74077116D01*
X138762386Y-74087049D01*
X138853702Y-74106196D01*
X138944179Y-74129108D01*
X138971415Y-74131364D01*
X138979018Y-74132471D01*
X139005763Y-74138080D01*
X139098994Y-74141936D01*
X139129933Y-74144500D01*
X139129935Y-74144500D01*
X139160974Y-74144500D01*
X139254221Y-74148357D01*
X139270914Y-74146276D01*
X139281342Y-74144977D01*
X139289018Y-74144500D01*
X155541000Y-74144500D01*
X155608039Y-74164185D01*
X155653794Y-74216989D01*
X155665000Y-74268500D01*
X155665000Y-74934000D01*
X156556231Y-74934000D01*
X156623270Y-74953685D01*
X156669025Y-75006489D01*
X156678969Y-75075647D01*
X156675208Y-75092936D01*
X156670000Y-75110672D01*
X156670000Y-75257327D01*
X156675208Y-75275064D01*
X156675208Y-75344934D01*
X156637434Y-75403712D01*
X156573879Y-75432738D01*
X156556231Y-75434000D01*
X155665000Y-75434000D01*
X155665000Y-76096844D01*
X155671401Y-76156372D01*
X155671403Y-76156379D01*
X155721645Y-76291086D01*
X155721649Y-76291093D01*
X155807809Y-76406187D01*
X155807812Y-76406190D01*
X155922906Y-76492350D01*
X155922913Y-76492354D01*
X156057620Y-76542596D01*
X156057627Y-76542598D01*
X156117155Y-76548999D01*
X156117172Y-76549000D01*
X156930000Y-76549000D01*
X156930000Y-75806403D01*
X156949685Y-75739364D01*
X157002489Y-75693609D01*
X157071646Y-75683665D01*
X157143527Y-75694000D01*
X157143530Y-75694000D01*
X157216470Y-75694000D01*
X157216473Y-75694000D01*
X157288353Y-75683665D01*
X157357512Y-75693609D01*
X157410316Y-75739364D01*
X157430000Y-75806403D01*
X157430000Y-76549000D01*
X158242828Y-76549000D01*
X158242844Y-76548999D01*
X158302372Y-76542598D01*
X158302376Y-76542597D01*
X158352166Y-76524027D01*
X158421858Y-76519043D01*
X158483181Y-76552528D01*
X158516666Y-76613851D01*
X158519500Y-76640209D01*
X158519500Y-79464129D01*
X158499815Y-79531168D01*
X158447011Y-79576923D01*
X158377853Y-79586867D01*
X158314297Y-79557842D01*
X158302418Y-79546054D01*
X158278259Y-79518605D01*
X158278254Y-79518600D01*
X158097416Y-79372584D01*
X158097410Y-79372579D01*
X157894488Y-79259220D01*
X157675323Y-79181784D01*
X157675313Y-79181781D01*
X157446230Y-79142500D01*
X157446221Y-79142500D01*
X156971993Y-79142500D01*
X156971987Y-79142500D01*
X156798399Y-79157273D01*
X156573453Y-79215845D01*
X156573449Y-79215846D01*
X156361654Y-79311583D01*
X156361642Y-79311590D01*
X156169065Y-79441749D01*
X156001251Y-79602586D01*
X155863035Y-79789467D01*
X155863032Y-79789471D01*
X155758387Y-79997022D01*
X155690321Y-80219278D01*
X155660798Y-80449837D01*
X155670662Y-80682066D01*
X155670662Y-80682067D01*
X155719634Y-80909296D01*
X155806299Y-81124972D01*
X155928170Y-81322903D01*
X155928171Y-81322905D01*
X155928173Y-81322907D01*
X156081741Y-81497395D01*
X156081743Y-81497396D01*
X156081746Y-81497400D01*
X156262583Y-81643415D01*
X156262593Y-81643422D01*
X156309630Y-81669699D01*
X156358556Y-81719578D01*
X156372748Y-81787992D01*
X156347700Y-81853217D01*
X156318592Y-81880687D01*
X156169065Y-81981749D01*
X156001251Y-82142586D01*
X155863035Y-82329467D01*
X155863029Y-82329476D01*
X155821517Y-82411810D01*
X155773759Y-82462809D01*
X155706010Y-82479892D01*
X155639780Y-82457634D01*
X155616287Y-82436260D01*
X155608337Y-82426900D01*
X155608336Y-82426899D01*
X155608335Y-82426898D01*
X155529448Y-82366930D01*
X155461064Y-82314946D01*
X155293167Y-82237268D01*
X155293163Y-82237266D01*
X155112497Y-82197500D01*
X154973887Y-82197500D01*
X154973883Y-82197500D01*
X154836088Y-82212486D01*
X154660776Y-82271557D01*
X154660774Y-82271558D01*
X154502262Y-82366931D01*
X154502261Y-82366932D01*
X154367959Y-82494149D01*
X154264138Y-82647276D01*
X154195669Y-82819122D01*
X154165740Y-83001685D01*
X154175755Y-83186406D01*
X154175755Y-83186411D01*
X154225244Y-83364656D01*
X154225247Y-83364662D01*
X154311898Y-83528102D01*
X154394046Y-83624814D01*
X154431663Y-83669100D01*
X154578936Y-83781054D01*
X154746833Y-83858732D01*
X154746834Y-83858732D01*
X154746836Y-83858733D01*
X154801648Y-83870797D01*
X154927503Y-83898500D01*
X154927506Y-83898500D01*
X155066107Y-83898500D01*
X155066113Y-83898500D01*
X155203910Y-83883514D01*
X155379221Y-83824444D01*
X155537736Y-83729070D01*
X155621465Y-83649756D01*
X155683672Y-83617945D01*
X155753203Y-83624814D01*
X155807983Y-83668184D01*
X155812315Y-83674743D01*
X155845766Y-83729070D01*
X155928170Y-83862903D01*
X155928171Y-83862905D01*
X155928173Y-83862907D01*
X156081741Y-84037395D01*
X156081743Y-84037396D01*
X156081746Y-84037400D01*
X156262583Y-84183415D01*
X156266953Y-84186369D01*
X156265556Y-84188435D01*
X156307190Y-84230908D01*
X156321361Y-84299326D01*
X156296292Y-84364543D01*
X156265597Y-84393053D01*
X156255214Y-84399836D01*
X156255213Y-84399837D01*
X156072261Y-84568257D01*
X155919523Y-84764494D01*
X155919522Y-84764496D01*
X155801173Y-84983187D01*
X155801169Y-84983197D01*
X155792891Y-85007307D01*
X155789610Y-85015092D01*
X155758389Y-85077018D01*
X155758386Y-85077024D01*
X155690322Y-85299272D01*
X155690321Y-85299277D01*
X155660798Y-85529837D01*
X155670662Y-85762066D01*
X155670662Y-85762067D01*
X155719634Y-85989296D01*
X155799165Y-86187217D01*
X155800273Y-86190194D01*
X155801172Y-86192810D01*
X155801174Y-86192814D01*
X155802981Y-86196933D01*
X155803796Y-86198743D01*
X155806300Y-86204974D01*
X155806302Y-86204979D01*
X155817401Y-86223004D01*
X155819133Y-86226002D01*
X155919519Y-86411499D01*
X155919523Y-86411505D01*
X156062724Y-86595490D01*
X156088366Y-86660484D01*
X156074799Y-86729024D01*
X156026331Y-86779349D01*
X156008204Y-86787834D01*
X155922911Y-86819646D01*
X155922906Y-86819649D01*
X155807812Y-86905809D01*
X155807809Y-86905812D01*
X155721649Y-87020906D01*
X155721645Y-87020913D01*
X155671403Y-87155620D01*
X155671401Y-87155627D01*
X155665000Y-87215155D01*
X155665000Y-87878000D01*
X156556231Y-87878000D01*
X156623270Y-87897685D01*
X156669025Y-87950489D01*
X156678969Y-88019647D01*
X156675208Y-88036936D01*
X156670000Y-88054672D01*
X156670000Y-88201327D01*
X156675208Y-88219064D01*
X156675208Y-88288934D01*
X156637434Y-88347712D01*
X156573879Y-88376738D01*
X156556231Y-88378000D01*
X155665000Y-88378000D01*
X155665000Y-89040844D01*
X155671401Y-89100372D01*
X155671403Y-89100379D01*
X155721645Y-89235086D01*
X155721649Y-89235093D01*
X155807809Y-89350187D01*
X155807812Y-89350190D01*
X155922906Y-89436350D01*
X155922913Y-89436354D01*
X156057620Y-89486596D01*
X156057627Y-89486598D01*
X156117155Y-89492999D01*
X156117172Y-89493000D01*
X156930000Y-89493000D01*
X156930000Y-88750403D01*
X156949685Y-88683364D01*
X157002489Y-88637609D01*
X157071646Y-88627665D01*
X157143527Y-88638000D01*
X157143530Y-88638000D01*
X157216470Y-88638000D01*
X157216473Y-88638000D01*
X157288353Y-88627665D01*
X157357512Y-88637609D01*
X157410316Y-88683364D01*
X157430000Y-88750403D01*
X157430000Y-89493000D01*
X158242828Y-89493000D01*
X158242844Y-89492999D01*
X158302372Y-89486598D01*
X158302376Y-89486597D01*
X158352166Y-89468027D01*
X158421858Y-89463043D01*
X158483181Y-89496528D01*
X158516666Y-89557851D01*
X158519500Y-89584209D01*
X158519500Y-92016129D01*
X158499815Y-92083168D01*
X158447011Y-92128923D01*
X158377853Y-92138867D01*
X158314297Y-92109842D01*
X158302418Y-92098054D01*
X158278259Y-92070605D01*
X158278254Y-92070600D01*
X158097416Y-91924584D01*
X158097410Y-91924579D01*
X157894488Y-91811220D01*
X157675323Y-91733784D01*
X157675313Y-91733781D01*
X157446230Y-91694500D01*
X157446221Y-91694500D01*
X156971993Y-91694500D01*
X156971987Y-91694500D01*
X156798399Y-91709273D01*
X156573453Y-91767845D01*
X156573449Y-91767846D01*
X156361654Y-91863583D01*
X156361642Y-91863590D01*
X156169065Y-91993749D01*
X156001251Y-92154586D01*
X155863035Y-92341467D01*
X155863032Y-92341471D01*
X155758387Y-92549022D01*
X155690321Y-92771278D01*
X155660798Y-93001837D01*
X155670662Y-93234066D01*
X155670662Y-93234067D01*
X155719634Y-93461296D01*
X155806299Y-93676972D01*
X155806301Y-93676976D01*
X155839727Y-93731262D01*
X155928170Y-93874903D01*
X155928171Y-93874905D01*
X155928173Y-93874907D01*
X156081741Y-94049395D01*
X156081743Y-94049396D01*
X156081746Y-94049400D01*
X156262583Y-94195415D01*
X156262593Y-94195422D01*
X156309630Y-94221699D01*
X156358556Y-94271578D01*
X156372748Y-94339992D01*
X156347700Y-94405217D01*
X156318592Y-94432687D01*
X156169065Y-94533749D01*
X156001251Y-94694586D01*
X155863035Y-94881467D01*
X155863029Y-94881476D01*
X155821517Y-94963810D01*
X155773759Y-95014809D01*
X155706010Y-95031892D01*
X155639780Y-95009634D01*
X155616287Y-94988260D01*
X155608337Y-94978900D01*
X155608336Y-94978899D01*
X155608335Y-94978898D01*
X155529448Y-94918930D01*
X155461064Y-94866946D01*
X155293167Y-94789268D01*
X155293163Y-94789266D01*
X155112497Y-94749500D01*
X154973887Y-94749500D01*
X154973883Y-94749500D01*
X154836088Y-94764486D01*
X154660776Y-94823557D01*
X154660774Y-94823558D01*
X154502262Y-94918931D01*
X154502261Y-94918932D01*
X154367959Y-95046149D01*
X154264138Y-95199276D01*
X154195669Y-95371122D01*
X154165740Y-95553685D01*
X154175755Y-95738406D01*
X154175755Y-95738411D01*
X154225244Y-95916656D01*
X154225247Y-95916662D01*
X154311898Y-96080102D01*
X154394046Y-96176814D01*
X154431663Y-96221100D01*
X154578936Y-96333054D01*
X154746833Y-96410732D01*
X154746834Y-96410732D01*
X154746836Y-96410733D01*
X154801648Y-96422797D01*
X154927503Y-96450500D01*
X154927506Y-96450500D01*
X155066107Y-96450500D01*
X155066113Y-96450500D01*
X155203910Y-96435514D01*
X155379221Y-96376444D01*
X155537736Y-96281070D01*
X155621465Y-96201756D01*
X155683672Y-96169945D01*
X155753203Y-96176814D01*
X155807983Y-96220184D01*
X155812315Y-96226743D01*
X155853301Y-96293308D01*
X155928170Y-96414903D01*
X155928171Y-96414905D01*
X155928173Y-96414907D01*
X156081741Y-96589395D01*
X156081743Y-96589396D01*
X156081746Y-96589400D01*
X156262583Y-96735415D01*
X156266953Y-96738369D01*
X156265556Y-96740435D01*
X156307190Y-96782908D01*
X156321361Y-96851326D01*
X156296292Y-96916543D01*
X156265597Y-96945053D01*
X156255214Y-96951836D01*
X156255213Y-96951837D01*
X156072261Y-97120257D01*
X155919523Y-97316494D01*
X155919522Y-97316496D01*
X155801173Y-97535187D01*
X155801169Y-97535197D01*
X155792891Y-97559307D01*
X155789610Y-97567092D01*
X155758389Y-97629018D01*
X155758386Y-97629024D01*
X155690322Y-97851272D01*
X155690321Y-97851277D01*
X155660798Y-98081837D01*
X155670662Y-98314066D01*
X155670662Y-98314067D01*
X155719634Y-98541296D01*
X155799165Y-98739217D01*
X155800273Y-98742194D01*
X155801172Y-98744810D01*
X155801174Y-98744814D01*
X155802981Y-98748933D01*
X155803796Y-98750743D01*
X155806300Y-98756974D01*
X155806302Y-98756979D01*
X155817401Y-98775004D01*
X155819133Y-98778002D01*
X155919519Y-98963499D01*
X155919523Y-98963505D01*
X156062724Y-99147490D01*
X156088366Y-99212484D01*
X156074799Y-99281024D01*
X156026331Y-99331349D01*
X156008204Y-99339834D01*
X155922911Y-99371646D01*
X155922906Y-99371649D01*
X155807812Y-99457809D01*
X155807809Y-99457812D01*
X155721649Y-99572906D01*
X155721645Y-99572913D01*
X155671403Y-99707620D01*
X155671401Y-99707627D01*
X155665000Y-99767155D01*
X155665000Y-100430000D01*
X156556231Y-100430000D01*
X156623270Y-100449685D01*
X156669025Y-100502489D01*
X156678969Y-100571647D01*
X156675208Y-100588936D01*
X156670000Y-100606672D01*
X156670000Y-100753327D01*
X156675208Y-100771064D01*
X156675208Y-100840934D01*
X156637434Y-100899712D01*
X156573879Y-100928738D01*
X156556231Y-100930000D01*
X155665000Y-100930000D01*
X155665000Y-101592844D01*
X155671401Y-101652372D01*
X155671403Y-101652379D01*
X155721645Y-101787086D01*
X155721649Y-101787093D01*
X155807809Y-101902187D01*
X155807812Y-101902190D01*
X155922906Y-101988350D01*
X155922913Y-101988354D01*
X156057620Y-102038596D01*
X156057627Y-102038598D01*
X156117155Y-102044999D01*
X156117172Y-102045000D01*
X156930000Y-102045000D01*
X156930000Y-101302403D01*
X156949685Y-101235364D01*
X157002489Y-101189609D01*
X157071646Y-101179665D01*
X157143527Y-101190000D01*
X157143530Y-101190000D01*
X157216470Y-101190000D01*
X157216473Y-101190000D01*
X157288353Y-101179665D01*
X157357512Y-101189609D01*
X157410316Y-101235364D01*
X157430000Y-101302403D01*
X157430000Y-102045000D01*
X158242828Y-102045000D01*
X158242844Y-102044999D01*
X158302372Y-102038598D01*
X158302383Y-102038595D01*
X158352165Y-102020028D01*
X158421856Y-102015043D01*
X158483180Y-102048527D01*
X158516665Y-102109850D01*
X158519499Y-102136209D01*
X158519500Y-104716129D01*
X158499815Y-104783168D01*
X158447012Y-104828923D01*
X158377853Y-104838867D01*
X158314297Y-104809842D01*
X158302418Y-104798054D01*
X158278259Y-104770605D01*
X158278254Y-104770600D01*
X158097416Y-104624584D01*
X158097410Y-104624579D01*
X157894488Y-104511220D01*
X157675323Y-104433784D01*
X157675313Y-104433781D01*
X157446230Y-104394500D01*
X157446221Y-104394500D01*
X156971993Y-104394500D01*
X156971987Y-104394500D01*
X156798399Y-104409273D01*
X156573453Y-104467845D01*
X156573449Y-104467846D01*
X156361654Y-104563583D01*
X156361642Y-104563590D01*
X156169065Y-104693749D01*
X156001251Y-104854586D01*
X155863035Y-105041467D01*
X155863032Y-105041471D01*
X155758387Y-105249022D01*
X155690321Y-105471278D01*
X155660798Y-105701837D01*
X155670662Y-105934066D01*
X155670662Y-105934067D01*
X155719634Y-106161296D01*
X155806299Y-106376972D01*
X155928170Y-106574903D01*
X155928171Y-106574905D01*
X155928173Y-106574907D01*
X156081741Y-106749395D01*
X156081743Y-106749396D01*
X156081746Y-106749400D01*
X156262583Y-106895415D01*
X156262593Y-106895422D01*
X156309630Y-106921699D01*
X156358556Y-106971578D01*
X156372748Y-107039992D01*
X156347700Y-107105217D01*
X156318592Y-107132687D01*
X156169065Y-107233749D01*
X156001251Y-107394586D01*
X155863035Y-107581467D01*
X155863029Y-107581476D01*
X155821517Y-107663810D01*
X155773759Y-107714809D01*
X155706010Y-107731892D01*
X155639780Y-107709634D01*
X155616287Y-107688260D01*
X155608337Y-107678900D01*
X155608336Y-107678899D01*
X155608335Y-107678898D01*
X155529448Y-107618930D01*
X155461064Y-107566946D01*
X155293167Y-107489268D01*
X155293163Y-107489266D01*
X155112497Y-107449500D01*
X154973887Y-107449500D01*
X154973883Y-107449500D01*
X154836088Y-107464486D01*
X154660776Y-107523557D01*
X154660774Y-107523558D01*
X154502262Y-107618931D01*
X154502261Y-107618932D01*
X154367959Y-107746149D01*
X154264138Y-107899276D01*
X154195669Y-108071122D01*
X154165740Y-108253685D01*
X154175755Y-108438406D01*
X154175755Y-108438411D01*
X154225244Y-108616656D01*
X154225247Y-108616662D01*
X154311898Y-108780102D01*
X154394046Y-108876814D01*
X154431663Y-108921100D01*
X154578936Y-109033054D01*
X154746833Y-109110732D01*
X154746834Y-109110732D01*
X154746836Y-109110733D01*
X154801648Y-109122797D01*
X154927503Y-109150500D01*
X154927506Y-109150500D01*
X155066107Y-109150500D01*
X155066113Y-109150500D01*
X155203910Y-109135514D01*
X155379221Y-109076444D01*
X155537736Y-108981070D01*
X155621465Y-108901756D01*
X155683672Y-108869945D01*
X155753203Y-108876814D01*
X155807983Y-108920184D01*
X155812315Y-108926743D01*
X155853301Y-108993308D01*
X155928170Y-109114903D01*
X155928171Y-109114905D01*
X155928173Y-109114907D01*
X156081741Y-109289395D01*
X156081743Y-109289396D01*
X156081746Y-109289400D01*
X156262583Y-109435415D01*
X156266953Y-109438369D01*
X156265556Y-109440435D01*
X156307190Y-109482908D01*
X156321361Y-109551326D01*
X156296292Y-109616543D01*
X156265597Y-109645053D01*
X156255214Y-109651836D01*
X156255213Y-109651837D01*
X156072261Y-109820257D01*
X155919523Y-110016494D01*
X155919522Y-110016496D01*
X155801173Y-110235187D01*
X155801169Y-110235197D01*
X155792891Y-110259307D01*
X155789610Y-110267092D01*
X155758389Y-110329018D01*
X155758386Y-110329024D01*
X155690322Y-110551272D01*
X155690321Y-110551277D01*
X155660798Y-110781837D01*
X155670662Y-111014066D01*
X155670662Y-111014067D01*
X155719634Y-111241296D01*
X155799165Y-111439217D01*
X155800273Y-111442194D01*
X155801172Y-111444810D01*
X155801174Y-111444814D01*
X155802981Y-111448933D01*
X155803796Y-111450743D01*
X155806300Y-111456974D01*
X155806302Y-111456979D01*
X155817401Y-111475004D01*
X155819133Y-111478002D01*
X155919519Y-111663499D01*
X155919523Y-111663505D01*
X156062724Y-111847490D01*
X156088366Y-111912484D01*
X156074799Y-111981024D01*
X156026331Y-112031349D01*
X156008204Y-112039834D01*
X155922911Y-112071646D01*
X155922906Y-112071649D01*
X155807812Y-112157809D01*
X155807809Y-112157812D01*
X155721649Y-112272906D01*
X155721645Y-112272913D01*
X155671403Y-112407620D01*
X155671401Y-112407627D01*
X155665000Y-112467155D01*
X155665000Y-113130000D01*
X156556231Y-113130000D01*
X156623270Y-113149685D01*
X156669025Y-113202489D01*
X156678969Y-113271647D01*
X156675208Y-113288936D01*
X156670000Y-113306672D01*
X156670000Y-113453327D01*
X156675208Y-113471064D01*
X156675208Y-113540934D01*
X156637434Y-113599712D01*
X156573879Y-113628738D01*
X156556231Y-113630000D01*
X155665000Y-113630000D01*
X155665000Y-114292844D01*
X155671401Y-114352372D01*
X155671403Y-114352379D01*
X155721645Y-114487086D01*
X155721649Y-114487093D01*
X155807809Y-114602187D01*
X155807812Y-114602190D01*
X155922906Y-114688350D01*
X155922913Y-114688354D01*
X156057620Y-114738596D01*
X156057627Y-114738598D01*
X156117155Y-114744999D01*
X156117172Y-114745000D01*
X156930000Y-114745000D01*
X156930000Y-114002403D01*
X156949685Y-113935364D01*
X157002489Y-113889609D01*
X157071646Y-113879665D01*
X157143527Y-113890000D01*
X157143530Y-113890000D01*
X157216470Y-113890000D01*
X157216473Y-113890000D01*
X157288353Y-113879665D01*
X157357512Y-113889609D01*
X157410316Y-113935364D01*
X157430000Y-114002403D01*
X157430000Y-114745000D01*
X158242828Y-114745000D01*
X158242844Y-114744999D01*
X158302372Y-114738598D01*
X158302383Y-114738595D01*
X158352165Y-114720028D01*
X158421856Y-114715043D01*
X158483180Y-114748527D01*
X158516665Y-114809850D01*
X158519499Y-114836209D01*
X158519500Y-117416129D01*
X158499815Y-117483168D01*
X158447012Y-117528923D01*
X158377853Y-117538867D01*
X158314297Y-117509842D01*
X158302418Y-117498054D01*
X158278259Y-117470605D01*
X158278254Y-117470600D01*
X158097416Y-117324584D01*
X158097410Y-117324579D01*
X157894488Y-117211220D01*
X157675323Y-117133784D01*
X157675313Y-117133781D01*
X157446230Y-117094500D01*
X157446221Y-117094500D01*
X156971993Y-117094500D01*
X156971987Y-117094500D01*
X156798399Y-117109273D01*
X156573453Y-117167845D01*
X156361644Y-117263589D01*
X156302986Y-117303235D01*
X156236420Y-117324467D01*
X156233549Y-117324500D01*
X150988082Y-117324500D01*
X150967517Y-117322783D01*
X150964296Y-117322241D01*
X150964294Y-117322241D01*
X150910778Y-117323515D01*
X150869401Y-117324500D01*
X150828829Y-117324500D01*
X150817550Y-117325576D01*
X150813145Y-117325838D01*
X150747499Y-117327402D01*
X150711258Y-117335285D01*
X150703975Y-117336420D01*
X150695599Y-117337220D01*
X150667054Y-117339946D01*
X150667045Y-117339948D01*
X150604039Y-117358447D01*
X150599753Y-117359541D01*
X150535606Y-117373497D01*
X150535593Y-117373501D01*
X150501514Y-117388094D01*
X150494572Y-117390590D01*
X150458983Y-117401040D01*
X150400608Y-117431133D01*
X150396605Y-117433020D01*
X150336258Y-117458862D01*
X150309663Y-117476862D01*
X150243110Y-117498135D01*
X150175622Y-117480050D01*
X150128624Y-117428349D01*
X150119271Y-117401761D01*
X150110286Y-117362395D01*
X150110279Y-117362373D01*
X150018836Y-117129381D01*
X149893685Y-116912613D01*
X149855199Y-116864352D01*
X149855198Y-116864352D01*
X149227667Y-117491884D01*
X149166344Y-117525369D01*
X149096652Y-117520385D01*
X149040719Y-117478513D01*
X149035290Y-117470646D01*
X149027812Y-117458863D01*
X149014814Y-117438381D01*
X149008174Y-117432146D01*
X148895097Y-117325960D01*
X148891732Y-117323515D01*
X148889731Y-117320920D01*
X148889410Y-117320619D01*
X148889458Y-117320567D01*
X148849064Y-117268187D01*
X148843082Y-117198574D01*
X148875685Y-117136778D01*
X148876932Y-117135513D01*
X149501596Y-116510850D01*
X149347342Y-116405682D01*
X149347334Y-116405677D01*
X149121832Y-116297083D01*
X149121834Y-116297083D01*
X148882653Y-116223305D01*
X148882647Y-116223303D01*
X148635156Y-116186000D01*
X148384843Y-116186000D01*
X148137352Y-116223303D01*
X148137346Y-116223305D01*
X147898166Y-116297083D01*
X147672661Y-116405680D01*
X147672660Y-116405681D01*
X147518402Y-116510849D01*
X148146765Y-117139212D01*
X148180250Y-117200535D01*
X148175266Y-117270227D01*
X148133394Y-117326160D01*
X148131970Y-117327210D01*
X148061510Y-117378402D01*
X148061508Y-117378405D01*
X147975130Y-117482818D01*
X147917230Y-117521925D01*
X147847378Y-117523521D01*
X147791905Y-117491458D01*
X147164800Y-116864353D01*
X147126308Y-116912621D01*
X147001163Y-117129381D01*
X146909720Y-117362373D01*
X146909714Y-117362392D01*
X146854021Y-117606400D01*
X146854021Y-117606402D01*
X146835317Y-117855995D01*
X146835317Y-117856004D01*
X146854021Y-118105597D01*
X146854021Y-118105599D01*
X146909714Y-118349607D01*
X146909720Y-118349626D01*
X147001163Y-118582618D01*
X147126311Y-118799382D01*
X147164800Y-118847645D01*
X147792331Y-118220114D01*
X147853654Y-118186629D01*
X147923345Y-118191613D01*
X147979279Y-118233484D01*
X147984707Y-118241350D01*
X148005187Y-118273620D01*
X148005188Y-118273621D01*
X148124904Y-118386041D01*
X148128266Y-118388484D01*
X148130264Y-118391074D01*
X148130590Y-118391381D01*
X148130540Y-118391433D01*
X148170934Y-118443812D01*
X148176915Y-118513425D01*
X148144311Y-118575221D01*
X148143065Y-118576485D01*
X147518402Y-119201148D01*
X147672651Y-119306313D01*
X147672664Y-119306320D01*
X147898167Y-119414916D01*
X147898165Y-119414916D01*
X148025562Y-119454213D01*
X148083821Y-119492783D01*
X148111979Y-119556728D01*
X148101095Y-119625745D01*
X148076693Y-119660385D01*
X144956899Y-122780181D01*
X144895576Y-122813666D01*
X144869218Y-122816500D01*
X133278083Y-122816500D01*
X133211044Y-122796815D01*
X133165289Y-122744011D01*
X133155345Y-122674853D01*
X133176508Y-122621377D01*
X133181507Y-122614238D01*
X133210568Y-122572734D01*
X133306739Y-122366496D01*
X133365635Y-122146692D01*
X133385468Y-121920000D01*
X133365635Y-121693308D01*
X133320916Y-121526415D01*
X133306741Y-121473511D01*
X133306738Y-121473502D01*
X133210568Y-121267266D01*
X133080047Y-121080861D01*
X133080045Y-121080858D01*
X132919141Y-120919954D01*
X132732734Y-120789432D01*
X132732728Y-120789429D01*
X132674725Y-120762382D01*
X132622285Y-120716210D01*
X132603133Y-120649017D01*
X132623348Y-120582135D01*
X132674725Y-120537618D01*
X132732734Y-120510568D01*
X132919139Y-120380047D01*
X133080047Y-120219139D01*
X133210568Y-120032734D01*
X133306739Y-119826496D01*
X133365635Y-119606692D01*
X133385468Y-119380000D01*
X133365635Y-119153308D01*
X133306739Y-118933504D01*
X133210568Y-118727266D01*
X133080047Y-118540861D01*
X133080045Y-118540858D01*
X132919141Y-118379954D01*
X132732734Y-118249432D01*
X132732728Y-118249429D01*
X132674725Y-118222382D01*
X132622285Y-118176210D01*
X132603133Y-118109017D01*
X132623348Y-118042135D01*
X132674725Y-117997618D01*
X132732734Y-117970568D01*
X132896350Y-117856004D01*
X136834816Y-117856004D01*
X136853524Y-118105663D01*
X136853525Y-118105668D01*
X136909236Y-118349755D01*
X136909238Y-118349764D01*
X136909240Y-118349769D01*
X137000711Y-118582835D01*
X137125898Y-118799665D01*
X137164161Y-118847645D01*
X137282006Y-118995418D01*
X137431188Y-119133838D01*
X137465540Y-119165712D01*
X137672408Y-119306752D01*
X137672413Y-119306754D01*
X137672414Y-119306755D01*
X137672415Y-119306756D01*
X137792218Y-119364449D01*
X137897983Y-119415383D01*
X137897984Y-119415383D01*
X137897987Y-119415385D01*
X138137236Y-119489184D01*
X138137237Y-119489184D01*
X138137240Y-119489185D01*
X138384805Y-119526499D01*
X138384810Y-119526499D01*
X138384813Y-119526500D01*
X138384814Y-119526500D01*
X138635186Y-119526500D01*
X138635187Y-119526500D01*
X138636846Y-119526250D01*
X138882759Y-119489185D01*
X138882760Y-119489184D01*
X138882764Y-119489184D01*
X139122013Y-119415385D01*
X139347592Y-119306752D01*
X139554460Y-119165712D01*
X139737997Y-118995414D01*
X139894102Y-118799665D01*
X140019289Y-118582835D01*
X140110760Y-118349769D01*
X140166474Y-118105673D01*
X140169392Y-118066739D01*
X140185184Y-117856004D01*
X141834816Y-117856004D01*
X141853524Y-118105663D01*
X141853525Y-118105668D01*
X141909236Y-118349755D01*
X141909238Y-118349764D01*
X141909240Y-118349769D01*
X142000711Y-118582835D01*
X142125898Y-118799665D01*
X142164161Y-118847645D01*
X142282006Y-118995418D01*
X142431188Y-119133838D01*
X142465540Y-119165712D01*
X142672408Y-119306752D01*
X142672413Y-119306754D01*
X142672414Y-119306755D01*
X142672415Y-119306756D01*
X142792218Y-119364449D01*
X142897983Y-119415383D01*
X142897984Y-119415383D01*
X142897987Y-119415385D01*
X143137236Y-119489184D01*
X143137237Y-119489184D01*
X143137240Y-119489185D01*
X143384805Y-119526499D01*
X143384810Y-119526499D01*
X143384813Y-119526500D01*
X143384814Y-119526500D01*
X143635186Y-119526500D01*
X143635187Y-119526500D01*
X143636846Y-119526250D01*
X143882759Y-119489185D01*
X143882760Y-119489184D01*
X143882764Y-119489184D01*
X144122013Y-119415385D01*
X144347592Y-119306752D01*
X144554460Y-119165712D01*
X144737997Y-118995414D01*
X144894102Y-118799665D01*
X145019289Y-118582835D01*
X145110760Y-118349769D01*
X145166474Y-118105673D01*
X145169392Y-118066739D01*
X145185184Y-117856004D01*
X145185184Y-117855995D01*
X145166475Y-117606336D01*
X145166474Y-117606331D01*
X145166474Y-117606327D01*
X145110760Y-117362231D01*
X145019289Y-117129165D01*
X144894102Y-116912335D01*
X144737997Y-116716586D01*
X144737996Y-116716585D01*
X144737993Y-116716581D01*
X144554460Y-116546288D01*
X144502480Y-116510849D01*
X144347592Y-116405248D01*
X144347588Y-116405246D01*
X144347585Y-116405244D01*
X144347584Y-116405243D01*
X144122015Y-116296616D01*
X144122017Y-116296616D01*
X143882765Y-116222816D01*
X143882759Y-116222814D01*
X143635194Y-116185500D01*
X143635187Y-116185500D01*
X143384813Y-116185500D01*
X143384805Y-116185500D01*
X143137240Y-116222814D01*
X143137234Y-116222816D01*
X142897983Y-116296616D01*
X142672415Y-116405243D01*
X142672414Y-116405244D01*
X142672408Y-116405247D01*
X142672408Y-116405248D01*
X142648118Y-116421808D01*
X142465539Y-116546288D01*
X142282006Y-116716581D01*
X142125898Y-116912335D01*
X142000711Y-117129164D01*
X141909242Y-117362225D01*
X141909236Y-117362244D01*
X141853525Y-117606331D01*
X141853524Y-117606336D01*
X141834816Y-117855995D01*
X141834816Y-117856004D01*
X140185184Y-117856004D01*
X140185184Y-117855995D01*
X140166475Y-117606336D01*
X140166474Y-117606331D01*
X140166474Y-117606327D01*
X140110760Y-117362231D01*
X140019289Y-117129165D01*
X139894102Y-116912335D01*
X139737997Y-116716586D01*
X139737996Y-116716585D01*
X139737993Y-116716581D01*
X139554460Y-116546288D01*
X139502480Y-116510849D01*
X139347592Y-116405248D01*
X139347588Y-116405246D01*
X139347585Y-116405244D01*
X139347584Y-116405243D01*
X139122015Y-116296616D01*
X139122017Y-116296616D01*
X138882765Y-116222816D01*
X138882759Y-116222814D01*
X138635194Y-116185500D01*
X138635187Y-116185500D01*
X138384813Y-116185500D01*
X138384805Y-116185500D01*
X138137240Y-116222814D01*
X138137234Y-116222816D01*
X137897983Y-116296616D01*
X137672415Y-116405243D01*
X137672414Y-116405244D01*
X137672408Y-116405247D01*
X137672408Y-116405248D01*
X137648118Y-116421808D01*
X137465539Y-116546288D01*
X137282006Y-116716581D01*
X137125898Y-116912335D01*
X137000711Y-117129164D01*
X136909242Y-117362225D01*
X136909236Y-117362244D01*
X136853525Y-117606331D01*
X136853524Y-117606336D01*
X136834816Y-117855995D01*
X136834816Y-117856004D01*
X132896350Y-117856004D01*
X132919139Y-117840047D01*
X133080047Y-117679139D01*
X133210568Y-117492734D01*
X133306739Y-117286496D01*
X133365635Y-117066692D01*
X133385468Y-116840000D01*
X133365635Y-116613308D01*
X133309885Y-116405244D01*
X133306741Y-116393511D01*
X133306738Y-116393502D01*
X133261559Y-116296616D01*
X133210568Y-116187266D01*
X133080047Y-116000861D01*
X133080045Y-116000858D01*
X132919141Y-115839954D01*
X132732734Y-115709432D01*
X132732728Y-115709429D01*
X132674725Y-115682382D01*
X132622285Y-115636210D01*
X132603133Y-115569017D01*
X132623348Y-115502135D01*
X132674725Y-115457618D01*
X132732734Y-115430568D01*
X132919139Y-115300047D01*
X133080047Y-115139139D01*
X133210568Y-114952734D01*
X133306739Y-114746496D01*
X133365635Y-114526692D01*
X133385468Y-114300000D01*
X133365635Y-114073308D01*
X133306739Y-113853504D01*
X133210568Y-113647266D01*
X133080047Y-113460861D01*
X133080045Y-113460858D01*
X132919141Y-113299954D01*
X132732734Y-113169432D01*
X132732728Y-113169429D01*
X132697238Y-113152880D01*
X132674724Y-113142381D01*
X132622285Y-113096210D01*
X132603133Y-113029017D01*
X132623348Y-112962135D01*
X132674725Y-112917618D01*
X132732734Y-112890568D01*
X132919139Y-112760047D01*
X133080047Y-112599139D01*
X133210568Y-112412734D01*
X133306739Y-112206496D01*
X133365635Y-111986692D01*
X133385468Y-111760000D01*
X133382132Y-111721875D01*
X133367978Y-111560091D01*
X134246500Y-111560091D01*
X134256374Y-111663499D01*
X134261948Y-111721871D01*
X134261949Y-111721875D01*
X134323041Y-111929938D01*
X134323042Y-111929941D01*
X134323043Y-111929942D01*
X134422412Y-112122690D01*
X134556462Y-112293149D01*
X134720349Y-112435158D01*
X134720352Y-112435160D01*
X134720355Y-112435162D01*
X134821998Y-112493845D01*
X134908151Y-112543585D01*
X135113078Y-112614511D01*
X135327725Y-112645373D01*
X135544334Y-112635055D01*
X135755075Y-112583929D01*
X135952332Y-112493845D01*
X136128977Y-112368057D01*
X136155253Y-112340500D01*
X136278621Y-112211114D01*
X136278620Y-112211114D01*
X136278623Y-112211112D01*
X136395863Y-112028683D01*
X136476460Y-111827362D01*
X136517500Y-111614427D01*
X136517500Y-110843870D01*
X140979500Y-110843870D01*
X140979501Y-110843876D01*
X140985908Y-110903483D01*
X141036202Y-111038328D01*
X141036206Y-111038335D01*
X141122452Y-111153544D01*
X141122455Y-111153547D01*
X141237664Y-111239793D01*
X141237671Y-111239797D01*
X141372517Y-111290091D01*
X141372516Y-111290091D01*
X141379444Y-111290835D01*
X141432127Y-111296500D01*
X143127872Y-111296499D01*
X143187483Y-111290091D01*
X143322331Y-111239796D01*
X143437546Y-111153546D01*
X143523796Y-111038331D01*
X143574091Y-110903483D01*
X143580500Y-110843873D01*
X143580499Y-110843845D01*
X143580678Y-110840547D01*
X143582183Y-110840627D01*
X143600112Y-110779326D01*
X143652868Y-110733514D01*
X143696464Y-110725981D01*
X144242580Y-110179865D01*
X144303903Y-110146380D01*
X144373594Y-110151364D01*
X144429528Y-110193235D01*
X144440742Y-110211246D01*
X144445226Y-110220045D01*
X144452358Y-110234044D01*
X144452363Y-110234050D01*
X144541949Y-110323636D01*
X144541951Y-110323637D01*
X144541955Y-110323641D01*
X144564747Y-110335254D01*
X144615542Y-110383228D01*
X144632337Y-110451049D01*
X144609799Y-110517184D01*
X144596132Y-110533419D01*
X144054526Y-111075025D01*
X144054526Y-111075026D01*
X144127512Y-111126131D01*
X144127516Y-111126133D01*
X144333673Y-111222265D01*
X144333682Y-111222269D01*
X144553389Y-111281139D01*
X144553400Y-111281141D01*
X144779998Y-111300966D01*
X144780002Y-111300966D01*
X145006599Y-111281141D01*
X145006610Y-111281139D01*
X145226317Y-111222269D01*
X145226331Y-111222264D01*
X145432478Y-111126136D01*
X145505472Y-111075025D01*
X144963866Y-110533419D01*
X144930381Y-110472096D01*
X144935365Y-110402404D01*
X144977237Y-110346471D01*
X144995245Y-110335258D01*
X145018045Y-110323641D01*
X145107641Y-110234045D01*
X145119254Y-110211252D01*
X145167225Y-110160458D01*
X145235046Y-110143661D01*
X145301181Y-110166197D01*
X145317419Y-110179866D01*
X145859025Y-110721472D01*
X145910136Y-110648478D01*
X146006264Y-110442331D01*
X146006269Y-110442317D01*
X146065139Y-110222610D01*
X146065141Y-110222599D01*
X146084966Y-109996002D01*
X146084966Y-109995997D01*
X146065141Y-109769400D01*
X146065139Y-109769389D01*
X146006269Y-109549682D01*
X146006265Y-109549673D01*
X145910133Y-109343516D01*
X145910131Y-109343512D01*
X145859026Y-109270526D01*
X145859025Y-109270526D01*
X145317419Y-109812132D01*
X145256096Y-109845617D01*
X145186404Y-109840633D01*
X145130471Y-109798761D01*
X145119256Y-109780751D01*
X145107641Y-109757955D01*
X145107637Y-109757951D01*
X145107636Y-109757949D01*
X145018050Y-109668363D01*
X145018044Y-109668358D01*
X145008109Y-109663296D01*
X144995250Y-109656744D01*
X144944456Y-109608773D01*
X144927660Y-109540952D01*
X144950197Y-109474817D01*
X144963865Y-109458580D01*
X145505472Y-108916973D01*
X145432483Y-108865866D01*
X145432481Y-108865865D01*
X145226326Y-108769734D01*
X145226317Y-108769730D01*
X145006610Y-108710860D01*
X145006599Y-108710858D01*
X144780002Y-108691034D01*
X144779998Y-108691034D01*
X144553400Y-108710858D01*
X144553389Y-108710860D01*
X144333682Y-108769730D01*
X144333673Y-108769734D01*
X144127513Y-108865868D01*
X144054526Y-108916973D01*
X144596133Y-109458580D01*
X144629618Y-109519903D01*
X144624634Y-109589595D01*
X144582762Y-109645528D01*
X144564748Y-109656745D01*
X144541956Y-109668358D01*
X144541949Y-109668363D01*
X144452363Y-109757949D01*
X144452358Y-109757956D01*
X144440745Y-109780748D01*
X144392770Y-109831544D01*
X144324949Y-109848338D01*
X144258814Y-109825800D01*
X144242580Y-109812133D01*
X143695797Y-109265351D01*
X143646805Y-109255505D01*
X143596623Y-109206889D01*
X143581981Y-109151366D01*
X143580900Y-109151423D01*
X143580854Y-109151429D01*
X143580853Y-109151426D01*
X143580676Y-109151436D01*
X143580499Y-109148135D01*
X143580499Y-109148128D01*
X143574091Y-109088517D01*
X143569587Y-109076442D01*
X143523797Y-108953671D01*
X143523793Y-108953664D01*
X143437547Y-108838455D01*
X143437544Y-108838452D01*
X143322335Y-108752206D01*
X143322328Y-108752202D01*
X143187482Y-108701908D01*
X143187483Y-108701908D01*
X143127883Y-108695501D01*
X143127881Y-108695500D01*
X143127873Y-108695500D01*
X143127864Y-108695500D01*
X141432129Y-108695500D01*
X141432123Y-108695501D01*
X141372516Y-108701908D01*
X141237671Y-108752202D01*
X141237664Y-108752206D01*
X141122455Y-108838452D01*
X141122452Y-108838455D01*
X141036206Y-108953664D01*
X141036202Y-108953671D01*
X140985908Y-109088517D01*
X140980856Y-109135513D01*
X140979501Y-109148123D01*
X140979500Y-109148135D01*
X140979500Y-110843870D01*
X136517500Y-110843870D01*
X136517500Y-104847909D01*
X136517500Y-89607909D01*
X136502052Y-89446128D01*
X136440957Y-89238058D01*
X136341588Y-89045310D01*
X136207538Y-88874851D01*
X136043651Y-88732842D01*
X136043647Y-88732840D01*
X136043644Y-88732837D01*
X135855851Y-88624416D01*
X135855850Y-88624415D01*
X135855849Y-88624415D01*
X135673927Y-88561451D01*
X135650923Y-88553489D01*
X135597260Y-88545773D01*
X135436275Y-88522627D01*
X135436272Y-88522627D01*
X135219668Y-88532944D01*
X135008928Y-88584070D01*
X135008926Y-88584070D01*
X134811669Y-88674154D01*
X134635021Y-88799944D01*
X134635015Y-88799949D01*
X134485378Y-88956885D01*
X134368135Y-89139320D01*
X134368134Y-89139321D01*
X134287544Y-89340624D01*
X134287539Y-89340641D01*
X134246710Y-89552482D01*
X134246500Y-89553573D01*
X134246500Y-104793573D01*
X134246500Y-111560091D01*
X133367978Y-111560091D01*
X133365635Y-111533308D01*
X133306739Y-111313504D01*
X133210568Y-111107266D01*
X133080047Y-110920861D01*
X133080045Y-110920858D01*
X132919141Y-110759954D01*
X132732734Y-110629432D01*
X132732728Y-110629429D01*
X132674725Y-110602382D01*
X132622285Y-110556210D01*
X132603133Y-110489017D01*
X132623348Y-110422135D01*
X132674725Y-110377618D01*
X132732734Y-110350568D01*
X132919139Y-110220047D01*
X133080047Y-110059139D01*
X133210568Y-109872734D01*
X133306739Y-109666496D01*
X133365635Y-109446692D01*
X133385468Y-109220000D01*
X133365635Y-108993308D01*
X133320916Y-108826415D01*
X133306741Y-108773511D01*
X133306738Y-108773502D01*
X133304979Y-108769730D01*
X133210568Y-108567266D01*
X133080047Y-108380861D01*
X133080045Y-108380858D01*
X132919141Y-108219954D01*
X132732735Y-108089433D01*
X132732736Y-108089433D01*
X132732734Y-108089432D01*
X132674722Y-108062380D01*
X132622284Y-108016208D01*
X132603133Y-107949014D01*
X132623349Y-107882133D01*
X132674721Y-107837619D01*
X132732734Y-107810568D01*
X132919139Y-107680047D01*
X133080047Y-107519139D01*
X133210568Y-107332734D01*
X133306739Y-107126496D01*
X133365635Y-106906692D01*
X133385468Y-106680000D01*
X133365635Y-106453308D01*
X133306739Y-106233504D01*
X133210568Y-106027266D01*
X133080047Y-105840861D01*
X133080045Y-105840858D01*
X132919141Y-105679954D01*
X132732734Y-105549432D01*
X132732728Y-105549429D01*
X132674725Y-105522382D01*
X132622285Y-105476210D01*
X132603133Y-105409017D01*
X132623348Y-105342135D01*
X132674725Y-105297618D01*
X132732734Y-105270568D01*
X132919139Y-105140047D01*
X133080047Y-104979139D01*
X133210568Y-104792734D01*
X133306739Y-104586496D01*
X133365635Y-104366692D01*
X133385468Y-104140000D01*
X133365635Y-103913308D01*
X133306739Y-103693504D01*
X133210568Y-103487266D01*
X133080047Y-103300861D01*
X133080045Y-103300858D01*
X132919141Y-103139954D01*
X132732734Y-103009432D01*
X132732728Y-103009429D01*
X132674725Y-102982382D01*
X132622285Y-102936210D01*
X132603133Y-102869017D01*
X132623348Y-102802135D01*
X132674725Y-102757618D01*
X132732734Y-102730568D01*
X132919139Y-102600047D01*
X133080047Y-102439139D01*
X133210568Y-102252734D01*
X133306739Y-102046496D01*
X133365635Y-101826692D01*
X133385468Y-101600000D01*
X133365635Y-101373308D01*
X133306739Y-101153504D01*
X133210568Y-100947266D01*
X133080047Y-100760861D01*
X133080045Y-100760858D01*
X132919141Y-100599954D01*
X132732734Y-100469432D01*
X132732728Y-100469429D01*
X132705038Y-100456517D01*
X132674724Y-100442381D01*
X132622285Y-100396210D01*
X132603133Y-100329017D01*
X132623348Y-100262135D01*
X132674725Y-100217618D01*
X132732734Y-100190568D01*
X132919139Y-100060047D01*
X133080047Y-99899139D01*
X133210568Y-99712734D01*
X133306739Y-99506496D01*
X133365635Y-99286692D01*
X133385468Y-99060000D01*
X133365635Y-98833308D01*
X133306739Y-98613504D01*
X133210568Y-98407266D01*
X133080047Y-98220861D01*
X133080045Y-98220858D01*
X132919141Y-98059954D01*
X132732734Y-97929432D01*
X132732728Y-97929429D01*
X132674725Y-97902382D01*
X132622285Y-97856210D01*
X132603133Y-97789017D01*
X132623348Y-97722135D01*
X132674725Y-97677618D01*
X132732734Y-97650568D01*
X132919139Y-97520047D01*
X133080047Y-97359139D01*
X133210568Y-97172734D01*
X133306739Y-96966496D01*
X133365635Y-96746692D01*
X133385468Y-96520000D01*
X133365635Y-96293308D01*
X133320916Y-96126415D01*
X133306741Y-96073511D01*
X133306738Y-96073502D01*
X133210568Y-95867266D01*
X133080047Y-95680861D01*
X133080045Y-95680858D01*
X132919141Y-95519954D01*
X132732734Y-95389432D01*
X132732728Y-95389429D01*
X132674725Y-95362382D01*
X132622285Y-95316210D01*
X132603133Y-95249017D01*
X132623348Y-95182135D01*
X132674725Y-95137618D01*
X132675319Y-95137341D01*
X132732734Y-95110568D01*
X132919139Y-94980047D01*
X133080047Y-94819139D01*
X133210568Y-94632734D01*
X133306739Y-94426496D01*
X133365635Y-94206692D01*
X133385468Y-93980000D01*
X133365635Y-93753308D01*
X133306739Y-93533504D01*
X133210568Y-93327266D01*
X133080047Y-93140861D01*
X133080045Y-93140858D01*
X132919141Y-92979954D01*
X132732734Y-92849432D01*
X132732728Y-92849429D01*
X132674725Y-92822382D01*
X132622285Y-92776210D01*
X132603133Y-92709017D01*
X132623348Y-92642135D01*
X132674725Y-92597618D01*
X132732734Y-92570568D01*
X132919139Y-92440047D01*
X133080047Y-92279139D01*
X133210568Y-92092734D01*
X133306739Y-91886496D01*
X133365635Y-91666692D01*
X133385468Y-91440000D01*
X133365635Y-91213308D01*
X133306739Y-90993504D01*
X133210568Y-90787266D01*
X133080047Y-90600861D01*
X133080045Y-90600858D01*
X132919141Y-90439954D01*
X132732734Y-90309432D01*
X132732732Y-90309431D01*
X132674725Y-90282382D01*
X132674132Y-90282105D01*
X132621694Y-90235934D01*
X132602542Y-90168740D01*
X132622758Y-90101859D01*
X132674134Y-90057341D01*
X132732484Y-90030132D01*
X132918820Y-89899657D01*
X133079657Y-89738820D01*
X133210134Y-89552482D01*
X133306265Y-89346326D01*
X133306269Y-89346317D01*
X133358872Y-89150000D01*
X132693347Y-89150000D01*
X132626308Y-89130315D01*
X132580553Y-89077511D01*
X132570609Y-89008353D01*
X132574369Y-88991067D01*
X132580000Y-88971888D01*
X132580000Y-88828111D01*
X132574369Y-88808933D01*
X132574370Y-88739064D01*
X132612145Y-88680286D01*
X132675701Y-88651262D01*
X132693347Y-88650000D01*
X133358872Y-88650000D01*
X133358872Y-88649999D01*
X133306269Y-88453682D01*
X133306265Y-88453673D01*
X133210134Y-88247517D01*
X133079657Y-88061179D01*
X132918820Y-87900342D01*
X132851092Y-87852918D01*
X132807467Y-87798340D01*
X132800275Y-87728842D01*
X132831797Y-87666487D01*
X132863195Y-87642290D01*
X132903509Y-87620474D01*
X133099744Y-87467738D01*
X133268164Y-87284785D01*
X133404173Y-87076607D01*
X133504063Y-86848881D01*
X133565108Y-86607821D01*
X133565115Y-86607744D01*
X133580500Y-86422065D01*
X133580500Y-80869018D01*
X133580977Y-80861342D01*
X133582276Y-80850914D01*
X133584357Y-80834221D01*
X133580500Y-80740973D01*
X133580500Y-80709933D01*
X133577936Y-80678994D01*
X133574080Y-80585763D01*
X133568471Y-80559018D01*
X133567364Y-80551415D01*
X133565108Y-80524179D01*
X133542196Y-80433702D01*
X133523049Y-80342386D01*
X133513116Y-80316932D01*
X133510771Y-80309609D01*
X133510340Y-80307908D01*
X133504063Y-80283119D01*
X133476060Y-80219277D01*
X133466579Y-80197663D01*
X133432658Y-80110730D01*
X133432653Y-80110720D01*
X133426656Y-80100657D01*
X133418663Y-80087243D01*
X133415147Y-80080412D01*
X133404173Y-80055393D01*
X133404172Y-80055392D01*
X133353139Y-79977278D01*
X133305365Y-79897105D01*
X133287704Y-79876253D01*
X133283106Y-79870086D01*
X133268166Y-79847218D01*
X133268165Y-79847217D01*
X133268164Y-79847215D01*
X133204966Y-79778564D01*
X133184902Y-79754874D01*
X133184894Y-79754866D01*
X133162950Y-79732921D01*
X133099747Y-79664265D01*
X133099746Y-79664264D01*
X133099744Y-79664262D01*
X133078174Y-79647473D01*
X133072412Y-79642384D01*
X129907615Y-76477587D01*
X129902524Y-76471822D01*
X129885739Y-76450257D01*
X129817078Y-76387049D01*
X129795129Y-76365100D01*
X129771435Y-76345033D01*
X129702786Y-76281837D01*
X129702785Y-76281836D01*
X129679904Y-76266887D01*
X129673747Y-76262296D01*
X129652894Y-76244634D01*
X129572720Y-76196860D01*
X129494607Y-76145827D01*
X129494604Y-76145825D01*
X129469588Y-76134852D01*
X129462750Y-76131332D01*
X129439275Y-76117344D01*
X129352335Y-76083420D01*
X129352334Y-76083420D01*
X129266881Y-76045937D01*
X129266877Y-76045936D01*
X129266875Y-76045935D01*
X129240387Y-76039227D01*
X129233067Y-76036882D01*
X129216593Y-76030454D01*
X129207614Y-76026951D01*
X129116288Y-76007801D01*
X129116288Y-76007800D01*
X129025819Y-75984891D01*
X128998590Y-75982635D01*
X128990983Y-75981526D01*
X128970986Y-75977334D01*
X128964237Y-75975919D01*
X128964235Y-75975918D01*
X128870990Y-75972062D01*
X128840067Y-75969500D01*
X128840064Y-75969500D01*
X128809035Y-75969500D01*
X128715780Y-75965643D01*
X128715779Y-75965643D01*
X128688652Y-75969024D01*
X128680981Y-75969500D01*
X128165433Y-75969500D01*
X128146021Y-75971108D01*
X127979686Y-75984890D01*
X127979675Y-75984892D01*
X127738618Y-76045936D01*
X127510895Y-76145825D01*
X127510880Y-76145834D01*
X127505555Y-76149313D01*
X127438664Y-76169497D01*
X127437743Y-76169500D01*
X127379630Y-76169500D01*
X127379623Y-76169501D01*
X127320016Y-76175908D01*
X127185171Y-76226202D01*
X127185164Y-76226206D01*
X127069955Y-76312452D01*
X127069952Y-76312455D01*
X126983706Y-76427664D01*
X126983702Y-76427671D01*
X126933408Y-76562517D01*
X126927001Y-76622116D01*
X126927000Y-76622135D01*
X126927000Y-76689050D01*
X126912055Y-76748067D01*
X126848675Y-76865183D01*
X126848669Y-76865197D01*
X126767929Y-77100383D01*
X126726999Y-77345665D01*
X126726999Y-77594334D01*
X126767929Y-77839616D01*
X126848670Y-78074805D01*
X126848675Y-78074816D01*
X126912055Y-78191933D01*
X126927000Y-78250948D01*
X126927000Y-78317869D01*
X126927001Y-78317876D01*
X126933408Y-78377483D01*
X126983702Y-78512328D01*
X126983706Y-78512335D01*
X127069952Y-78627544D01*
X127069955Y-78627547D01*
X127185164Y-78713793D01*
X127185171Y-78713797D01*
X127320016Y-78764091D01*
X127345919Y-78766875D01*
X127379627Y-78770500D01*
X127437740Y-78770499D01*
X127504779Y-78790182D01*
X127505559Y-78790688D01*
X127510893Y-78794173D01*
X127510895Y-78794174D01*
X127510897Y-78794175D01*
X127738618Y-78894063D01*
X127878832Y-78929570D01*
X127979679Y-78955108D01*
X128110365Y-78965936D01*
X128175546Y-78991088D01*
X128187803Y-79001831D01*
X130543181Y-81357209D01*
X130576666Y-81418532D01*
X130579500Y-81444890D01*
X130579500Y-86422065D01*
X130594890Y-86607813D01*
X130594892Y-86607824D01*
X130655936Y-86848881D01*
X130755826Y-87076606D01*
X130891833Y-87284782D01*
X130891836Y-87284785D01*
X131060256Y-87467738D01*
X131256491Y-87620474D01*
X131256494Y-87620476D01*
X131256496Y-87620477D01*
X131296800Y-87642288D01*
X131346391Y-87691507D01*
X131361499Y-87759723D01*
X131337329Y-87825279D01*
X131308908Y-87852917D01*
X131241180Y-87900341D01*
X131080342Y-88061179D01*
X130949865Y-88247517D01*
X130853734Y-88453673D01*
X130853730Y-88453682D01*
X130801127Y-88649999D01*
X130801128Y-88650000D01*
X131466653Y-88650000D01*
X131533692Y-88669685D01*
X131579447Y-88722489D01*
X131589391Y-88791647D01*
X131585631Y-88808933D01*
X131580000Y-88828111D01*
X131580000Y-88971888D01*
X131585631Y-88991067D01*
X131585630Y-89060936D01*
X131547855Y-89119714D01*
X131484299Y-89148738D01*
X131466653Y-89150000D01*
X130801128Y-89150000D01*
X130853730Y-89346317D01*
X130853734Y-89346326D01*
X130949865Y-89552482D01*
X131080342Y-89738820D01*
X131241179Y-89899657D01*
X131427518Y-90030134D01*
X131427520Y-90030135D01*
X131485865Y-90057342D01*
X131538305Y-90103514D01*
X131557457Y-90170707D01*
X131537242Y-90237589D01*
X131485867Y-90282105D01*
X131427268Y-90309431D01*
X131427264Y-90309433D01*
X131240858Y-90439954D01*
X131079954Y-90600858D01*
X130949432Y-90787265D01*
X130949431Y-90787267D01*
X130853261Y-90993502D01*
X130853258Y-90993511D01*
X130794366Y-91213302D01*
X130794364Y-91213313D01*
X130774532Y-91439998D01*
X130774532Y-91440001D01*
X130794364Y-91666686D01*
X130794366Y-91666697D01*
X130853258Y-91886488D01*
X130853261Y-91886497D01*
X130949431Y-92092732D01*
X130949432Y-92092734D01*
X131079954Y-92279141D01*
X131240858Y-92440045D01*
X131240861Y-92440047D01*
X131427266Y-92570568D01*
X131485275Y-92597618D01*
X131537714Y-92643791D01*
X131556866Y-92710984D01*
X131536650Y-92777865D01*
X131485275Y-92822382D01*
X131427267Y-92849431D01*
X131427265Y-92849432D01*
X131240858Y-92979954D01*
X131079954Y-93140858D01*
X130949432Y-93327265D01*
X130949431Y-93327267D01*
X130853261Y-93533502D01*
X130853258Y-93533511D01*
X130794366Y-93753302D01*
X130794364Y-93753313D01*
X130774532Y-93979998D01*
X130774532Y-93980001D01*
X130794364Y-94206686D01*
X130794366Y-94206697D01*
X130853258Y-94426488D01*
X130853261Y-94426497D01*
X130949431Y-94632732D01*
X130949432Y-94632734D01*
X131079954Y-94819141D01*
X131240858Y-94980045D01*
X131240861Y-94980047D01*
X131427266Y-95110568D01*
X131484681Y-95137341D01*
X131485275Y-95137618D01*
X131537714Y-95183791D01*
X131556866Y-95250984D01*
X131536650Y-95317865D01*
X131485275Y-95362382D01*
X131427267Y-95389431D01*
X131427265Y-95389432D01*
X131240858Y-95519954D01*
X131079954Y-95680858D01*
X130949432Y-95867265D01*
X130949431Y-95867267D01*
X130853261Y-96073502D01*
X130853258Y-96073511D01*
X130794366Y-96293302D01*
X130794364Y-96293313D01*
X130774532Y-96519998D01*
X130774532Y-96520001D01*
X130794364Y-96746686D01*
X130794366Y-96746697D01*
X130853258Y-96966488D01*
X130853261Y-96966497D01*
X130949431Y-97172732D01*
X130949432Y-97172734D01*
X131079954Y-97359141D01*
X131240858Y-97520045D01*
X131240861Y-97520047D01*
X131427266Y-97650568D01*
X131485275Y-97677618D01*
X131537714Y-97723791D01*
X131556866Y-97790984D01*
X131536650Y-97857865D01*
X131485275Y-97902382D01*
X131427267Y-97929431D01*
X131427265Y-97929432D01*
X131240858Y-98059954D01*
X131079954Y-98220858D01*
X130949432Y-98407265D01*
X130949431Y-98407267D01*
X130853261Y-98613502D01*
X130853258Y-98613511D01*
X130794366Y-98833302D01*
X130794364Y-98833313D01*
X130774532Y-99059998D01*
X130774532Y-99060001D01*
X130794364Y-99286686D01*
X130794366Y-99286697D01*
X130853258Y-99506488D01*
X130853261Y-99506497D01*
X130949431Y-99712732D01*
X130949432Y-99712734D01*
X131079954Y-99899141D01*
X131240858Y-100060045D01*
X131240861Y-100060047D01*
X131427266Y-100190568D01*
X131485275Y-100217618D01*
X131537714Y-100263791D01*
X131556866Y-100330984D01*
X131536650Y-100397865D01*
X131485275Y-100442382D01*
X131427267Y-100469431D01*
X131427265Y-100469432D01*
X131240858Y-100599954D01*
X131079954Y-100760858D01*
X130949432Y-100947265D01*
X130949431Y-100947267D01*
X130853261Y-101153502D01*
X130853258Y-101153511D01*
X130794366Y-101373302D01*
X130794364Y-101373313D01*
X130774532Y-101599998D01*
X130774532Y-101600001D01*
X130794364Y-101826686D01*
X130794366Y-101826697D01*
X130853258Y-102046488D01*
X130853261Y-102046497D01*
X130949431Y-102252732D01*
X130949432Y-102252734D01*
X131079954Y-102439141D01*
X131240858Y-102600045D01*
X131240861Y-102600047D01*
X131427266Y-102730568D01*
X131485275Y-102757618D01*
X131537714Y-102803791D01*
X131556866Y-102870984D01*
X131536650Y-102937865D01*
X131485275Y-102982382D01*
X131427267Y-103009431D01*
X131427265Y-103009432D01*
X131240858Y-103139954D01*
X131079954Y-103300858D01*
X130949432Y-103487265D01*
X130949431Y-103487267D01*
X130853261Y-103693502D01*
X130853258Y-103693511D01*
X130794366Y-103913302D01*
X130794364Y-103913313D01*
X130774532Y-104139998D01*
X130774532Y-104140001D01*
X130794364Y-104366686D01*
X130794366Y-104366697D01*
X130853258Y-104586488D01*
X130853261Y-104586497D01*
X130949431Y-104792732D01*
X130949432Y-104792734D01*
X131079954Y-104979141D01*
X131240858Y-105140045D01*
X131240861Y-105140047D01*
X131427266Y-105270568D01*
X131485275Y-105297618D01*
X131537714Y-105343791D01*
X131556866Y-105410984D01*
X131536650Y-105477865D01*
X131485275Y-105522382D01*
X131427267Y-105549431D01*
X131427265Y-105549432D01*
X131240858Y-105679954D01*
X131079954Y-105840858D01*
X130949432Y-106027265D01*
X130949431Y-106027267D01*
X130853261Y-106233502D01*
X130853258Y-106233511D01*
X130794366Y-106453302D01*
X130794364Y-106453313D01*
X130774532Y-106679998D01*
X130774532Y-106680001D01*
X130794364Y-106906686D01*
X130794366Y-106906697D01*
X130853258Y-107126488D01*
X130853261Y-107126497D01*
X130949431Y-107332732D01*
X130949432Y-107332734D01*
X131079954Y-107519141D01*
X131240858Y-107680045D01*
X131240861Y-107680047D01*
X131427266Y-107810568D01*
X131485278Y-107837619D01*
X131537713Y-107883788D01*
X131556866Y-107950982D01*
X131536651Y-108017863D01*
X131485277Y-108062380D01*
X131427268Y-108089430D01*
X131427265Y-108089432D01*
X131240858Y-108219954D01*
X131079954Y-108380858D01*
X130949432Y-108567265D01*
X130949431Y-108567267D01*
X130853261Y-108773502D01*
X130853258Y-108773511D01*
X130794366Y-108993302D01*
X130794364Y-108993313D01*
X130774532Y-109219998D01*
X130774532Y-109220001D01*
X130794364Y-109446686D01*
X130794366Y-109446697D01*
X130853258Y-109666488D01*
X130853261Y-109666497D01*
X130949431Y-109872732D01*
X130949432Y-109872734D01*
X131079954Y-110059141D01*
X131240858Y-110220045D01*
X131262483Y-110235187D01*
X131427266Y-110350568D01*
X131485275Y-110377618D01*
X131537714Y-110423791D01*
X131556866Y-110490984D01*
X131536650Y-110557865D01*
X131485275Y-110602382D01*
X131427267Y-110629431D01*
X131427265Y-110629432D01*
X131240858Y-110759954D01*
X131079954Y-110920858D01*
X130949432Y-111107265D01*
X130949431Y-111107267D01*
X130853261Y-111313502D01*
X130853258Y-111313511D01*
X130794366Y-111533302D01*
X130794364Y-111533313D01*
X130774532Y-111759998D01*
X130774532Y-111760001D01*
X130794364Y-111986686D01*
X130794366Y-111986697D01*
X130853258Y-112206488D01*
X130853261Y-112206497D01*
X130949431Y-112412732D01*
X130949432Y-112412734D01*
X131079954Y-112599141D01*
X131240858Y-112760045D01*
X131240861Y-112760047D01*
X131427266Y-112890568D01*
X131485275Y-112917618D01*
X131537714Y-112963791D01*
X131556866Y-113030984D01*
X131536650Y-113097865D01*
X131485275Y-113142382D01*
X131427267Y-113169431D01*
X131427265Y-113169432D01*
X131240858Y-113299954D01*
X131079954Y-113460858D01*
X130949432Y-113647265D01*
X130949431Y-113647267D01*
X130853261Y-113853502D01*
X130853258Y-113853511D01*
X130794366Y-114073302D01*
X130794364Y-114073313D01*
X130774532Y-114299998D01*
X130774532Y-114300001D01*
X130794364Y-114526686D01*
X130794366Y-114526697D01*
X130853258Y-114746488D01*
X130853261Y-114746497D01*
X130949431Y-114952732D01*
X130949432Y-114952734D01*
X131079954Y-115139141D01*
X131240858Y-115300045D01*
X131240861Y-115300047D01*
X131427266Y-115430568D01*
X131480057Y-115455185D01*
X131485275Y-115457618D01*
X131537714Y-115503791D01*
X131556866Y-115570984D01*
X131536650Y-115637865D01*
X131485275Y-115682382D01*
X131427267Y-115709431D01*
X131427265Y-115709432D01*
X131240858Y-115839954D01*
X131079954Y-116000858D01*
X130949432Y-116187265D01*
X130949431Y-116187267D01*
X130853261Y-116393502D01*
X130853258Y-116393511D01*
X130794366Y-116613302D01*
X130794364Y-116613313D01*
X130774532Y-116839998D01*
X130774532Y-116840001D01*
X130794364Y-117066686D01*
X130794366Y-117066697D01*
X130853258Y-117286488D01*
X130853261Y-117286497D01*
X130949431Y-117492732D01*
X130949432Y-117492734D01*
X131079954Y-117679141D01*
X131240858Y-117840045D01*
X131240861Y-117840047D01*
X131427266Y-117970568D01*
X131444847Y-117978766D01*
X131485275Y-117997618D01*
X131537714Y-118043791D01*
X131556866Y-118110984D01*
X131536650Y-118177865D01*
X131485275Y-118222382D01*
X131427267Y-118249431D01*
X131427265Y-118249432D01*
X131240858Y-118379954D01*
X131079954Y-118540858D01*
X130949432Y-118727265D01*
X130949431Y-118727267D01*
X130853261Y-118933502D01*
X130853258Y-118933511D01*
X130794366Y-119153302D01*
X130794364Y-119153313D01*
X130774532Y-119379998D01*
X130774532Y-119380001D01*
X130794364Y-119606686D01*
X130794366Y-119606697D01*
X130853258Y-119826488D01*
X130853261Y-119826497D01*
X130949431Y-120032732D01*
X130949432Y-120032734D01*
X131079954Y-120219141D01*
X131240858Y-120380045D01*
X131240861Y-120380047D01*
X131427266Y-120510568D01*
X131485275Y-120537618D01*
X131537714Y-120583791D01*
X131556866Y-120650984D01*
X131536650Y-120717865D01*
X131485275Y-120762382D01*
X131427267Y-120789431D01*
X131427265Y-120789432D01*
X131240858Y-120919954D01*
X131079954Y-121080858D01*
X130949432Y-121267265D01*
X130949431Y-121267267D01*
X130853261Y-121473502D01*
X130853258Y-121473511D01*
X130794366Y-121693302D01*
X130794364Y-121693312D01*
X130786711Y-121780790D01*
X130761258Y-121845859D01*
X130704667Y-121886837D01*
X130634905Y-121890715D01*
X130575502Y-121857663D01*
X126532701Y-117814862D01*
X122289278Y-113571438D01*
X122275951Y-113555683D01*
X122274057Y-113553023D01*
X122205378Y-113487538D01*
X122176678Y-113458837D01*
X122176676Y-113458835D01*
X122172279Y-113455205D01*
X122167933Y-113451616D01*
X122164627Y-113448682D01*
X122117116Y-113403381D01*
X122117112Y-113403377D01*
X122099441Y-113392020D01*
X122085915Y-113383327D01*
X122079958Y-113378977D01*
X122051354Y-113355361D01*
X122051354Y-113355360D01*
X121993720Y-113323889D01*
X121989919Y-113321634D01*
X121966637Y-113306672D01*
X121934683Y-113286136D01*
X121934677Y-113286134D01*
X121900249Y-113272350D01*
X121893576Y-113269206D01*
X121861029Y-113251435D01*
X121861027Y-113251434D01*
X121861023Y-113251432D01*
X121849520Y-113247754D01*
X121798476Y-113231436D01*
X121794312Y-113229940D01*
X121733362Y-113205540D01*
X121733363Y-113205540D01*
X121696939Y-113198519D01*
X121689789Y-113196694D01*
X121654466Y-113185402D01*
X121589269Y-113177607D01*
X121584896Y-113176925D01*
X121520428Y-113164500D01*
X121520427Y-113164500D01*
X121483338Y-113164500D01*
X121475971Y-113164061D01*
X121439146Y-113159658D01*
X121439145Y-113159658D01*
X121373651Y-113164342D01*
X121369230Y-113164500D01*
X117509647Y-113164500D01*
X117457238Y-113152880D01*
X117434721Y-113142379D01*
X117382283Y-113096204D01*
X117363134Y-113029010D01*
X117383353Y-112962130D01*
X117434721Y-112917619D01*
X117492734Y-112890568D01*
X117679139Y-112760047D01*
X117840047Y-112599139D01*
X117970568Y-112412734D01*
X118066739Y-112206496D01*
X118125635Y-111986692D01*
X118145468Y-111760000D01*
X118142132Y-111721875D01*
X118127978Y-111560091D01*
X118125635Y-111533308D01*
X118066739Y-111313504D01*
X117970568Y-111107266D01*
X117840047Y-110920861D01*
X117840045Y-110920858D01*
X117679141Y-110759954D01*
X117492734Y-110629432D01*
X117492728Y-110629429D01*
X117434725Y-110602382D01*
X117382285Y-110556210D01*
X117363133Y-110489017D01*
X117383348Y-110422135D01*
X117434725Y-110377618D01*
X117492734Y-110350568D01*
X117679139Y-110220047D01*
X117840047Y-110059139D01*
X117970568Y-109872734D01*
X118066739Y-109666496D01*
X118125635Y-109446692D01*
X118145468Y-109220000D01*
X118125635Y-108993308D01*
X118080916Y-108826415D01*
X118066741Y-108773511D01*
X118066738Y-108773502D01*
X118064979Y-108769730D01*
X117970568Y-108567266D01*
X117840047Y-108380861D01*
X117840045Y-108380858D01*
X117679141Y-108219954D01*
X117492735Y-108089433D01*
X117492736Y-108089433D01*
X117492734Y-108089432D01*
X117434722Y-108062380D01*
X117382284Y-108016208D01*
X117363133Y-107949014D01*
X117383349Y-107882133D01*
X117434721Y-107837619D01*
X117492734Y-107810568D01*
X117679139Y-107680047D01*
X117840047Y-107519139D01*
X117970568Y-107332734D01*
X118066739Y-107126496D01*
X118125635Y-106906692D01*
X118145468Y-106680000D01*
X118125635Y-106453308D01*
X118066739Y-106233504D01*
X117970568Y-106027266D01*
X117840047Y-105840861D01*
X117840045Y-105840858D01*
X117679141Y-105679954D01*
X117492734Y-105549432D01*
X117492728Y-105549429D01*
X117434725Y-105522382D01*
X117382285Y-105476210D01*
X117363133Y-105409017D01*
X117383348Y-105342135D01*
X117434725Y-105297618D01*
X117492734Y-105270568D01*
X117679139Y-105140047D01*
X117840047Y-104979139D01*
X117970568Y-104792734D01*
X118066739Y-104586496D01*
X118125635Y-104366692D01*
X118145468Y-104140000D01*
X118125635Y-103913308D01*
X118066739Y-103693504D01*
X117970568Y-103487266D01*
X117840047Y-103300861D01*
X117840045Y-103300858D01*
X117679141Y-103139954D01*
X117492734Y-103009432D01*
X117492728Y-103009429D01*
X117434725Y-102982382D01*
X117382285Y-102936210D01*
X117363133Y-102869017D01*
X117383348Y-102802135D01*
X117434725Y-102757618D01*
X117492734Y-102730568D01*
X117679139Y-102600047D01*
X117840047Y-102439139D01*
X117970568Y-102252734D01*
X118066739Y-102046496D01*
X118125635Y-101826692D01*
X118145468Y-101600000D01*
X118125635Y-101373308D01*
X118066739Y-101153504D01*
X117970568Y-100947266D01*
X117840047Y-100760861D01*
X117840045Y-100760858D01*
X117679141Y-100599954D01*
X117492734Y-100469432D01*
X117492728Y-100469429D01*
X117465038Y-100456517D01*
X117434724Y-100442381D01*
X117382285Y-100396210D01*
X117363133Y-100329017D01*
X117383348Y-100262135D01*
X117434725Y-100217618D01*
X117492734Y-100190568D01*
X117679139Y-100060047D01*
X117840047Y-99899139D01*
X117970568Y-99712734D01*
X118066739Y-99506496D01*
X118125635Y-99286692D01*
X118145468Y-99060000D01*
X118125635Y-98833308D01*
X118066739Y-98613504D01*
X117970568Y-98407266D01*
X117840047Y-98220861D01*
X117840045Y-98220858D01*
X117679141Y-98059954D01*
X117492734Y-97929432D01*
X117492728Y-97929429D01*
X117434725Y-97902382D01*
X117382285Y-97856210D01*
X117363133Y-97789017D01*
X117383348Y-97722135D01*
X117434725Y-97677618D01*
X117492734Y-97650568D01*
X117679139Y-97520047D01*
X117840047Y-97359139D01*
X117970568Y-97172734D01*
X118066739Y-96966496D01*
X118125635Y-96746692D01*
X118145468Y-96520000D01*
X118125635Y-96293308D01*
X118080916Y-96126415D01*
X118066741Y-96073511D01*
X118066738Y-96073502D01*
X117970568Y-95867266D01*
X117840047Y-95680861D01*
X117840045Y-95680858D01*
X117679141Y-95519954D01*
X117492734Y-95389432D01*
X117492732Y-95389431D01*
X117481275Y-95384088D01*
X117434132Y-95362105D01*
X117381694Y-95315934D01*
X117362542Y-95248740D01*
X117382758Y-95181859D01*
X117434134Y-95137341D01*
X117492484Y-95110132D01*
X117678820Y-94979657D01*
X117839657Y-94818820D01*
X117970134Y-94632482D01*
X118066265Y-94426326D01*
X118066269Y-94426317D01*
X118118872Y-94230000D01*
X117453347Y-94230000D01*
X117386308Y-94210315D01*
X117340553Y-94157511D01*
X117330609Y-94088353D01*
X117334369Y-94071067D01*
X117340000Y-94051888D01*
X117340000Y-93908111D01*
X117334369Y-93888933D01*
X117334370Y-93819064D01*
X117372145Y-93760286D01*
X117435701Y-93731262D01*
X117453347Y-93730000D01*
X118118872Y-93730000D01*
X118118872Y-93729999D01*
X118066269Y-93533682D01*
X118066265Y-93533673D01*
X117970134Y-93327517D01*
X117839657Y-93141179D01*
X117678820Y-92980342D01*
X117492482Y-92849865D01*
X117434133Y-92822657D01*
X117381694Y-92776484D01*
X117362542Y-92709291D01*
X117382758Y-92642410D01*
X117434129Y-92597895D01*
X117492734Y-92570568D01*
X117679139Y-92440047D01*
X117840047Y-92279139D01*
X117970568Y-92092734D01*
X118066739Y-91886496D01*
X118125635Y-91666692D01*
X118145468Y-91440000D01*
X118125635Y-91213308D01*
X118066739Y-90993504D01*
X117970568Y-90787266D01*
X117840047Y-90600861D01*
X117840045Y-90600858D01*
X117679141Y-90439954D01*
X117492734Y-90309432D01*
X117492728Y-90309429D01*
X117434725Y-90282382D01*
X117382285Y-90236210D01*
X117363133Y-90169017D01*
X117383348Y-90102135D01*
X117434725Y-90057618D01*
X117435319Y-90057341D01*
X117492734Y-90030568D01*
X117679139Y-89900047D01*
X117840047Y-89739139D01*
X117970568Y-89552734D01*
X118066739Y-89346496D01*
X118125635Y-89126692D01*
X118145468Y-88900000D01*
X118143267Y-88874848D01*
X118130844Y-88732846D01*
X118125635Y-88673308D01*
X118066739Y-88453504D01*
X117970568Y-88247266D01*
X117840047Y-88060861D01*
X117840045Y-88060858D01*
X117679143Y-87899956D01*
X117654536Y-87882726D01*
X117610912Y-87828149D01*
X117603719Y-87758650D01*
X117635241Y-87696296D01*
X117695471Y-87660882D01*
X117712404Y-87657861D01*
X117747483Y-87654091D01*
X117882331Y-87603796D01*
X117997546Y-87517546D01*
X118083796Y-87402331D01*
X118134091Y-87267483D01*
X118140500Y-87207873D01*
X118140499Y-85512128D01*
X118134091Y-85452517D01*
X118083796Y-85317669D01*
X118083795Y-85317668D01*
X118083793Y-85317664D01*
X117997547Y-85202455D01*
X117997544Y-85202452D01*
X117882335Y-85116206D01*
X117882328Y-85116202D01*
X117747482Y-85065908D01*
X117747483Y-85065908D01*
X117687883Y-85059501D01*
X117687881Y-85059500D01*
X117687873Y-85059500D01*
X117687864Y-85059500D01*
X115992129Y-85059500D01*
X115992123Y-85059501D01*
X115932516Y-85065908D01*
X115797671Y-85116202D01*
X115797664Y-85116206D01*
X115682455Y-85202452D01*
X115682452Y-85202455D01*
X115596206Y-85317664D01*
X115596202Y-85317671D01*
X115545908Y-85452517D01*
X115539501Y-85512116D01*
X115539501Y-85512123D01*
X115539500Y-85512135D01*
X115539500Y-87207870D01*
X115539501Y-87207876D01*
X115545908Y-87267483D01*
X115596202Y-87402328D01*
X115596206Y-87402335D01*
X115682452Y-87517544D01*
X115682455Y-87517547D01*
X115797664Y-87603793D01*
X115797671Y-87603797D01*
X115835752Y-87618000D01*
X115932517Y-87654091D01*
X115967596Y-87657862D01*
X116032144Y-87684599D01*
X116071993Y-87741991D01*
X116074488Y-87811816D01*
X116038836Y-87871905D01*
X116025464Y-87882725D01*
X116000858Y-87899954D01*
X115839954Y-88060858D01*
X115709432Y-88247265D01*
X115709431Y-88247267D01*
X115613261Y-88453502D01*
X115613258Y-88453511D01*
X115554366Y-88673302D01*
X115554364Y-88673313D01*
X115534532Y-88899998D01*
X115534532Y-88900001D01*
X115554364Y-89126686D01*
X115554366Y-89126697D01*
X115613258Y-89346488D01*
X115613261Y-89346497D01*
X115709431Y-89552732D01*
X115709432Y-89552734D01*
X115839954Y-89739141D01*
X116000858Y-89900045D01*
X116000861Y-89900047D01*
X116187266Y-90030568D01*
X116244681Y-90057341D01*
X116245275Y-90057618D01*
X116297714Y-90103791D01*
X116316866Y-90170984D01*
X116296650Y-90237865D01*
X116245275Y-90282382D01*
X116187267Y-90309431D01*
X116187265Y-90309432D01*
X116000858Y-90439954D01*
X115839954Y-90600858D01*
X115709432Y-90787265D01*
X115709431Y-90787267D01*
X115613261Y-90993502D01*
X115613258Y-90993511D01*
X115554366Y-91213302D01*
X115554364Y-91213313D01*
X115534532Y-91439998D01*
X115534532Y-91440001D01*
X115554364Y-91666686D01*
X115554366Y-91666697D01*
X115613258Y-91886488D01*
X115613261Y-91886497D01*
X115709431Y-92092732D01*
X115709432Y-92092734D01*
X115839954Y-92279141D01*
X116000858Y-92440045D01*
X116000861Y-92440047D01*
X116187266Y-92570568D01*
X116245865Y-92597893D01*
X116298305Y-92644065D01*
X116317457Y-92711258D01*
X116297242Y-92778139D01*
X116245867Y-92822657D01*
X116187515Y-92849867D01*
X116001179Y-92980342D01*
X115840342Y-93141179D01*
X115709865Y-93327517D01*
X115613734Y-93533673D01*
X115613730Y-93533682D01*
X115561127Y-93729999D01*
X115561128Y-93730000D01*
X116226653Y-93730000D01*
X116293692Y-93749685D01*
X116339447Y-93802489D01*
X116349391Y-93871647D01*
X116345631Y-93888933D01*
X116340000Y-93908111D01*
X116340000Y-94051888D01*
X116345631Y-94071067D01*
X116345630Y-94140936D01*
X116307855Y-94199714D01*
X116244299Y-94228738D01*
X116226653Y-94230000D01*
X115561128Y-94230000D01*
X115613730Y-94426317D01*
X115613734Y-94426326D01*
X115709865Y-94632482D01*
X115840342Y-94818820D01*
X116001179Y-94979657D01*
X116187518Y-95110134D01*
X116187520Y-95110135D01*
X116245865Y-95137342D01*
X116298305Y-95183514D01*
X116317457Y-95250707D01*
X116297242Y-95317589D01*
X116245867Y-95362105D01*
X116187268Y-95389431D01*
X116187264Y-95389433D01*
X116000858Y-95519954D01*
X115839954Y-95680858D01*
X115709432Y-95867265D01*
X115709431Y-95867267D01*
X115613261Y-96073502D01*
X115613258Y-96073511D01*
X115554366Y-96293302D01*
X115554364Y-96293313D01*
X115534532Y-96519998D01*
X115534532Y-96520001D01*
X115554364Y-96746686D01*
X115554366Y-96746697D01*
X115613258Y-96966488D01*
X115613261Y-96966497D01*
X115709431Y-97172732D01*
X115709432Y-97172734D01*
X115839954Y-97359141D01*
X116000858Y-97520045D01*
X116000861Y-97520047D01*
X116187266Y-97650568D01*
X116245275Y-97677618D01*
X116297714Y-97723791D01*
X116316866Y-97790984D01*
X116296650Y-97857865D01*
X116245275Y-97902382D01*
X116187267Y-97929431D01*
X116187265Y-97929432D01*
X116000858Y-98059954D01*
X115839954Y-98220858D01*
X115709432Y-98407265D01*
X115709431Y-98407267D01*
X115613261Y-98613502D01*
X115613258Y-98613511D01*
X115554366Y-98833302D01*
X115554364Y-98833313D01*
X115534532Y-99059998D01*
X115534532Y-99060001D01*
X115554364Y-99286686D01*
X115554366Y-99286697D01*
X115613258Y-99506488D01*
X115613261Y-99506497D01*
X115709431Y-99712732D01*
X115709432Y-99712734D01*
X115839954Y-99899141D01*
X116000858Y-100060045D01*
X116000861Y-100060047D01*
X116187266Y-100190568D01*
X116245275Y-100217618D01*
X116297714Y-100263791D01*
X116316866Y-100330984D01*
X116296650Y-100397865D01*
X116245275Y-100442382D01*
X116187267Y-100469431D01*
X116187265Y-100469432D01*
X116000858Y-100599954D01*
X115839954Y-100760858D01*
X115709432Y-100947265D01*
X115709431Y-100947267D01*
X115613261Y-101153502D01*
X115613258Y-101153511D01*
X115554366Y-101373302D01*
X115554364Y-101373313D01*
X115534532Y-101599998D01*
X115534532Y-101600001D01*
X115554364Y-101826686D01*
X115554366Y-101826697D01*
X115613258Y-102046488D01*
X115613261Y-102046497D01*
X115709431Y-102252732D01*
X115709432Y-102252734D01*
X115839954Y-102439141D01*
X116000858Y-102600045D01*
X116000861Y-102600047D01*
X116187266Y-102730568D01*
X116245275Y-102757618D01*
X116297714Y-102803791D01*
X116316866Y-102870984D01*
X116296650Y-102937865D01*
X116245275Y-102982382D01*
X116187267Y-103009431D01*
X116187265Y-103009432D01*
X116000858Y-103139954D01*
X115839954Y-103300858D01*
X115709432Y-103487265D01*
X115709431Y-103487267D01*
X115613261Y-103693502D01*
X115613258Y-103693511D01*
X115554366Y-103913302D01*
X115554364Y-103913313D01*
X115534532Y-104139998D01*
X115534532Y-104140001D01*
X115554364Y-104366686D01*
X115554366Y-104366697D01*
X115613258Y-104586488D01*
X115613261Y-104586497D01*
X115709431Y-104792732D01*
X115709432Y-104792734D01*
X115839954Y-104979141D01*
X116000858Y-105140045D01*
X116000861Y-105140047D01*
X116187266Y-105270568D01*
X116245275Y-105297618D01*
X116297714Y-105343791D01*
X116316866Y-105410984D01*
X116296650Y-105477865D01*
X116245275Y-105522382D01*
X116187267Y-105549431D01*
X116187265Y-105549432D01*
X116000858Y-105679954D01*
X115839954Y-105840858D01*
X115709432Y-106027265D01*
X115709431Y-106027267D01*
X115613261Y-106233502D01*
X115613258Y-106233511D01*
X115554366Y-106453302D01*
X115554364Y-106453313D01*
X115534532Y-106679998D01*
X115534532Y-106680001D01*
X115554364Y-106906686D01*
X115554366Y-106906697D01*
X115613258Y-107126488D01*
X115613261Y-107126497D01*
X115709431Y-107332732D01*
X115709432Y-107332734D01*
X115839954Y-107519141D01*
X116000858Y-107680045D01*
X116000861Y-107680047D01*
X116187266Y-107810568D01*
X116245278Y-107837619D01*
X116297713Y-107883788D01*
X116316866Y-107950982D01*
X116296651Y-108017863D01*
X116245277Y-108062380D01*
X116187268Y-108089430D01*
X116187265Y-108089432D01*
X116000858Y-108219954D01*
X115839954Y-108380858D01*
X115709432Y-108567265D01*
X115709431Y-108567267D01*
X115613261Y-108773502D01*
X115613258Y-108773511D01*
X115554366Y-108993302D01*
X115554364Y-108993313D01*
X115534532Y-109219998D01*
X115534532Y-109220001D01*
X115554364Y-109446686D01*
X115554366Y-109446697D01*
X115613258Y-109666488D01*
X115613261Y-109666497D01*
X115709431Y-109872732D01*
X115709432Y-109872734D01*
X115839954Y-110059141D01*
X116000858Y-110220045D01*
X116022483Y-110235187D01*
X116187266Y-110350568D01*
X116245275Y-110377618D01*
X116297714Y-110423791D01*
X116316866Y-110490984D01*
X116296650Y-110557865D01*
X116245275Y-110602382D01*
X116187267Y-110629431D01*
X116187265Y-110629432D01*
X116000858Y-110759954D01*
X115839954Y-110920858D01*
X115709432Y-111107265D01*
X115709431Y-111107267D01*
X115613261Y-111313502D01*
X115613258Y-111313511D01*
X115554366Y-111533302D01*
X115554364Y-111533313D01*
X115534532Y-111759998D01*
X115534532Y-111760001D01*
X115554364Y-111986686D01*
X115554366Y-111986697D01*
X115613258Y-112206488D01*
X115613261Y-112206497D01*
X115709431Y-112412732D01*
X115709432Y-112412734D01*
X115839954Y-112599141D01*
X116000858Y-112760045D01*
X116000861Y-112760047D01*
X116187266Y-112890568D01*
X116245275Y-112917618D01*
X116297714Y-112963791D01*
X116316866Y-113030984D01*
X116296650Y-113097865D01*
X116245275Y-113142382D01*
X116187267Y-113169431D01*
X116187265Y-113169432D01*
X116000858Y-113299954D01*
X115839954Y-113460858D01*
X115709432Y-113647265D01*
X115709431Y-113647267D01*
X115613261Y-113853502D01*
X115613258Y-113853511D01*
X115554366Y-114073302D01*
X115554364Y-114073313D01*
X115534532Y-114299998D01*
X115534532Y-114300001D01*
X115554364Y-114526686D01*
X115554366Y-114526697D01*
X115613258Y-114746488D01*
X115613261Y-114746497D01*
X115709431Y-114952732D01*
X115709432Y-114952734D01*
X115839954Y-115139141D01*
X116000858Y-115300045D01*
X116000861Y-115300047D01*
X116187266Y-115430568D01*
X116240057Y-115455185D01*
X116245275Y-115457618D01*
X116297714Y-115503791D01*
X116316866Y-115570984D01*
X116296650Y-115637865D01*
X116245275Y-115682382D01*
X116187267Y-115709431D01*
X116187265Y-115709432D01*
X116000858Y-115839954D01*
X115839954Y-116000858D01*
X115709432Y-116187265D01*
X115709431Y-116187267D01*
X115613261Y-116393502D01*
X115613258Y-116393511D01*
X115554366Y-116613302D01*
X115554364Y-116613313D01*
X115534532Y-116839998D01*
X115534532Y-116840001D01*
X115554364Y-117066686D01*
X115554366Y-117066697D01*
X115613258Y-117286488D01*
X115613261Y-117286497D01*
X115709431Y-117492732D01*
X115709432Y-117492734D01*
X115839954Y-117679141D01*
X116000858Y-117840045D01*
X116000861Y-117840047D01*
X116187266Y-117970568D01*
X116204847Y-117978766D01*
X116245275Y-117997618D01*
X116297714Y-118043791D01*
X116316866Y-118110984D01*
X116296650Y-118177865D01*
X116245275Y-118222382D01*
X116187267Y-118249431D01*
X116187265Y-118249432D01*
X116000858Y-118379954D01*
X115839954Y-118540858D01*
X115709432Y-118727265D01*
X115709431Y-118727267D01*
X115613261Y-118933502D01*
X115613258Y-118933511D01*
X115554366Y-119153302D01*
X115554364Y-119153313D01*
X115534532Y-119379998D01*
X115534532Y-119380001D01*
X115554364Y-119606686D01*
X115554366Y-119606697D01*
X115613258Y-119826488D01*
X115613261Y-119826497D01*
X115709431Y-120032732D01*
X115709432Y-120032734D01*
X115839954Y-120219141D01*
X116000858Y-120380045D01*
X116000861Y-120380047D01*
X116187266Y-120510568D01*
X116245275Y-120537618D01*
X116297714Y-120583791D01*
X116316866Y-120650984D01*
X116296650Y-120717865D01*
X116245275Y-120762382D01*
X116187267Y-120789431D01*
X116187265Y-120789432D01*
X116000858Y-120919954D01*
X115839954Y-121080858D01*
X115709432Y-121267265D01*
X115709431Y-121267267D01*
X115613261Y-121473502D01*
X115613258Y-121473511D01*
X115554366Y-121693302D01*
X115554364Y-121693313D01*
X115534532Y-121919998D01*
X115534532Y-121920001D01*
X115000500Y-121920001D01*
X115000500Y-62069594D01*
X118095686Y-62069594D01*
X118126114Y-62346125D01*
X118196478Y-62615272D01*
X118294368Y-62845628D01*
X118305284Y-62871314D01*
X118400851Y-63027906D01*
X118450205Y-63108776D01*
X118450212Y-63108786D01*
X118628161Y-63322616D01*
X118628167Y-63322621D01*
X118777691Y-63456594D01*
X118835357Y-63508263D01*
X119067373Y-63661763D01*
X119319267Y-63779846D01*
X119319274Y-63779848D01*
X119319276Y-63779849D01*
X119585657Y-63859992D01*
X119585664Y-63859993D01*
X119585669Y-63859995D01*
X119860901Y-63900500D01*
X119860906Y-63900500D01*
X120069469Y-63900500D01*
X120129862Y-63896079D01*
X120277455Y-63885277D01*
X120548997Y-63824788D01*
X120808838Y-63725408D01*
X121051440Y-63589253D01*
X121271632Y-63419226D01*
X121464722Y-63218951D01*
X121626593Y-62992696D01*
X121733478Y-62784804D01*
X121753790Y-62745298D01*
X121753794Y-62745288D01*
X121753797Y-62745283D01*
X121843621Y-62481986D01*
X121894152Y-62208416D01*
X121899226Y-62069594D01*
X156255686Y-62069594D01*
X156286114Y-62346125D01*
X156356478Y-62615272D01*
X156454368Y-62845628D01*
X156465284Y-62871314D01*
X156560851Y-63027906D01*
X156610205Y-63108776D01*
X156610212Y-63108786D01*
X156788161Y-63322616D01*
X156788167Y-63322621D01*
X156937691Y-63456594D01*
X156995357Y-63508263D01*
X157227373Y-63661763D01*
X157479267Y-63779846D01*
X157479274Y-63779848D01*
X157479276Y-63779849D01*
X157745657Y-63859992D01*
X157745664Y-63859993D01*
X157745669Y-63859995D01*
X158020901Y-63900500D01*
X158020906Y-63900500D01*
X158229469Y-63900500D01*
X158289862Y-63896079D01*
X158437455Y-63885277D01*
X158708997Y-63824788D01*
X158968838Y-63725408D01*
X159211440Y-63589253D01*
X159431632Y-63419226D01*
X159624722Y-63218951D01*
X159786593Y-62992696D01*
X159893478Y-62784804D01*
X159913790Y-62745298D01*
X159913794Y-62745288D01*
X159913797Y-62745283D01*
X160003621Y-62481986D01*
X160054152Y-62208416D01*
X160064313Y-61930404D01*
X160033886Y-61653876D01*
X159963520Y-61384724D01*
X159854716Y-61128686D01*
X159709792Y-60891219D01*
X159618112Y-60781053D01*
X159531838Y-60677383D01*
X159531832Y-60677378D01*
X159324643Y-60491737D01*
X159092629Y-60338238D01*
X159092627Y-60338237D01*
X158840733Y-60220154D01*
X158840728Y-60220152D01*
X158840723Y-60220150D01*
X158574342Y-60140007D01*
X158574328Y-60140004D01*
X158455565Y-60122526D01*
X158299099Y-60099500D01*
X158090537Y-60099500D01*
X158090531Y-60099500D01*
X157882545Y-60114723D01*
X157882535Y-60114724D01*
X157611007Y-60175210D01*
X157610997Y-60175213D01*
X157351161Y-60274592D01*
X157108561Y-60410746D01*
X157108556Y-60410749D01*
X156888369Y-60580772D01*
X156888359Y-60580781D01*
X156695281Y-60781045D01*
X156695274Y-60781053D01*
X156533412Y-61007295D01*
X156533405Y-61007307D01*
X156406209Y-61254701D01*
X156406205Y-61254711D01*
X156316379Y-61518012D01*
X156316378Y-61518018D01*
X156265848Y-61791584D01*
X156265847Y-61791591D01*
X156255686Y-62069594D01*
X121899226Y-62069594D01*
X121904313Y-61930404D01*
X121873886Y-61653876D01*
X121803520Y-61384724D01*
X121694716Y-61128686D01*
X121549792Y-60891219D01*
X121458112Y-60781053D01*
X121371838Y-60677383D01*
X121371832Y-60677378D01*
X121164643Y-60491737D01*
X120932629Y-60338238D01*
X120932627Y-60338237D01*
X120680733Y-60220154D01*
X120680728Y-60220152D01*
X120680723Y-60220150D01*
X120414342Y-60140007D01*
X120414328Y-60140004D01*
X120295565Y-60122526D01*
X120139099Y-60099500D01*
X119930537Y-60099500D01*
X119930531Y-60099500D01*
X119722545Y-60114723D01*
X119722535Y-60114724D01*
X119451007Y-60175210D01*
X119450997Y-60175213D01*
X119191161Y-60274592D01*
X118948561Y-60410746D01*
X118948556Y-60410749D01*
X118728369Y-60580772D01*
X118728359Y-60580781D01*
X118535281Y-60781045D01*
X118535274Y-60781053D01*
X118373412Y-61007295D01*
X118373405Y-61007307D01*
X118246209Y-61254701D01*
X118246205Y-61254711D01*
X118156379Y-61518012D01*
X118156378Y-61518018D01*
X118105848Y-61791584D01*
X118105847Y-61791591D01*
X118095686Y-62069594D01*
X115000500Y-62069594D01*
X115000500Y-57124500D01*
X115020185Y-57057461D01*
X115072989Y-57011706D01*
X115124500Y-57000500D01*
X162875500Y-57000500D01*
X162942539Y-57020185D01*
G37*
%TD.AperFunction*%
%TD*%
M02*
