M48
; DRILL file {KiCad 7.0.7} date 2024 January 02, Tuesday 15:01:05
; FORMAT={-:-/ absolute / metric / decimal}
; #@! TF.CreationDate,2024-01-02T15:01:05+01:00
; #@! TF.GenerationSoftware,Kicad,Pcbnew,7.0.7
; #@! TF.FileFunction,Plated,1,2,PTH
FMAT,2
METRIC
; #@! TA.AperFunction,Plated,PTH,ViaDrill
T1C0.400
; #@! TA.AperFunction,Plated,PTH,ComponentDrill
T2C0.800
; #@! TA.AperFunction,Plated,PTH,ComponentDrill
T3C1.000
; #@! TA.AperFunction,Plated,PTH,ComponentDrill
T4C1.020
; #@! TA.AperFunction,Plated,PTH,ComponentDrill
T5C1.300
; #@! TA.AperFunction,Plated,PTH,ComponentDrill
T6C1.520
%
G90
G05
T1
X135.382Y-89.662
X135.382Y-104.902
X135.382Y-111.506
T2
X120.607Y-77.47
X128.227Y-77.47
X142.28Y-109.996
X144.78Y-109.996
T3
X116.84Y-86.36
X116.84Y-88.9
X116.84Y-91.44
X116.84Y-93.98
X116.84Y-96.52
X116.84Y-99.06
X116.84Y-101.6
X116.84Y-104.14
X116.84Y-106.68
X116.84Y-109.22
X116.84Y-111.76
X116.84Y-114.3
X116.84Y-116.84
X116.84Y-119.38
X116.84Y-121.92
X132.08Y-86.36
X132.08Y-88.9
X132.08Y-91.44
X132.08Y-93.98
X132.08Y-96.52
X132.08Y-99.06
X132.08Y-101.6
X132.08Y-104.14
X132.08Y-106.68
X132.08Y-109.22
X132.08Y-111.76
X132.08Y-114.3
X132.08Y-116.84
X132.08Y-119.38
X132.08Y-121.92
T4
X157.18Y-67.564
X157.18Y-70.104
X157.18Y-72.644
X157.18Y-75.184
X157.18Y-80.508
X157.18Y-83.048
X157.18Y-85.588
X157.18Y-88.128
X157.18Y-93.06
X157.18Y-95.6
X157.18Y-98.14
X157.18Y-100.68
X157.18Y-105.76
X157.18Y-108.3
X157.18Y-110.84
X157.18Y-113.38
X157.18Y-118.46
X157.18Y-121.0
X157.18Y-123.54
X157.18Y-126.08
T5
X138.51Y-117.856
X143.51Y-117.856
X148.51Y-117.856
T6
X135.89Y-64.77
X140.97Y-64.77
T0
M30
