%TF.GenerationSoftware,KiCad,Pcbnew,7.0.7*%
%TF.CreationDate,2024-01-02T15:01:12+01:00*%
%TF.ProjectId,fan-control,66616e2d-636f-46e7-9472-6f6c2e6b6963,rev?*%
%TF.SameCoordinates,Original*%
%TF.FileFunction,Soldermask,Bot*%
%TF.FilePolarity,Negative*%
%FSLAX46Y46*%
G04 Gerber Fmt 4.6, Leading zero omitted, Abs format (unit mm)*
G04 Created by KiCad (PCBNEW 7.0.7) date 2024-01-02 15:01:12*
%MOMM*%
%LPD*%
G01*
G04 APERTURE LIST*
%ADD10C,3.200000*%
%ADD11R,1.600000X1.600000*%
%ADD12O,1.600000X1.600000*%
%ADD13R,3.000000X3.000000*%
%ADD14C,3.000000*%
%ADD15C,2.340000*%
%ADD16C,1.100000*%
%ADD17R,2.030000X1.730000*%
%ADD18O,2.030000X1.730000*%
%ADD19C,1.600000*%
G04 APERTURE END LIST*
D10*
%TO.C,H2*%
X158160000Y-62000000D03*
%TD*%
D11*
%TO.C,SW1*%
X128227500Y-77470000D03*
D12*
X120607500Y-77470000D03*
%TD*%
D10*
%TO.C,H4*%
X120000000Y-132000000D03*
%TD*%
%TO.C,H1*%
X120000000Y-62000000D03*
%TD*%
D13*
%TO.C,J6*%
X140970000Y-64770000D03*
D14*
X135890000Y-64770000D03*
%TD*%
D10*
%TO.C,H3*%
X158160000Y-132000000D03*
%TD*%
D15*
%TO.C,RV1*%
X138510000Y-117856000D03*
X143510000Y-117856000D03*
X148510000Y-117856000D03*
%TD*%
D11*
%TO.C,A1*%
X116840000Y-86360000D03*
D12*
X116840000Y-88900000D03*
X116840000Y-91440000D03*
X116840000Y-93980000D03*
X116840000Y-96520000D03*
X116840000Y-99060000D03*
X116840000Y-101600000D03*
X116840000Y-104140000D03*
X116840000Y-106680000D03*
X116840000Y-109220000D03*
X116840000Y-111760000D03*
X116840000Y-114300000D03*
X116840000Y-116840000D03*
X116840000Y-119380000D03*
X116840000Y-121920000D03*
X132080000Y-121920000D03*
X132080000Y-119380000D03*
X132080000Y-116840000D03*
X132080000Y-114300000D03*
X132080000Y-111760000D03*
X132080000Y-109220000D03*
X132080000Y-106680000D03*
X132080000Y-104140000D03*
X132080000Y-101600000D03*
X132080000Y-99060000D03*
X132080000Y-96520000D03*
X132080000Y-93980000D03*
X132080000Y-91440000D03*
X132080000Y-88900000D03*
X132080000Y-86360000D03*
%TD*%
D16*
%TO.C,J2*%
X155020000Y-108300000D03*
D17*
X157180000Y-113380000D03*
D18*
X157180000Y-110840000D03*
X157180000Y-108300000D03*
X157180000Y-105760000D03*
%TD*%
D11*
%TO.C,C1*%
X142280000Y-109996000D03*
D19*
X144780000Y-109996000D03*
%TD*%
D16*
%TO.C,J4*%
X155020000Y-83048000D03*
D17*
X157180000Y-88128000D03*
D18*
X157180000Y-85588000D03*
X157180000Y-83048000D03*
X157180000Y-80508000D03*
%TD*%
D16*
%TO.C,J5*%
X155020000Y-70104000D03*
D17*
X157180000Y-75184000D03*
D18*
X157180000Y-72644000D03*
X157180000Y-70104000D03*
X157180000Y-67564000D03*
%TD*%
D16*
%TO.C,J1*%
X155020000Y-121000000D03*
D17*
X157180000Y-126080000D03*
D18*
X157180000Y-123540000D03*
X157180000Y-121000000D03*
X157180000Y-118460000D03*
%TD*%
D16*
%TO.C,J3*%
X155020000Y-95600000D03*
D17*
X157180000Y-100680000D03*
D18*
X157180000Y-98140000D03*
X157180000Y-95600000D03*
X157180000Y-93060000D03*
%TD*%
M02*
