M48
; DRILL file {KiCad 7.0.7} date 2024 January 02, Tuesday 14:59:49
; FORMAT={-:-/ absolute / metric / decimal}
; #@! TF.CreationDate,2024-01-02T14:59:49+01:00
; #@! TF.GenerationSoftware,Kicad,Pcbnew,7.0.7
; #@! TF.FileFunction,Plated,1,2,PTH
FMAT,2
METRIC
; #@! TA.AperFunction,Plated,PTH,ViaDrill
T1C0.400
; #@! TA.AperFunction,Plated,PTH,ComponentDrill
T2C0.800
; #@! TA.AperFunction,Plated,PTH,ComponentDrill
T3C1.000
%
G90
G05
T1
X56.037Y-102.078
X59.055Y-103.632
X59.055Y-108.077
X63.627Y-113.538
X67.564Y-115.729
X69.056Y-115.729
X70.319Y-115.736
X86.487Y-79.248
X86.487Y-84.582
X86.487Y-102.616
X86.487Y-106.426
X87.63Y-119.507
X100.457Y-102.616
X100.457Y-108.839
X106.87Y-99.377
X109.442Y-112.3
X110.553Y-103.06
X111.103Y-113.121
X111.125Y-95.123
X112.014Y-122.174
X114.808Y-122.174
X136.144Y-88.9
X136.652Y-89.916
T2
X97.07Y-76.004
X104.691Y-76.004
X111.506Y-75.946
X119.126Y-75.946
X125.73Y-75.946
X133.35Y-75.946
X140.165Y-75.888
X147.785Y-75.888
T3
X43.18Y-75.188
X43.18Y-77.728
X43.18Y-80.268
X43.18Y-82.808
X43.18Y-85.348
X43.18Y-87.888
X43.18Y-90.428
X43.18Y-92.968
X43.18Y-95.508
X43.18Y-98.048
X43.18Y-102.108
X43.18Y-104.648
X43.18Y-107.188
X43.18Y-109.728
X43.18Y-112.268
X43.18Y-114.808
X43.18Y-117.348
X43.18Y-119.888
X91.44Y-84.328
X91.44Y-86.868
X91.44Y-89.408
X91.44Y-91.948
X91.44Y-94.488
X91.44Y-97.028
X91.44Y-99.568
X91.44Y-102.108
X91.44Y-107.188
X91.44Y-109.728
X91.44Y-112.268
X91.44Y-114.808
X91.44Y-117.348
X91.44Y-119.888
X96.85Y-115.9
X96.85Y-118.44
X99.39Y-115.9
X99.39Y-118.44
X101.93Y-115.9
X101.93Y-118.44
X104.47Y-115.9
X104.47Y-118.44
X107.01Y-115.9
X107.01Y-118.44
X109.55Y-115.9
X109.55Y-118.44
X112.09Y-115.9
X112.09Y-118.44
X114.63Y-115.9
X114.63Y-118.44
X117.17Y-115.9
X117.17Y-118.44
X119.71Y-115.9
X119.71Y-118.44
X122.25Y-115.9
X122.25Y-118.44
X124.79Y-115.9
X124.79Y-118.44
X127.33Y-115.9
X127.33Y-118.44
X129.87Y-115.9
X129.87Y-118.44
X132.41Y-115.9
X132.41Y-118.44
T0
M30
