%TF.GenerationSoftware,KiCad,Pcbnew,7.0.7*%
%TF.CreationDate,2024-01-02T14:59:55+01:00*%
%TF.ProjectId,arduino-uno-connector,61726475-696e-46f2-9d75-6e6f2d636f6e,rev?*%
%TF.SameCoordinates,Original*%
%TF.FileFunction,Copper,L1,Top*%
%TF.FilePolarity,Positive*%
%FSLAX46Y46*%
G04 Gerber Fmt 4.6, Leading zero omitted, Abs format (unit mm)*
G04 Created by KiCad (PCBNEW 7.0.7) date 2024-01-02 14:59:55*
%MOMM*%
%LPD*%
G01*
G04 APERTURE LIST*
%TA.AperFunction,ComponentPad*%
%ADD10R,1.600000X1.600000*%
%TD*%
%TA.AperFunction,ComponentPad*%
%ADD11O,1.600000X1.600000*%
%TD*%
%TA.AperFunction,ComponentPad*%
%ADD12R,1.700000X1.700000*%
%TD*%
%TA.AperFunction,ComponentPad*%
%ADD13O,1.700000X1.700000*%
%TD*%
%TA.AperFunction,ViaPad*%
%ADD14C,0.800000*%
%TD*%
%TA.AperFunction,Conductor*%
%ADD15C,0.400000*%
%TD*%
%TA.AperFunction,Conductor*%
%ADD16C,1.270000*%
%TD*%
G04 APERTURE END LIST*
D10*
%TO.P,SW4,1,A*%
%TO.N,STP_B*%
X140165500Y-75888000D03*
D11*
%TO.P,SW4,2,B*%
%TO.N,STP_C*%
X147785500Y-75888000D03*
%TD*%
D10*
%TO.P,SW1,1,A*%
%TO.N,5V_Controller*%
X97070500Y-76004000D03*
D11*
%TO.P,SW1,2,B*%
%TO.N,5V*%
X104690500Y-76004000D03*
%TD*%
D10*
%TO.P,SW2,1,A*%
%TO.N,3V3_Controller*%
X111506000Y-75946000D03*
D11*
%TO.P,SW2,2,B*%
%TO.N,3V3*%
X119126000Y-75946000D03*
%TD*%
D12*
%TO.P,J1,1,Pin_1*%
%TO.N,ENDSTOP_Z+*%
X132410000Y-115900000D03*
D13*
%TO.P,J1,2,Pin_2*%
%TO.N,DIR_E*%
X132410000Y-118440000D03*
%TO.P,J1,3,Pin_3*%
%TO.N,ENDSTOP_Z-*%
X129870000Y-115900000D03*
%TO.P,J1,4,Pin_4*%
%TO.N,STP_E*%
X129870000Y-118440000D03*
%TO.P,J1,5,Pin_5*%
%TO.N,ENDSTOP_Y+*%
X127330000Y-115900000D03*
%TO.P,J1,6,Pin_6*%
%TO.N,DIR_D*%
X127330000Y-118440000D03*
%TO.P,J1,7,Pin_7*%
%TO.N,ENDSTOP_Y-*%
X124790000Y-115900000D03*
%TO.P,J1,8,Pin_8*%
%TO.N,STP_D*%
X124790000Y-118440000D03*
%TO.P,J1,9,Pin_9*%
%TO.N,ENDSTOP_X+*%
X122250000Y-115900000D03*
%TO.P,J1,10,Pin_10*%
%TO.N,DIR_C*%
X122250000Y-118440000D03*
%TO.P,J1,11,Pin_11*%
%TO.N,ENDSTOP_X-*%
X119710000Y-115900000D03*
%TO.P,J1,12,Pin_12*%
%TO.N,STP_C*%
X119710000Y-118440000D03*
%TO.P,J1,13,Pin_13*%
%TO.N,RESUME*%
X117170000Y-115900000D03*
%TO.P,J1,14,Pin_14*%
%TO.N,DIR_B*%
X117170000Y-118440000D03*
%TO.P,J1,15,Pin_15*%
%TO.N,HOLD*%
X114630000Y-115900000D03*
%TO.P,J1,16,Pin_16*%
%TO.N,STP_B*%
X114630000Y-118440000D03*
%TO.P,J1,17,Pin_17*%
%TO.N,ABORT*%
X112090000Y-115900000D03*
%TO.P,J1,18,Pin_18*%
%TO.N,DIR_A*%
X112090000Y-118440000D03*
%TO.P,J1,19,Pin_19*%
%TO.N,RST*%
X109550000Y-115900000D03*
%TO.P,J1,20,Pin_20*%
%TO.N,STP_A*%
X109550000Y-118440000D03*
%TO.P,J1,21,Pin_21*%
%TO.N,GND*%
X107010000Y-115900000D03*
%TO.P,J1,22,Pin_22*%
%TO.N,EN*%
X107010000Y-118440000D03*
%TO.P,J1,23,Pin_23*%
%TO.N,GND*%
X104470000Y-115900000D03*
%TO.P,J1,24,Pin_24*%
%TO.N,EN_COOLANT*%
X104470000Y-118440000D03*
%TO.P,J1,25,Pin_25*%
%TO.N,GND*%
X101930000Y-115900000D03*
%TO.P,J1,26,Pin_26*%
%TO.N,3V3*%
X101930000Y-118440000D03*
%TO.P,J1,27,Pin_27*%
%TO.N,GND*%
X99390000Y-115900000D03*
%TO.P,J1,28,Pin_28*%
%TO.N,5V*%
X99390000Y-118440000D03*
%TO.P,J1,29,Pin_29*%
%TO.N,GND*%
X96850000Y-115900000D03*
%TO.P,J1,30,Pin_30*%
%TO.N,V_EXT*%
X96850000Y-118440000D03*
%TD*%
D10*
%TO.P,SW3,1,A*%
%TO.N,DIR_B*%
X125730000Y-75946000D03*
D11*
%TO.P,SW3,2,B*%
%TO.N,DIR_C*%
X133350000Y-75946000D03*
%TD*%
D10*
%TO.P,A1,1,NC*%
%TO.N,unconnected-(A1-NC-Pad1)*%
X91440000Y-84328000D03*
D11*
%TO.P,A1,2,IOREF*%
%TO.N,unconnected-(A1-IOREF-Pad2)*%
X91440000Y-86868000D03*
%TO.P,A1,3,~{RESET}*%
%TO.N,RST*%
X91440000Y-89408000D03*
%TO.P,A1,4,3V3*%
%TO.N,3V3_Controller*%
X91440000Y-91948000D03*
%TO.P,A1,5,+5V*%
%TO.N,5V_Controller*%
X91440000Y-94488000D03*
%TO.P,A1,6,GND*%
%TO.N,GND*%
X91440000Y-97028000D03*
%TO.P,A1,7,GND*%
X91440000Y-99568000D03*
%TO.P,A1,8,VIN*%
%TO.N,unconnected-(A1-VIN-Pad8)*%
X91440000Y-102108000D03*
%TO.P,A1,9,A0*%
%TO.N,ABORT*%
X91440000Y-107188000D03*
%TO.P,A1,10,A1*%
%TO.N,HOLD*%
X91440000Y-109728000D03*
%TO.P,A1,11,A2*%
%TO.N,RESUME*%
X91440000Y-112268000D03*
%TO.P,A1,12,A3*%
%TO.N,EN_COOLANT*%
X91440000Y-114808000D03*
%TO.P,A1,13,SDA/A4*%
%TO.N,unconnected-(A1-SDA{slash}A4-Pad13)*%
X91440000Y-117348000D03*
%TO.P,A1,14,SCL/A5*%
%TO.N,unconnected-(A1-SCL{slash}A5-Pad14)*%
X91440000Y-119888000D03*
%TO.P,A1,15,D0/RX*%
%TO.N,unconnected-(A1-D0{slash}RX-Pad15)*%
X43180000Y-119888000D03*
%TO.P,A1,16,D1/TX*%
%TO.N,unconnected-(A1-D1{slash}TX-Pad16)*%
X43180000Y-117348000D03*
%TO.P,A1,17,D2*%
%TO.N,STP_A*%
X43180000Y-114808000D03*
%TO.P,A1,18,D3*%
%TO.N,STP_B*%
X43180000Y-112268000D03*
%TO.P,A1,19,D4*%
%TO.N,STP_D*%
X43180000Y-109728000D03*
%TO.P,A1,20,D5*%
%TO.N,DIR_A*%
X43180000Y-107188000D03*
%TO.P,A1,21,D6*%
%TO.N,DIR_B*%
X43180000Y-104648000D03*
%TO.P,A1,22,D7*%
%TO.N,DIR_D*%
X43180000Y-102108000D03*
%TO.P,A1,23,D8*%
%TO.N,EN*%
X43180000Y-98048000D03*
%TO.P,A1,24,D9*%
%TO.N,ENDSTOP_X-*%
X43180000Y-95508000D03*
%TO.P,A1,25,D10*%
%TO.N,ENDSTOP_Y-*%
X43180000Y-92968000D03*
%TO.P,A1,26,D11*%
%TO.N,STP_E*%
X43180000Y-90428000D03*
%TO.P,A1,27,D12*%
%TO.N,ENDSTOP_Z-*%
X43180000Y-87888000D03*
%TO.P,A1,28,D13*%
%TO.N,DIR_E*%
X43180000Y-85348000D03*
%TO.P,A1,29,GND*%
%TO.N,GND*%
X43180000Y-82808000D03*
%TO.P,A1,30,AREF*%
%TO.N,unconnected-(A1-AREF-Pad30)*%
X43180000Y-80268000D03*
%TO.P,A1,31,SDA/A4*%
%TO.N,unconnected-(A1-SDA{slash}A4-Pad31)*%
X43180000Y-77728000D03*
%TO.P,A1,32,SCL/A5*%
%TO.N,unconnected-(A1-SCL{slash}A5-Pad32)*%
X43180000Y-75188000D03*
%TD*%
D14*
%TO.N,5V*%
X87630000Y-119507000D03*
X86487000Y-79248000D03*
X86487000Y-84582000D03*
X110553500Y-103060500D03*
X106870500Y-99377500D03*
X111125000Y-95123000D03*
%TO.N,HOLD*%
X111103182Y-113121500D03*
%TO.N,RESUME*%
X109441984Y-112300016D03*
%TO.N,GND*%
X100457000Y-102616000D03*
X100457000Y-108839000D03*
X86487000Y-102616000D03*
X86487000Y-106426000D03*
%TO.N,DIR_D*%
X56037016Y-102077984D03*
%TO.N,STP_D*%
X59055000Y-108077000D03*
X59055000Y-103632000D03*
%TO.N,DIR_B*%
X67564000Y-115729016D03*
X136652000Y-89916000D03*
X63627000Y-113538000D03*
%TO.N,STP_B*%
X136144000Y-88900000D03*
X69055984Y-115729016D03*
X112014000Y-122174000D03*
X114808000Y-122174000D03*
%TO.N,DIR_A*%
X70318665Y-115736335D03*
%TD*%
D15*
%TO.N,RST*%
X108331000Y-99095896D02*
X98643104Y-89408000D01*
X98643104Y-89408000D02*
X91440000Y-89408000D01*
X108331000Y-114681000D02*
X108331000Y-99095896D01*
X109550000Y-115900000D02*
X108331000Y-114681000D01*
%TO.N,HOLD*%
X111103182Y-113121500D02*
X111851500Y-113121500D01*
X111851500Y-113121500D02*
X114630000Y-115900000D01*
%TO.N,RESUME*%
X109441984Y-112300016D02*
X109474000Y-112268000D01*
X109474000Y-112268000D02*
X113538000Y-112268000D01*
X113538000Y-112268000D02*
X117170000Y-115900000D01*
%TO.N,EN_COOLANT*%
X104470000Y-118440000D02*
X102422000Y-120488000D01*
X94869000Y-116205000D02*
X93472000Y-114808000D01*
X93472000Y-114808000D02*
X91440000Y-114808000D01*
X95977000Y-120488000D02*
X94869000Y-119380000D01*
X102422000Y-120488000D02*
X95977000Y-120488000D01*
X94869000Y-119380000D02*
X94869000Y-116205000D01*
%TO.N,EN*%
X77962000Y-121142000D02*
X54868000Y-98048000D01*
X107010000Y-118440000D02*
X104308000Y-121142000D01*
X104308000Y-121142000D02*
X77962000Y-121142000D01*
X54868000Y-98048000D02*
X43180000Y-98048000D01*
%TO.N,ENDSTOP_X-*%
X119710000Y-109550000D02*
X93091000Y-82931000D01*
X119710000Y-115900000D02*
X119710000Y-109550000D01*
X59145792Y-82931000D02*
X46568792Y-95508000D01*
X46568792Y-95508000D02*
X43180000Y-95508000D01*
X93091000Y-82931000D02*
X59145792Y-82931000D01*
%TO.N,ENDSTOP_Y-*%
X124790000Y-115900000D02*
X124790000Y-113705104D01*
X124790000Y-113705104D02*
X93361896Y-82277000D01*
X93361896Y-82277000D02*
X58874896Y-82277000D01*
X48183896Y-92968000D02*
X43180000Y-92968000D01*
X58874896Y-82277000D02*
X48183896Y-92968000D01*
%TO.N,ENDSTOP_Z-*%
X124804792Y-112795000D02*
X93632792Y-81623000D01*
X93632792Y-81623000D02*
X58604000Y-81623000D01*
X129870000Y-115900000D02*
X126765000Y-112795000D01*
X126765000Y-112795000D02*
X124804792Y-112795000D01*
X58604000Y-81623000D02*
X52339000Y-87888000D01*
X52339000Y-87888000D02*
X43180000Y-87888000D01*
D16*
%TO.N,GND*%
X86487000Y-106426000D02*
X86487000Y-102616000D01*
X100457000Y-102616000D02*
X100457000Y-108839000D01*
D15*
%TO.N,DIR_E*%
X93903688Y-80969000D02*
X58333104Y-80969000D01*
X133714000Y-114596000D02*
X133291000Y-114173000D01*
X43414000Y-85582000D02*
X43180000Y-85348000D01*
X53954104Y-85348000D02*
X43180000Y-85348000D01*
X127035896Y-112141000D02*
X125075688Y-112141000D01*
X129067896Y-114173000D02*
X127035896Y-112141000D01*
X58333104Y-80969000D02*
X53954104Y-85348000D01*
X125075688Y-112141000D02*
X93903688Y-80969000D01*
X132410000Y-118440000D02*
X133714000Y-117136000D01*
X133291000Y-114173000D02*
X129067896Y-114173000D01*
X133714000Y-117136000D02*
X133714000Y-114596000D01*
%TO.N,DIR_D*%
X56037016Y-102077984D02*
X56007000Y-102108000D01*
X56007000Y-102108000D02*
X43180000Y-102108000D01*
%TO.N,STP_D*%
X59055000Y-108077000D02*
X59055000Y-103632000D01*
%TO.N,DIR_C*%
X134368000Y-118870000D02*
X134368000Y-76964000D01*
X134368000Y-76964000D02*
X133350000Y-75946000D01*
X133096000Y-120142000D02*
X134368000Y-118870000D01*
X122250000Y-118440000D02*
X123952000Y-120142000D01*
X123952000Y-120142000D02*
X133096000Y-120142000D01*
%TO.N,STP_C*%
X135022000Y-119140896D02*
X135022000Y-88651500D01*
X133366896Y-120796000D02*
X135022000Y-119140896D01*
X135022000Y-88651500D02*
X147785500Y-75888000D01*
X122066000Y-120796000D02*
X133366896Y-120796000D01*
X119710000Y-118440000D02*
X122066000Y-120796000D01*
%TO.N,DIR_B*%
X136330000Y-90238000D02*
X136330000Y-119682688D01*
X112344000Y-123266000D02*
X117170000Y-118440000D01*
X68201984Y-116082755D02*
X68702245Y-116583016D01*
X114454261Y-123028000D02*
X113954000Y-122527739D01*
X68702245Y-116583016D02*
X68704016Y-116583016D01*
X53594000Y-104648000D02*
X43180000Y-104648000D01*
X62484000Y-113538000D02*
X53594000Y-104648000D01*
X75879000Y-123758000D02*
X111852000Y-123758000D01*
X68704016Y-116583016D02*
X75879000Y-123758000D01*
X111852000Y-123758000D02*
X112344000Y-123266000D01*
X63627000Y-113538000D02*
X62484000Y-113538000D01*
X136330000Y-119682688D02*
X132984688Y-123028000D01*
X68201984Y-116080984D02*
X68201984Y-116082755D01*
X132984688Y-123028000D02*
X114454261Y-123028000D01*
X67850016Y-115729016D02*
X68201984Y-116080984D01*
X113954000Y-121656000D02*
X112344000Y-123266000D01*
X113954000Y-122527739D02*
X113954000Y-121656000D01*
X136652000Y-89916000D02*
X136330000Y-90238000D01*
X67564000Y-115729016D02*
X67850016Y-115729016D01*
%TO.N,STP_B*%
X135676000Y-119411792D02*
X132913792Y-122174000D01*
X109966000Y-123104000D02*
X111201000Y-121869000D01*
X69055984Y-115729016D02*
X69104313Y-115729016D01*
X69104313Y-115729016D02*
X76479297Y-123104000D01*
X111506000Y-122174000D02*
X112014000Y-122174000D01*
X136144000Y-88900000D02*
X135676000Y-89368000D01*
X132913792Y-122174000D02*
X114808000Y-122174000D01*
X111201000Y-121869000D02*
X114630000Y-118440000D01*
X135676000Y-89368000D02*
X135676000Y-119411792D01*
X76479297Y-123104000D02*
X109966000Y-123104000D01*
X111201000Y-121869000D02*
X111506000Y-122174000D01*
%TO.N,DIR_A*%
X70706543Y-115736335D02*
X77420208Y-122450000D01*
X70318665Y-115736335D02*
X70706543Y-115736335D01*
X77420208Y-122450000D02*
X108080000Y-122450000D01*
X108080000Y-122450000D02*
X112090000Y-118440000D01*
%TO.N,STP_A*%
X77691104Y-121796000D02*
X70703104Y-114808000D01*
X70703104Y-114808000D02*
X43180000Y-114808000D01*
X109550000Y-118440000D02*
X106194000Y-121796000D01*
X106194000Y-121796000D02*
X77691104Y-121796000D01*
%TD*%
%TA.AperFunction,Conductor*%
%TO.N,5V*%
G36*
X90082539Y-83651185D02*
G01*
X90128294Y-83703989D01*
X90139500Y-83755500D01*
X90139500Y-85175870D01*
X90139501Y-85175876D01*
X90145908Y-85235483D01*
X90196202Y-85370328D01*
X90196206Y-85370335D01*
X90282452Y-85485544D01*
X90282455Y-85485547D01*
X90397664Y-85571793D01*
X90397671Y-85571797D01*
X90442618Y-85588560D01*
X90532517Y-85622091D01*
X90567596Y-85625862D01*
X90632144Y-85652599D01*
X90671993Y-85709991D01*
X90674488Y-85779816D01*
X90638836Y-85839905D01*
X90625464Y-85850725D01*
X90600858Y-85867954D01*
X90439954Y-86028858D01*
X90309432Y-86215265D01*
X90309431Y-86215267D01*
X90213261Y-86421502D01*
X90213258Y-86421511D01*
X90154366Y-86641302D01*
X90154364Y-86641313D01*
X90134532Y-86867998D01*
X90134532Y-86868001D01*
X90154364Y-87094686D01*
X90154366Y-87094697D01*
X90213258Y-87314488D01*
X90213261Y-87314497D01*
X90309431Y-87520732D01*
X90309432Y-87520734D01*
X90439954Y-87707141D01*
X90600858Y-87868045D01*
X90647693Y-87900839D01*
X90787266Y-87998568D01*
X90845275Y-88025618D01*
X90897714Y-88071791D01*
X90916866Y-88138984D01*
X90896650Y-88205865D01*
X90845275Y-88250382D01*
X90787267Y-88277431D01*
X90787265Y-88277432D01*
X90600858Y-88407954D01*
X90439954Y-88568858D01*
X90309432Y-88755265D01*
X90309431Y-88755267D01*
X90213261Y-88961502D01*
X90213258Y-88961511D01*
X90154366Y-89181302D01*
X90154364Y-89181313D01*
X90134532Y-89407998D01*
X90134532Y-89408001D01*
X90154364Y-89634686D01*
X90154366Y-89634697D01*
X90213258Y-89854488D01*
X90213261Y-89854497D01*
X90309431Y-90060732D01*
X90309432Y-90060734D01*
X90439954Y-90247141D01*
X90600858Y-90408045D01*
X90647693Y-90440839D01*
X90787266Y-90538568D01*
X90845275Y-90565618D01*
X90897714Y-90611791D01*
X90916866Y-90678984D01*
X90896650Y-90745865D01*
X90845275Y-90790382D01*
X90787267Y-90817431D01*
X90787265Y-90817432D01*
X90600858Y-90947954D01*
X90439954Y-91108858D01*
X90309432Y-91295265D01*
X90309431Y-91295267D01*
X90213261Y-91501502D01*
X90213258Y-91501511D01*
X90154366Y-91721302D01*
X90154364Y-91721313D01*
X90134532Y-91947998D01*
X90134532Y-91948001D01*
X90154364Y-92174686D01*
X90154366Y-92174697D01*
X90213258Y-92394488D01*
X90213261Y-92394497D01*
X90309431Y-92600732D01*
X90309432Y-92600734D01*
X90439954Y-92787141D01*
X90600858Y-92948045D01*
X90647693Y-92980839D01*
X90787266Y-93078568D01*
X90845275Y-93105618D01*
X90897714Y-93151791D01*
X90916866Y-93218984D01*
X90896650Y-93285865D01*
X90845275Y-93330382D01*
X90787267Y-93357431D01*
X90787265Y-93357432D01*
X90600858Y-93487954D01*
X90439954Y-93648858D01*
X90309432Y-93835265D01*
X90309431Y-93835267D01*
X90213261Y-94041502D01*
X90213258Y-94041511D01*
X90154366Y-94261302D01*
X90154364Y-94261313D01*
X90134532Y-94487998D01*
X90134532Y-94488001D01*
X90154364Y-94714686D01*
X90154366Y-94714697D01*
X90213258Y-94934488D01*
X90213261Y-94934497D01*
X90309431Y-95140732D01*
X90309432Y-95140734D01*
X90439954Y-95327141D01*
X90600858Y-95488045D01*
X90647693Y-95520839D01*
X90787266Y-95618568D01*
X90845275Y-95645618D01*
X90897714Y-95691791D01*
X90916866Y-95758984D01*
X90896650Y-95825865D01*
X90845275Y-95870382D01*
X90787267Y-95897431D01*
X90787265Y-95897432D01*
X90600858Y-96027954D01*
X90439954Y-96188858D01*
X90309432Y-96375265D01*
X90309431Y-96375267D01*
X90213261Y-96581502D01*
X90213258Y-96581511D01*
X90154366Y-96801302D01*
X90154364Y-96801313D01*
X90134532Y-97027998D01*
X90134532Y-97028001D01*
X90154364Y-97254686D01*
X90154366Y-97254697D01*
X90213258Y-97474488D01*
X90213261Y-97474497D01*
X90309431Y-97680732D01*
X90309432Y-97680734D01*
X90439954Y-97867141D01*
X90600858Y-98028045D01*
X90647693Y-98060839D01*
X90787266Y-98158568D01*
X90845275Y-98185618D01*
X90897714Y-98231791D01*
X90916866Y-98298984D01*
X90896650Y-98365865D01*
X90845275Y-98410382D01*
X90787267Y-98437431D01*
X90787265Y-98437432D01*
X90600858Y-98567954D01*
X90439954Y-98728858D01*
X90309432Y-98915265D01*
X90309431Y-98915267D01*
X90213261Y-99121502D01*
X90213258Y-99121511D01*
X90154366Y-99341302D01*
X90154364Y-99341313D01*
X90134532Y-99567998D01*
X90134532Y-99568001D01*
X90154364Y-99794686D01*
X90154366Y-99794697D01*
X90213258Y-100014488D01*
X90213261Y-100014497D01*
X90309431Y-100220732D01*
X90309432Y-100220734D01*
X90439954Y-100407141D01*
X90600858Y-100568045D01*
X90600861Y-100568047D01*
X90787266Y-100698568D01*
X90845275Y-100725618D01*
X90897714Y-100771791D01*
X90916866Y-100838984D01*
X90896650Y-100905865D01*
X90845275Y-100950382D01*
X90787267Y-100977431D01*
X90787265Y-100977432D01*
X90600858Y-101107954D01*
X90439954Y-101268858D01*
X90309432Y-101455265D01*
X90309431Y-101455267D01*
X90213261Y-101661502D01*
X90213258Y-101661511D01*
X90154366Y-101881302D01*
X90154364Y-101881313D01*
X90134532Y-102107998D01*
X90134532Y-102108001D01*
X90154364Y-102334686D01*
X90154366Y-102334697D01*
X90213258Y-102554488D01*
X90213261Y-102554497D01*
X90309431Y-102760732D01*
X90309432Y-102760734D01*
X90439954Y-102947141D01*
X90600858Y-103108045D01*
X90600861Y-103108047D01*
X90787266Y-103238568D01*
X90993504Y-103334739D01*
X91213308Y-103393635D01*
X91375230Y-103407801D01*
X91439998Y-103413468D01*
X91440000Y-103413468D01*
X91440002Y-103413468D01*
X91496673Y-103408509D01*
X91666692Y-103393635D01*
X91886496Y-103334739D01*
X92092734Y-103238568D01*
X92279139Y-103108047D01*
X92440047Y-102947139D01*
X92570568Y-102760734D01*
X92666739Y-102554496D01*
X92725635Y-102334692D01*
X92745468Y-102108000D01*
X92744183Y-102093317D01*
X92728223Y-101910888D01*
X92725635Y-101881308D01*
X92666739Y-101661504D01*
X92570568Y-101455266D01*
X92440047Y-101268861D01*
X92440045Y-101268858D01*
X92279141Y-101107954D01*
X92092734Y-100977432D01*
X92092728Y-100977429D01*
X92034725Y-100950382D01*
X91982285Y-100904210D01*
X91963133Y-100837017D01*
X91983348Y-100770135D01*
X92034725Y-100725618D01*
X92092734Y-100698568D01*
X92279139Y-100568047D01*
X92440047Y-100407139D01*
X92570568Y-100220734D01*
X92666739Y-100014496D01*
X92725635Y-99794692D01*
X92745468Y-99568000D01*
X92725635Y-99341308D01*
X92666739Y-99121504D01*
X92570568Y-98915266D01*
X92440047Y-98728861D01*
X92440045Y-98728858D01*
X92279141Y-98567954D01*
X92092734Y-98437432D01*
X92092728Y-98437429D01*
X92034725Y-98410382D01*
X91982285Y-98364210D01*
X91963133Y-98297017D01*
X91983348Y-98230135D01*
X92034725Y-98185618D01*
X92092734Y-98158568D01*
X92279139Y-98028047D01*
X92440047Y-97867139D01*
X92570568Y-97680734D01*
X92666739Y-97474496D01*
X92725635Y-97254692D01*
X92745468Y-97028000D01*
X92725635Y-96801308D01*
X92666739Y-96581504D01*
X92570568Y-96375266D01*
X92440047Y-96188861D01*
X92440045Y-96188858D01*
X92279141Y-96027954D01*
X92092734Y-95897432D01*
X92092728Y-95897429D01*
X92034725Y-95870382D01*
X91982285Y-95824210D01*
X91963133Y-95757017D01*
X91983348Y-95690135D01*
X92034725Y-95645618D01*
X92092734Y-95618568D01*
X92279139Y-95488047D01*
X92440047Y-95327139D01*
X92570568Y-95140734D01*
X92666739Y-94934496D01*
X92725635Y-94714692D01*
X92745468Y-94488000D01*
X92725635Y-94261308D01*
X92666739Y-94041504D01*
X92570568Y-93835266D01*
X92440047Y-93648861D01*
X92440045Y-93648858D01*
X92279141Y-93487954D01*
X92092734Y-93357432D01*
X92092728Y-93357429D01*
X92034725Y-93330382D01*
X91982285Y-93284210D01*
X91963133Y-93217017D01*
X91983348Y-93150135D01*
X92034725Y-93105618D01*
X92092734Y-93078568D01*
X92279139Y-92948047D01*
X92440047Y-92787139D01*
X92570568Y-92600734D01*
X92666739Y-92394496D01*
X92725635Y-92174692D01*
X92745468Y-91948000D01*
X92725635Y-91721308D01*
X92666739Y-91501504D01*
X92570568Y-91295266D01*
X92440047Y-91108861D01*
X92440045Y-91108858D01*
X92279141Y-90947954D01*
X92092734Y-90817432D01*
X92092728Y-90817429D01*
X92034725Y-90790382D01*
X91982285Y-90744210D01*
X91963133Y-90677017D01*
X91983348Y-90610135D01*
X92034725Y-90565618D01*
X92092734Y-90538568D01*
X92279139Y-90408047D01*
X92440047Y-90247139D01*
X92500096Y-90161377D01*
X92554675Y-90117752D01*
X92601673Y-90108500D01*
X98301585Y-90108500D01*
X98368624Y-90128185D01*
X98389266Y-90144819D01*
X107594181Y-99349734D01*
X107627666Y-99411057D01*
X107630500Y-99437415D01*
X107630500Y-114506521D01*
X107610815Y-114573560D01*
X107558011Y-114619315D01*
X107488853Y-114629259D01*
X107474407Y-114626296D01*
X107245413Y-114564938D01*
X107245403Y-114564936D01*
X107010001Y-114544341D01*
X107009999Y-114544341D01*
X106774596Y-114564936D01*
X106774586Y-114564938D01*
X106546344Y-114626094D01*
X106546335Y-114626098D01*
X106332171Y-114725964D01*
X106332169Y-114725965D01*
X106138597Y-114861505D01*
X105971505Y-115028597D01*
X105841575Y-115214158D01*
X105786998Y-115257783D01*
X105717500Y-115264977D01*
X105655145Y-115233454D01*
X105638425Y-115214158D01*
X105508494Y-115028597D01*
X105341402Y-114861506D01*
X105341395Y-114861501D01*
X105147834Y-114725967D01*
X105147830Y-114725965D01*
X105144225Y-114724284D01*
X104933663Y-114626097D01*
X104933659Y-114626096D01*
X104933655Y-114626094D01*
X104705413Y-114564938D01*
X104705403Y-114564936D01*
X104470001Y-114544341D01*
X104469999Y-114544341D01*
X104234596Y-114564936D01*
X104234586Y-114564938D01*
X104006344Y-114626094D01*
X104006335Y-114626098D01*
X103792171Y-114725964D01*
X103792169Y-114725965D01*
X103598597Y-114861505D01*
X103431505Y-115028597D01*
X103301575Y-115214158D01*
X103246998Y-115257783D01*
X103177500Y-115264977D01*
X103115145Y-115233454D01*
X103098425Y-115214158D01*
X102968494Y-115028597D01*
X102801402Y-114861506D01*
X102801395Y-114861501D01*
X102607834Y-114725967D01*
X102607830Y-114725965D01*
X102604225Y-114724284D01*
X102393663Y-114626097D01*
X102393659Y-114626096D01*
X102393655Y-114626094D01*
X102165413Y-114564938D01*
X102165403Y-114564936D01*
X101930001Y-114544341D01*
X101929999Y-114544341D01*
X101694596Y-114564936D01*
X101694586Y-114564938D01*
X101466344Y-114626094D01*
X101466335Y-114626098D01*
X101252171Y-114725964D01*
X101252169Y-114725965D01*
X101058597Y-114861505D01*
X100891505Y-115028597D01*
X100761575Y-115214158D01*
X100706998Y-115257783D01*
X100637500Y-115264977D01*
X100575145Y-115233454D01*
X100558425Y-115214158D01*
X100428494Y-115028597D01*
X100261402Y-114861506D01*
X100261395Y-114861501D01*
X100067834Y-114725967D01*
X100067830Y-114725965D01*
X100064225Y-114724284D01*
X99853663Y-114626097D01*
X99853659Y-114626096D01*
X99853655Y-114626094D01*
X99625413Y-114564938D01*
X99625403Y-114564936D01*
X99390001Y-114544341D01*
X99389999Y-114544341D01*
X99154596Y-114564936D01*
X99154586Y-114564938D01*
X98926344Y-114626094D01*
X98926335Y-114626098D01*
X98712171Y-114725964D01*
X98712169Y-114725965D01*
X98518597Y-114861505D01*
X98351505Y-115028597D01*
X98221575Y-115214158D01*
X98166998Y-115257783D01*
X98097500Y-115264977D01*
X98035145Y-115233454D01*
X98018425Y-115214158D01*
X97888494Y-115028597D01*
X97721402Y-114861506D01*
X97721395Y-114861501D01*
X97527834Y-114725967D01*
X97527830Y-114725965D01*
X97524225Y-114724284D01*
X97313663Y-114626097D01*
X97313659Y-114626096D01*
X97313655Y-114626094D01*
X97085413Y-114564938D01*
X97085403Y-114564936D01*
X96850001Y-114544341D01*
X96849999Y-114544341D01*
X96614596Y-114564936D01*
X96614586Y-114564938D01*
X96386344Y-114626094D01*
X96386335Y-114626098D01*
X96172171Y-114725964D01*
X96172169Y-114725965D01*
X95978597Y-114861505D01*
X95811505Y-115028597D01*
X95675965Y-115222169D01*
X95675964Y-115222171D01*
X95576098Y-115436335D01*
X95576095Y-115436341D01*
X95529170Y-115611470D01*
X95492805Y-115671130D01*
X95429958Y-115701659D01*
X95360582Y-115693364D01*
X95321714Y-115667057D01*
X94656784Y-115002127D01*
X93983598Y-114328941D01*
X93981064Y-114326250D01*
X93939929Y-114279817D01*
X93939928Y-114279816D01*
X93939924Y-114279812D01*
X93888896Y-114244591D01*
X93885887Y-114242377D01*
X93837060Y-114204124D01*
X93837055Y-114204120D01*
X93827813Y-114199961D01*
X93808266Y-114188936D01*
X93799931Y-114183183D01*
X93799932Y-114183183D01*
X93799930Y-114183182D01*
X93741941Y-114161189D01*
X93738490Y-114159759D01*
X93681930Y-114134304D01*
X93671946Y-114132474D01*
X93650343Y-114126451D01*
X93640874Y-114122860D01*
X93640870Y-114122859D01*
X93579313Y-114115384D01*
X93575612Y-114114821D01*
X93514608Y-114103642D01*
X93514603Y-114103642D01*
X93452697Y-114107387D01*
X93448952Y-114107500D01*
X92601673Y-114107500D01*
X92534634Y-114087815D01*
X92500098Y-114054623D01*
X92440045Y-113968858D01*
X92279141Y-113807954D01*
X92092734Y-113677432D01*
X92092728Y-113677429D01*
X92034725Y-113650382D01*
X91982285Y-113604210D01*
X91963133Y-113537017D01*
X91983348Y-113470135D01*
X92034725Y-113425618D01*
X92092734Y-113398568D01*
X92279139Y-113268047D01*
X92440047Y-113107139D01*
X92570568Y-112920734D01*
X92666739Y-112714496D01*
X92725635Y-112494692D01*
X92745468Y-112268000D01*
X92725635Y-112041308D01*
X92666739Y-111821504D01*
X92570568Y-111615266D01*
X92440047Y-111428861D01*
X92440045Y-111428858D01*
X92279141Y-111267954D01*
X92092734Y-111137432D01*
X92092728Y-111137429D01*
X92034725Y-111110382D01*
X91982285Y-111064210D01*
X91963133Y-110997017D01*
X91983348Y-110930135D01*
X92034725Y-110885618D01*
X92092734Y-110858568D01*
X92279139Y-110728047D01*
X92440047Y-110567139D01*
X92570568Y-110380734D01*
X92666739Y-110174496D01*
X92725635Y-109954692D01*
X92745468Y-109728000D01*
X92725635Y-109501308D01*
X92666739Y-109281504D01*
X92570568Y-109075266D01*
X92443009Y-108893091D01*
X99321500Y-108893091D01*
X99336948Y-109054871D01*
X99336949Y-109054875D01*
X99398041Y-109262938D01*
X99398042Y-109262941D01*
X99398043Y-109262942D01*
X99497412Y-109455690D01*
X99631462Y-109626149D01*
X99795349Y-109768158D01*
X99795352Y-109768160D01*
X99795355Y-109768162D01*
X99896998Y-109826845D01*
X99983151Y-109876585D01*
X100188078Y-109947511D01*
X100402725Y-109978373D01*
X100619334Y-109968055D01*
X100830075Y-109916929D01*
X101027332Y-109826845D01*
X101203977Y-109701057D01*
X101353623Y-109544112D01*
X101470863Y-109361683D01*
X101551460Y-109160362D01*
X101592500Y-108947427D01*
X101592500Y-102561909D01*
X101577052Y-102400128D01*
X101515957Y-102192058D01*
X101416588Y-101999310D01*
X101282538Y-101828851D01*
X101118651Y-101686842D01*
X101118647Y-101686840D01*
X101118644Y-101686837D01*
X100930851Y-101578416D01*
X100930850Y-101578415D01*
X100930849Y-101578415D01*
X100814280Y-101538070D01*
X100725923Y-101507489D01*
X100672260Y-101499773D01*
X100511275Y-101476627D01*
X100511272Y-101476627D01*
X100294668Y-101486944D01*
X100083928Y-101538070D01*
X100083926Y-101538070D01*
X99886669Y-101628154D01*
X99710021Y-101753944D01*
X99710015Y-101753949D01*
X99560378Y-101910885D01*
X99443135Y-102093320D01*
X99443134Y-102093321D01*
X99362544Y-102294624D01*
X99362539Y-102294641D01*
X99321500Y-102507572D01*
X99321500Y-102507573D01*
X99321500Y-108893091D01*
X92443009Y-108893091D01*
X92440047Y-108888861D01*
X92440045Y-108888858D01*
X92279141Y-108727954D01*
X92092734Y-108597432D01*
X92092728Y-108597429D01*
X92034725Y-108570382D01*
X91982285Y-108524210D01*
X91963133Y-108457017D01*
X91983348Y-108390135D01*
X92034725Y-108345618D01*
X92092734Y-108318568D01*
X92279139Y-108188047D01*
X92440047Y-108027139D01*
X92570568Y-107840734D01*
X92666739Y-107634496D01*
X92725635Y-107414692D01*
X92745468Y-107188000D01*
X92725635Y-106961308D01*
X92666739Y-106741504D01*
X92570568Y-106535266D01*
X92440047Y-106348861D01*
X92440045Y-106348858D01*
X92279141Y-106187954D01*
X92092734Y-106057432D01*
X92092732Y-106057431D01*
X91886497Y-105961261D01*
X91886488Y-105961258D01*
X91666697Y-105902366D01*
X91666693Y-105902365D01*
X91666692Y-105902365D01*
X91666691Y-105902364D01*
X91666686Y-105902364D01*
X91440002Y-105882532D01*
X91439998Y-105882532D01*
X91213313Y-105902364D01*
X91213302Y-105902366D01*
X90993511Y-105961258D01*
X90993502Y-105961261D01*
X90787267Y-106057431D01*
X90787265Y-106057432D01*
X90600858Y-106187954D01*
X90439954Y-106348858D01*
X90309432Y-106535265D01*
X90309431Y-106535267D01*
X90213261Y-106741502D01*
X90213258Y-106741511D01*
X90154366Y-106961302D01*
X90154364Y-106961313D01*
X90134532Y-107187998D01*
X90134532Y-107188001D01*
X90154364Y-107414686D01*
X90154366Y-107414697D01*
X90213258Y-107634488D01*
X90213261Y-107634497D01*
X90309431Y-107840732D01*
X90309432Y-107840734D01*
X90439954Y-108027141D01*
X90600858Y-108188045D01*
X90600861Y-108188047D01*
X90787266Y-108318568D01*
X90845275Y-108345618D01*
X90897714Y-108391791D01*
X90916866Y-108458984D01*
X90896650Y-108525865D01*
X90845275Y-108570382D01*
X90787267Y-108597431D01*
X90787265Y-108597432D01*
X90600858Y-108727954D01*
X90439954Y-108888858D01*
X90309432Y-109075265D01*
X90309431Y-109075267D01*
X90213261Y-109281502D01*
X90213258Y-109281511D01*
X90154366Y-109501302D01*
X90154364Y-109501313D01*
X90134532Y-109727998D01*
X90134532Y-109728001D01*
X90154364Y-109954686D01*
X90154366Y-109954697D01*
X90213258Y-110174488D01*
X90213261Y-110174497D01*
X90309431Y-110380732D01*
X90309432Y-110380734D01*
X90439954Y-110567141D01*
X90600858Y-110728045D01*
X90600861Y-110728047D01*
X90787266Y-110858568D01*
X90845275Y-110885618D01*
X90897714Y-110931791D01*
X90916866Y-110998984D01*
X90896650Y-111065865D01*
X90845275Y-111110382D01*
X90787267Y-111137431D01*
X90787265Y-111137432D01*
X90600858Y-111267954D01*
X90439954Y-111428858D01*
X90309432Y-111615265D01*
X90309431Y-111615267D01*
X90213261Y-111821502D01*
X90213258Y-111821511D01*
X90154366Y-112041302D01*
X90154364Y-112041313D01*
X90134532Y-112267998D01*
X90134532Y-112268001D01*
X90154364Y-112494686D01*
X90154366Y-112494697D01*
X90213258Y-112714488D01*
X90213261Y-112714497D01*
X90309431Y-112920732D01*
X90309432Y-112920734D01*
X90439954Y-113107141D01*
X90600858Y-113268045D01*
X90600861Y-113268047D01*
X90787266Y-113398568D01*
X90845275Y-113425618D01*
X90897714Y-113471791D01*
X90916866Y-113538984D01*
X90896650Y-113605865D01*
X90845275Y-113650382D01*
X90787267Y-113677431D01*
X90787265Y-113677432D01*
X90600858Y-113807954D01*
X90439954Y-113968858D01*
X90309432Y-114155265D01*
X90309431Y-114155267D01*
X90213261Y-114361502D01*
X90213258Y-114361511D01*
X90154366Y-114581302D01*
X90154364Y-114581313D01*
X90134532Y-114807998D01*
X90134532Y-114808001D01*
X90154364Y-115034686D01*
X90154366Y-115034697D01*
X90213258Y-115254488D01*
X90213261Y-115254497D01*
X90309431Y-115460732D01*
X90309432Y-115460734D01*
X90439954Y-115647141D01*
X90600858Y-115808045D01*
X90646414Y-115839943D01*
X90787266Y-115938568D01*
X90845278Y-115965619D01*
X90897713Y-116011788D01*
X90916866Y-116078982D01*
X90896651Y-116145863D01*
X90845277Y-116190380D01*
X90787268Y-116217430D01*
X90787265Y-116217432D01*
X90600858Y-116347954D01*
X90439954Y-116508858D01*
X90309432Y-116695265D01*
X90309431Y-116695267D01*
X90213261Y-116901502D01*
X90213258Y-116901511D01*
X90154366Y-117121302D01*
X90154364Y-117121313D01*
X90134532Y-117347998D01*
X90134532Y-117348001D01*
X90154364Y-117574686D01*
X90154366Y-117574697D01*
X90213258Y-117794488D01*
X90213261Y-117794497D01*
X90309431Y-118000732D01*
X90309432Y-118000734D01*
X90439954Y-118187141D01*
X90600858Y-118348045D01*
X90600861Y-118348047D01*
X90787266Y-118478568D01*
X90845275Y-118505618D01*
X90897714Y-118551791D01*
X90916866Y-118618984D01*
X90896650Y-118685865D01*
X90845275Y-118730382D01*
X90787267Y-118757431D01*
X90787265Y-118757432D01*
X90600858Y-118887954D01*
X90439954Y-119048858D01*
X90309432Y-119235265D01*
X90309431Y-119235267D01*
X90213263Y-119441500D01*
X90213258Y-119441511D01*
X90154366Y-119661302D01*
X90154364Y-119661313D01*
X90134532Y-119887998D01*
X90134532Y-119888001D01*
X90154364Y-120114686D01*
X90154366Y-120114697D01*
X90200107Y-120285407D01*
X90198444Y-120355257D01*
X90159281Y-120413119D01*
X90095052Y-120440623D01*
X90080332Y-120441500D01*
X78303519Y-120441500D01*
X78236480Y-120421815D01*
X78215838Y-120405181D01*
X66803977Y-108993320D01*
X64290748Y-106480091D01*
X85351500Y-106480091D01*
X85356769Y-106535266D01*
X85366948Y-106641871D01*
X85366949Y-106641875D01*
X85428041Y-106849938D01*
X85428042Y-106849941D01*
X85428043Y-106849942D01*
X85527412Y-107042690D01*
X85661462Y-107213149D01*
X85825349Y-107355158D01*
X85825352Y-107355160D01*
X85825355Y-107355162D01*
X85926998Y-107413845D01*
X86013151Y-107463585D01*
X86218078Y-107534511D01*
X86432725Y-107565373D01*
X86649334Y-107555055D01*
X86860075Y-107503929D01*
X87057332Y-107413845D01*
X87233977Y-107288057D01*
X87383623Y-107131112D01*
X87500863Y-106948683D01*
X87581460Y-106747362D01*
X87622500Y-106534427D01*
X87622500Y-102561909D01*
X87607052Y-102400128D01*
X87545957Y-102192058D01*
X87446588Y-101999310D01*
X87312538Y-101828851D01*
X87148651Y-101686842D01*
X87148647Y-101686840D01*
X87148644Y-101686837D01*
X86960851Y-101578416D01*
X86960850Y-101578415D01*
X86960849Y-101578415D01*
X86844280Y-101538070D01*
X86755923Y-101507489D01*
X86702260Y-101499773D01*
X86541275Y-101476627D01*
X86541272Y-101476627D01*
X86324668Y-101486944D01*
X86113928Y-101538070D01*
X86113926Y-101538070D01*
X85916669Y-101628154D01*
X85740021Y-101753944D01*
X85740015Y-101753949D01*
X85590378Y-101910885D01*
X85473135Y-102093320D01*
X85473134Y-102093321D01*
X85392544Y-102294624D01*
X85392539Y-102294641D01*
X85351500Y-102507572D01*
X85351500Y-102507573D01*
X85351500Y-106480091D01*
X64290748Y-106480091D01*
X55379598Y-97568941D01*
X55377064Y-97566250D01*
X55335929Y-97519817D01*
X55335928Y-97519816D01*
X55335924Y-97519812D01*
X55284896Y-97484591D01*
X55281887Y-97482377D01*
X55233060Y-97444124D01*
X55233055Y-97444120D01*
X55223813Y-97439961D01*
X55204266Y-97428936D01*
X55195931Y-97423183D01*
X55195932Y-97423183D01*
X55195930Y-97423182D01*
X55137941Y-97401189D01*
X55134490Y-97399759D01*
X55077930Y-97374304D01*
X55067946Y-97372474D01*
X55046343Y-97366451D01*
X55036874Y-97362860D01*
X55036870Y-97362859D01*
X54975313Y-97355384D01*
X54971612Y-97354821D01*
X54910608Y-97343642D01*
X54910603Y-97343642D01*
X54848697Y-97347387D01*
X54844952Y-97347500D01*
X44341673Y-97347500D01*
X44274634Y-97327815D01*
X44240098Y-97294623D01*
X44180045Y-97208858D01*
X44019141Y-97047954D01*
X43832734Y-96917432D01*
X43832728Y-96917429D01*
X43774725Y-96890382D01*
X43722285Y-96844210D01*
X43703133Y-96777017D01*
X43723348Y-96710135D01*
X43774725Y-96665618D01*
X43832734Y-96638568D01*
X44019139Y-96508047D01*
X44180047Y-96347139D01*
X44240096Y-96261377D01*
X44294675Y-96217752D01*
X44341673Y-96208500D01*
X46545744Y-96208500D01*
X46549489Y-96208613D01*
X46556834Y-96209057D01*
X46611398Y-96212358D01*
X46649106Y-96205447D01*
X46672413Y-96201177D01*
X46676117Y-96200613D01*
X46693962Y-96198446D01*
X46737664Y-96193140D01*
X46747127Y-96189550D01*
X46768753Y-96183522D01*
X46769685Y-96183351D01*
X46778724Y-96181695D01*
X46835304Y-96156229D01*
X46838734Y-96154809D01*
X46896722Y-96132818D01*
X46905058Y-96127062D01*
X46924613Y-96116034D01*
X46933849Y-96111878D01*
X46982688Y-96073613D01*
X46985668Y-96071421D01*
X47036721Y-96036183D01*
X47077857Y-95989748D01*
X47080391Y-95987056D01*
X59399629Y-83667819D01*
X59460953Y-83634334D01*
X59487311Y-83631500D01*
X90015500Y-83631500D01*
X90082539Y-83651185D01*
G37*
%TD.AperFunction*%
%TA.AperFunction,Conductor*%
G36*
X109236703Y-100067806D02*
G01*
X109243181Y-100073838D01*
X118973181Y-109803838D01*
X119006666Y-109865161D01*
X119009500Y-109891519D01*
X119009500Y-114677288D01*
X118989815Y-114744327D01*
X118956624Y-114778863D01*
X118838594Y-114861508D01*
X118671505Y-115028597D01*
X118541575Y-115214158D01*
X118486998Y-115257783D01*
X118417500Y-115264977D01*
X118355145Y-115233454D01*
X118338425Y-115214158D01*
X118208494Y-115028597D01*
X118041402Y-114861506D01*
X118041395Y-114861501D01*
X117847834Y-114725967D01*
X117847830Y-114725965D01*
X117844225Y-114724284D01*
X117633663Y-114626097D01*
X117633659Y-114626096D01*
X117633655Y-114626094D01*
X117405413Y-114564938D01*
X117405403Y-114564936D01*
X117170001Y-114544341D01*
X117169999Y-114544341D01*
X116934597Y-114564936D01*
X116934593Y-114564936D01*
X116934592Y-114564937D01*
X116934587Y-114564938D01*
X116934584Y-114564939D01*
X116917778Y-114569442D01*
X116847928Y-114567778D01*
X116798005Y-114537348D01*
X115424428Y-113163771D01*
X114049598Y-111788941D01*
X114047064Y-111786250D01*
X114005929Y-111739817D01*
X114005928Y-111739816D01*
X114005924Y-111739812D01*
X113954896Y-111704591D01*
X113951887Y-111702377D01*
X113903060Y-111664124D01*
X113903055Y-111664120D01*
X113893813Y-111659961D01*
X113874266Y-111648936D01*
X113865931Y-111643183D01*
X113865932Y-111643183D01*
X113865930Y-111643182D01*
X113807941Y-111621189D01*
X113804490Y-111619759D01*
X113747930Y-111594304D01*
X113737946Y-111592474D01*
X113716343Y-111586451D01*
X113706874Y-111582860D01*
X113706870Y-111582859D01*
X113645313Y-111575384D01*
X113641612Y-111574821D01*
X113580608Y-111563642D01*
X113580603Y-111563642D01*
X113518697Y-111567387D01*
X113514952Y-111567500D01*
X110006074Y-111567500D01*
X109939035Y-111547815D01*
X109933189Y-111543818D01*
X109894718Y-111515867D01*
X109894713Y-111515864D01*
X109721791Y-111438873D01*
X109721786Y-111438871D01*
X109558577Y-111404181D01*
X109536630Y-111399516D01*
X109347338Y-111399516D01*
X109325391Y-111404181D01*
X109181281Y-111434812D01*
X109111613Y-111429496D01*
X109055880Y-111387359D01*
X109031775Y-111321779D01*
X109031500Y-111313522D01*
X109031500Y-100161519D01*
X109051185Y-100094480D01*
X109103989Y-100048725D01*
X109173147Y-100038781D01*
X109236703Y-100067806D01*
G37*
%TD.AperFunction*%
%TA.AperFunction,Conductor*%
G36*
X152942539Y-56020185D02*
G01*
X152988294Y-56072989D01*
X152999500Y-56124500D01*
X152999500Y-124875500D01*
X152979815Y-124942539D01*
X152927011Y-124988294D01*
X152875500Y-124999500D01*
X32124000Y-124999500D01*
X32056961Y-124979815D01*
X32011206Y-124927011D01*
X32000000Y-124875500D01*
X32000000Y-120067909D01*
X35141779Y-120067909D01*
X35171468Y-120337735D01*
X35171470Y-120337748D01*
X35224537Y-120540734D01*
X35240132Y-120600384D01*
X35346303Y-120850224D01*
X35366806Y-120883819D01*
X35487716Y-121081940D01*
X35487717Y-121081942D01*
X35564025Y-121173635D01*
X35661368Y-121290604D01*
X35863546Y-121471757D01*
X36089947Y-121621542D01*
X36335743Y-121736767D01*
X36595697Y-121814975D01*
X36864268Y-121854500D01*
X36864273Y-121854500D01*
X37067786Y-121854500D01*
X37119394Y-121850722D01*
X37270740Y-121839645D01*
X37381488Y-121814975D01*
X37535702Y-121780623D01*
X37535704Y-121780622D01*
X37535709Y-121780621D01*
X37789261Y-121683646D01*
X38025991Y-121550786D01*
X38240853Y-121384875D01*
X38429269Y-121189447D01*
X38587223Y-120968668D01*
X38711348Y-120727244D01*
X38798998Y-120470320D01*
X38848306Y-120203371D01*
X38858220Y-119932089D01*
X38853369Y-119888001D01*
X41874532Y-119888001D01*
X41894364Y-120114686D01*
X41894366Y-120114697D01*
X41953258Y-120334488D01*
X41953261Y-120334497D01*
X42049431Y-120540732D01*
X42049432Y-120540734D01*
X42179954Y-120727141D01*
X42340858Y-120888045D01*
X42340861Y-120888047D01*
X42527266Y-121018568D01*
X42733504Y-121114739D01*
X42953308Y-121173635D01*
X43115230Y-121187801D01*
X43179998Y-121193468D01*
X43180000Y-121193468D01*
X43180002Y-121193468D01*
X43241711Y-121188069D01*
X43406692Y-121173635D01*
X43626496Y-121114739D01*
X43832734Y-121018568D01*
X44019139Y-120888047D01*
X44180047Y-120727139D01*
X44310568Y-120540734D01*
X44406739Y-120334496D01*
X44465635Y-120114692D01*
X44485468Y-119888000D01*
X44485000Y-119882655D01*
X44473251Y-119748356D01*
X44465635Y-119661308D01*
X44406739Y-119441504D01*
X44310568Y-119235266D01*
X44180047Y-119048861D01*
X44180045Y-119048858D01*
X44019141Y-118887954D01*
X43832734Y-118757432D01*
X43832728Y-118757429D01*
X43774725Y-118730382D01*
X43722285Y-118684210D01*
X43703133Y-118617017D01*
X43723348Y-118550135D01*
X43774725Y-118505618D01*
X43832734Y-118478568D01*
X44019139Y-118348047D01*
X44180047Y-118187139D01*
X44310568Y-118000734D01*
X44406739Y-117794496D01*
X44465635Y-117574692D01*
X44485468Y-117348000D01*
X44465635Y-117121308D01*
X44406739Y-116901504D01*
X44310568Y-116695266D01*
X44180047Y-116508861D01*
X44180045Y-116508858D01*
X44019141Y-116347954D01*
X43832735Y-116217433D01*
X43832736Y-116217433D01*
X43832734Y-116217432D01*
X43774722Y-116190380D01*
X43722284Y-116144208D01*
X43703133Y-116077014D01*
X43723349Y-116010133D01*
X43774721Y-115965619D01*
X43832734Y-115938568D01*
X44019139Y-115808047D01*
X44180047Y-115647139D01*
X44240096Y-115561377D01*
X44294675Y-115517752D01*
X44341673Y-115508500D01*
X66544001Y-115508500D01*
X66611040Y-115528185D01*
X66656795Y-115580989D01*
X66667321Y-115645460D01*
X66658540Y-115729016D01*
X66678326Y-115917272D01*
X66678327Y-115917275D01*
X66736818Y-116097293D01*
X66736821Y-116097300D01*
X66831467Y-116261232D01*
X66901528Y-116339042D01*
X66958129Y-116401904D01*
X67111265Y-116513164D01*
X67111270Y-116513167D01*
X67284192Y-116590158D01*
X67284197Y-116590160D01*
X67469354Y-116629516D01*
X67469355Y-116629516D01*
X67658645Y-116629516D01*
X67658646Y-116629516D01*
X67674801Y-116626082D01*
X67744467Y-116631398D01*
X67788262Y-116659691D01*
X68190644Y-117062072D01*
X68193180Y-117064766D01*
X68234316Y-117111199D01*
X68248372Y-117120901D01*
X68265613Y-117135270D01*
X75367399Y-124237056D01*
X75369935Y-124239750D01*
X75411071Y-124286183D01*
X75462130Y-124321427D01*
X75465112Y-124323621D01*
X75513943Y-124361877D01*
X75513947Y-124361880D01*
X75513946Y-124361880D01*
X75523177Y-124366034D01*
X75542731Y-124377062D01*
X75551066Y-124382816D01*
X75551068Y-124382816D01*
X75551070Y-124382818D01*
X75609079Y-124404817D01*
X75612476Y-124406224D01*
X75659770Y-124427509D01*
X75669064Y-124431693D01*
X75669065Y-124431693D01*
X75669069Y-124431695D01*
X75679034Y-124433521D01*
X75700656Y-124439548D01*
X75700667Y-124439552D01*
X75710128Y-124443140D01*
X75755251Y-124448618D01*
X75771674Y-124450613D01*
X75775371Y-124451175D01*
X75836394Y-124462358D01*
X75891752Y-124459009D01*
X75898303Y-124458613D01*
X75902048Y-124458500D01*
X111828952Y-124458500D01*
X111832697Y-124458613D01*
X111840042Y-124459057D01*
X111894606Y-124462358D01*
X111932314Y-124455447D01*
X111955621Y-124451177D01*
X111959325Y-124450613D01*
X111977170Y-124448446D01*
X112020872Y-124443140D01*
X112030335Y-124439550D01*
X112051961Y-124433522D01*
X112052893Y-124433351D01*
X112061932Y-124431695D01*
X112118512Y-124406229D01*
X112121942Y-124404809D01*
X112179930Y-124382818D01*
X112188266Y-124377062D01*
X112207821Y-124366034D01*
X112217057Y-124361878D01*
X112265896Y-124323613D01*
X112268876Y-124321421D01*
X112319929Y-124286183D01*
X112361065Y-124239748D01*
X112363599Y-124237056D01*
X112869290Y-123731367D01*
X112869289Y-123731366D01*
X112905596Y-123695061D01*
X112905609Y-123695046D01*
X113093616Y-123507039D01*
X113430452Y-123170203D01*
X113491771Y-123136721D01*
X113561462Y-123141705D01*
X113605809Y-123170205D01*
X113942660Y-123507056D01*
X113945196Y-123509750D01*
X113981871Y-123551148D01*
X113986331Y-123556182D01*
X114037367Y-123591410D01*
X114040383Y-123593630D01*
X114066751Y-123614287D01*
X114089204Y-123631878D01*
X114096106Y-123634984D01*
X114098443Y-123636036D01*
X114117994Y-123647063D01*
X114126331Y-123652818D01*
X114184326Y-123674812D01*
X114187735Y-123676223D01*
X114235048Y-123697517D01*
X114244325Y-123701693D01*
X114244326Y-123701693D01*
X114244330Y-123701695D01*
X114254295Y-123703521D01*
X114275917Y-123709548D01*
X114275928Y-123709552D01*
X114285389Y-123713140D01*
X114330512Y-123718618D01*
X114346935Y-123720613D01*
X114350632Y-123721175D01*
X114411655Y-123732358D01*
X114467013Y-123729009D01*
X114473564Y-123728613D01*
X114477309Y-123728500D01*
X132961640Y-123728500D01*
X132965385Y-123728613D01*
X132972730Y-123729057D01*
X133027294Y-123732358D01*
X133065002Y-123725447D01*
X133088309Y-123721177D01*
X133092013Y-123720613D01*
X133109858Y-123718446D01*
X133153560Y-123713140D01*
X133163023Y-123709550D01*
X133184649Y-123703522D01*
X133185581Y-123703351D01*
X133194620Y-123701695D01*
X133251200Y-123676229D01*
X133254630Y-123674809D01*
X133312618Y-123652818D01*
X133320954Y-123647062D01*
X133340509Y-123636034D01*
X133349745Y-123631878D01*
X133398584Y-123593613D01*
X133401564Y-123591421D01*
X133452617Y-123556183D01*
X133493753Y-123509748D01*
X133496287Y-123507056D01*
X136809048Y-120194294D01*
X136811740Y-120191760D01*
X136858183Y-120150617D01*
X136893427Y-120099555D01*
X136895634Y-120096557D01*
X136896710Y-120095184D01*
X136918079Y-120067909D01*
X146141779Y-120067909D01*
X146171468Y-120337735D01*
X146171470Y-120337748D01*
X146224537Y-120540734D01*
X146240132Y-120600384D01*
X146346303Y-120850224D01*
X146366806Y-120883819D01*
X146487716Y-121081940D01*
X146487717Y-121081942D01*
X146564025Y-121173635D01*
X146661368Y-121290604D01*
X146863546Y-121471757D01*
X147089947Y-121621542D01*
X147335743Y-121736767D01*
X147595697Y-121814975D01*
X147864268Y-121854500D01*
X147864273Y-121854500D01*
X148067786Y-121854500D01*
X148119394Y-121850722D01*
X148270740Y-121839645D01*
X148381488Y-121814975D01*
X148535702Y-121780623D01*
X148535704Y-121780622D01*
X148535709Y-121780621D01*
X148789261Y-121683646D01*
X149025991Y-121550786D01*
X149240853Y-121384875D01*
X149429269Y-121189447D01*
X149587223Y-120968668D01*
X149711348Y-120727244D01*
X149798998Y-120470320D01*
X149848306Y-120203371D01*
X149858220Y-119932089D01*
X149828530Y-119662253D01*
X149759868Y-119399616D01*
X149653697Y-119149776D01*
X149512281Y-118918056D01*
X149338632Y-118709396D01*
X149284910Y-118661261D01*
X149136454Y-118528243D01*
X148910055Y-118378459D01*
X148887981Y-118368111D01*
X148664257Y-118263233D01*
X148404303Y-118185025D01*
X148404301Y-118185024D01*
X148404299Y-118185024D01*
X148307999Y-118170852D01*
X148135732Y-118145500D01*
X147932219Y-118145500D01*
X147932214Y-118145500D01*
X147729260Y-118160355D01*
X147729246Y-118160357D01*
X147464297Y-118219376D01*
X147464290Y-118219379D01*
X147210736Y-118316355D01*
X146974012Y-118449211D01*
X146759140Y-118615130D01*
X146759139Y-118615132D01*
X146570734Y-118810549D01*
X146570732Y-118810551D01*
X146412778Y-119031329D01*
X146288656Y-119272746D01*
X146288649Y-119272762D01*
X146201005Y-119529666D01*
X146201001Y-119529684D01*
X146151693Y-119796631D01*
X146151693Y-119796633D01*
X146141779Y-120067909D01*
X136918079Y-120067909D01*
X136933878Y-120047744D01*
X136938037Y-120038501D01*
X136949061Y-120018956D01*
X136954818Y-120010618D01*
X136976810Y-119952627D01*
X136978232Y-119949191D01*
X137003695Y-119892619D01*
X137005522Y-119882647D01*
X137011546Y-119861035D01*
X137015140Y-119851560D01*
X137021809Y-119796631D01*
X137022613Y-119790012D01*
X137023177Y-119786307D01*
X137029458Y-119752029D01*
X137034358Y-119725294D01*
X137030613Y-119663384D01*
X137030500Y-119659639D01*
X137030500Y-90813727D01*
X137050185Y-90746688D01*
X137099446Y-90704002D01*
X137099100Y-90703402D01*
X137102215Y-90701603D01*
X137102989Y-90700933D01*
X137104070Y-90700445D01*
X137104212Y-90700381D01*
X137104730Y-90700151D01*
X137257871Y-90588888D01*
X137384533Y-90448216D01*
X137479179Y-90284284D01*
X137537674Y-90104256D01*
X137557460Y-89916000D01*
X137537674Y-89727744D01*
X137479179Y-89547716D01*
X137384533Y-89383784D01*
X137257871Y-89243112D01*
X137257870Y-89243111D01*
X137104731Y-89131849D01*
X137099384Y-89128762D01*
X137051169Y-89078194D01*
X137037948Y-89009586D01*
X137038065Y-89008415D01*
X137049460Y-88900000D01*
X137029674Y-88711744D01*
X136974109Y-88540734D01*
X136971181Y-88531722D01*
X136971180Y-88531721D01*
X136971179Y-88531716D01*
X136876533Y-88367784D01*
X136749871Y-88227112D01*
X136686139Y-88180808D01*
X136643475Y-88125479D01*
X136637496Y-88055865D01*
X136670102Y-87994071D01*
X136671275Y-87992880D01*
X147455130Y-77209025D01*
X147516451Y-77175542D01*
X147553617Y-77173180D01*
X147558803Y-77173633D01*
X147558808Y-77173635D01*
X147763763Y-77191566D01*
X147785499Y-77193468D01*
X147785500Y-77193468D01*
X147785502Y-77193468D01*
X147842307Y-77188498D01*
X148012192Y-77173635D01*
X148231996Y-77114739D01*
X148438234Y-77018568D01*
X148624639Y-76888047D01*
X148785547Y-76727139D01*
X148916068Y-76540734D01*
X149012239Y-76334496D01*
X149071135Y-76114692D01*
X149090968Y-75888000D01*
X149071135Y-75661308D01*
X149012239Y-75441504D01*
X148916068Y-75235266D01*
X148785547Y-75048861D01*
X148785545Y-75048858D01*
X148624641Y-74887954D01*
X148438234Y-74757432D01*
X148438232Y-74757431D01*
X148231997Y-74661261D01*
X148231988Y-74661258D01*
X148012197Y-74602366D01*
X148012193Y-74602365D01*
X148012192Y-74602365D01*
X148012191Y-74602364D01*
X148012186Y-74602364D01*
X147785502Y-74582532D01*
X147785498Y-74582532D01*
X147558813Y-74602364D01*
X147558802Y-74602366D01*
X147339011Y-74661258D01*
X147339002Y-74661261D01*
X147132767Y-74757431D01*
X147132765Y-74757432D01*
X146946358Y-74887954D01*
X146785454Y-75048858D01*
X146654932Y-75235265D01*
X146654931Y-75235267D01*
X146558761Y-75441502D01*
X146558758Y-75441511D01*
X146499866Y-75661302D01*
X146499864Y-75661313D01*
X146480032Y-75887998D01*
X146480032Y-75888001D01*
X146500319Y-76119881D01*
X146486552Y-76188381D01*
X146464472Y-76218369D01*
X135280181Y-87402661D01*
X135218858Y-87436146D01*
X135149166Y-87431162D01*
X135093233Y-87389290D01*
X135068816Y-87323826D01*
X135068500Y-87314980D01*
X135068500Y-76987035D01*
X135068613Y-76983290D01*
X135072357Y-76921394D01*
X135061177Y-76860386D01*
X135060615Y-76856689D01*
X135053140Y-76795129D01*
X135053139Y-76795125D01*
X135049546Y-76785651D01*
X135043519Y-76764029D01*
X135041694Y-76754070D01*
X135041694Y-76754068D01*
X135033509Y-76735883D01*
X135033503Y-76735870D01*
X138865000Y-76735870D01*
X138865001Y-76735876D01*
X138871408Y-76795483D01*
X138921702Y-76930328D01*
X138921706Y-76930335D01*
X139007952Y-77045544D01*
X139007955Y-77045547D01*
X139123164Y-77131793D01*
X139123171Y-77131797D01*
X139258017Y-77182091D01*
X139258016Y-77182091D01*
X139264944Y-77182835D01*
X139317627Y-77188500D01*
X141013372Y-77188499D01*
X141072983Y-77182091D01*
X141207831Y-77131796D01*
X141323046Y-77045546D01*
X141409296Y-76930331D01*
X141459591Y-76795483D01*
X141466000Y-76735873D01*
X141465999Y-75040128D01*
X141459591Y-74980517D01*
X141452561Y-74961669D01*
X141409297Y-74845671D01*
X141409293Y-74845664D01*
X141323047Y-74730455D01*
X141323044Y-74730452D01*
X141207835Y-74644206D01*
X141207828Y-74644202D01*
X141072982Y-74593908D01*
X141072983Y-74593908D01*
X141013383Y-74587501D01*
X141013381Y-74587500D01*
X141013373Y-74587500D01*
X141013364Y-74587500D01*
X139317629Y-74587500D01*
X139317623Y-74587501D01*
X139258016Y-74593908D01*
X139123171Y-74644202D01*
X139123164Y-74644206D01*
X139007955Y-74730452D01*
X139007952Y-74730455D01*
X138921706Y-74845664D01*
X138921702Y-74845671D01*
X138871408Y-74980517D01*
X138868847Y-75004342D01*
X138865001Y-75040123D01*
X138865000Y-75040135D01*
X138865000Y-76735870D01*
X135033503Y-76735870D01*
X135016243Y-76697520D01*
X135014809Y-76694057D01*
X134992818Y-76636070D01*
X134987059Y-76627727D01*
X134976030Y-76608172D01*
X134971877Y-76598943D01*
X134971874Y-76598938D01*
X134933633Y-76550127D01*
X134931413Y-76547110D01*
X134899765Y-76501261D01*
X134896183Y-76496071D01*
X134849750Y-76454935D01*
X134847056Y-76452399D01*
X134671027Y-76276370D01*
X134637542Y-76215047D01*
X134635180Y-76177881D01*
X134635633Y-76172697D01*
X134635635Y-76172692D01*
X134655468Y-75946000D01*
X134635635Y-75719308D01*
X134576739Y-75499504D01*
X134480568Y-75293266D01*
X134350047Y-75106861D01*
X134350045Y-75106858D01*
X134189141Y-74945954D01*
X134002734Y-74815432D01*
X134002732Y-74815431D01*
X133796497Y-74719261D01*
X133796488Y-74719258D01*
X133576697Y-74660366D01*
X133576693Y-74660365D01*
X133576692Y-74660365D01*
X133576691Y-74660364D01*
X133576686Y-74660364D01*
X133350002Y-74640532D01*
X133349998Y-74640532D01*
X133123313Y-74660364D01*
X133123302Y-74660366D01*
X132903511Y-74719258D01*
X132903502Y-74719261D01*
X132697267Y-74815431D01*
X132697265Y-74815432D01*
X132510858Y-74945954D01*
X132349954Y-75106858D01*
X132219432Y-75293265D01*
X132219431Y-75293267D01*
X132123261Y-75499502D01*
X132123258Y-75499511D01*
X132064366Y-75719302D01*
X132064364Y-75719313D01*
X132044532Y-75945998D01*
X132044532Y-75946001D01*
X132064364Y-76172686D01*
X132064366Y-76172697D01*
X132123258Y-76392488D01*
X132123261Y-76392497D01*
X132219431Y-76598732D01*
X132219432Y-76598734D01*
X132349954Y-76785141D01*
X132510858Y-76946045D01*
X132510861Y-76946047D01*
X132697266Y-77076568D01*
X132903504Y-77172739D01*
X132903509Y-77172740D01*
X132903511Y-77172741D01*
X132913965Y-77175542D01*
X133123308Y-77231635D01*
X133285230Y-77245801D01*
X133349998Y-77251468D01*
X133350000Y-77251468D01*
X133350001Y-77251468D01*
X133376975Y-77249107D01*
X133532693Y-77235484D01*
X133601192Y-77249250D01*
X133651375Y-77297866D01*
X133667500Y-77359012D01*
X133667500Y-113382688D01*
X133647815Y-113449727D01*
X133595011Y-113495482D01*
X133525853Y-113505426D01*
X133506619Y-113501076D01*
X133500936Y-113499305D01*
X133490946Y-113497474D01*
X133469343Y-113491451D01*
X133459874Y-113487860D01*
X133459870Y-113487859D01*
X133398313Y-113480384D01*
X133394612Y-113479821D01*
X133333608Y-113468642D01*
X133333603Y-113468642D01*
X133271697Y-113472387D01*
X133267952Y-113472500D01*
X129409415Y-113472500D01*
X129342376Y-113452815D01*
X129321734Y-113436181D01*
X128523053Y-112637500D01*
X127547494Y-111661941D01*
X127544960Y-111659250D01*
X127503825Y-111612817D01*
X127503824Y-111612816D01*
X127503820Y-111612812D01*
X127452792Y-111577591D01*
X127449783Y-111575377D01*
X127400956Y-111537124D01*
X127400951Y-111537120D01*
X127391709Y-111532961D01*
X127372162Y-111521936D01*
X127363827Y-111516183D01*
X127363828Y-111516183D01*
X127363826Y-111516182D01*
X127305837Y-111494189D01*
X127302386Y-111492759D01*
X127245826Y-111467304D01*
X127235842Y-111465474D01*
X127214239Y-111459451D01*
X127204770Y-111455860D01*
X127204766Y-111455859D01*
X127143209Y-111448384D01*
X127139508Y-111447821D01*
X127078504Y-111436642D01*
X127078499Y-111436642D01*
X127016593Y-111440387D01*
X127012848Y-111440500D01*
X125417207Y-111440500D01*
X125350168Y-111420815D01*
X125329526Y-111404181D01*
X109879833Y-95954488D01*
X94415286Y-80489941D01*
X94412752Y-80487250D01*
X94371617Y-80440817D01*
X94371616Y-80440816D01*
X94371612Y-80440812D01*
X94320584Y-80405591D01*
X94317575Y-80403377D01*
X94268748Y-80365124D01*
X94268743Y-80365120D01*
X94259501Y-80360961D01*
X94239954Y-80349936D01*
X94238345Y-80348826D01*
X94231618Y-80344182D01*
X94173629Y-80322189D01*
X94170178Y-80320759D01*
X94113618Y-80295304D01*
X94103634Y-80293474D01*
X94082031Y-80287451D01*
X94072562Y-80283860D01*
X94072558Y-80283859D01*
X94011001Y-80276384D01*
X94007300Y-80275821D01*
X93946296Y-80264642D01*
X93946291Y-80264642D01*
X93884385Y-80268387D01*
X93880640Y-80268500D01*
X58356141Y-80268500D01*
X58352397Y-80268387D01*
X58290501Y-80264643D01*
X58290494Y-80264643D01*
X58229506Y-80275819D01*
X58225805Y-80276382D01*
X58164229Y-80283860D01*
X58154746Y-80287456D01*
X58133142Y-80293478D01*
X58131639Y-80293754D01*
X58123169Y-80295306D01*
X58066626Y-80320754D01*
X58063167Y-80322187D01*
X58026971Y-80335915D01*
X58005174Y-80344182D01*
X58005172Y-80344183D01*
X58005170Y-80344184D01*
X58005165Y-80344186D01*
X57996826Y-80349942D01*
X57977294Y-80360959D01*
X57968050Y-80365120D01*
X57968048Y-80365121D01*
X57968047Y-80365122D01*
X57938348Y-80388388D01*
X57919228Y-80403368D01*
X57916213Y-80405586D01*
X57865172Y-80440818D01*
X57824046Y-80487240D01*
X57821479Y-80489966D01*
X53700266Y-84611181D01*
X53638943Y-84644666D01*
X53612585Y-84647500D01*
X44341673Y-84647500D01*
X44274634Y-84627815D01*
X44240098Y-84594623D01*
X44180045Y-84508858D01*
X44019141Y-84347954D01*
X43832734Y-84217432D01*
X43832728Y-84217429D01*
X43774725Y-84190382D01*
X43722285Y-84144210D01*
X43703133Y-84077017D01*
X43723348Y-84010135D01*
X43774725Y-83965618D01*
X43832734Y-83938568D01*
X44019139Y-83808047D01*
X44180047Y-83647139D01*
X44310568Y-83460734D01*
X44406739Y-83254496D01*
X44465635Y-83034692D01*
X44485468Y-82808000D01*
X44465635Y-82581308D01*
X44406739Y-82361504D01*
X44310568Y-82155266D01*
X44180047Y-81968861D01*
X44180045Y-81968858D01*
X44019141Y-81807954D01*
X43832734Y-81677432D01*
X43832728Y-81677429D01*
X43774725Y-81650382D01*
X43722285Y-81604210D01*
X43703133Y-81537017D01*
X43723348Y-81470135D01*
X43774725Y-81425618D01*
X43832734Y-81398568D01*
X44019139Y-81268047D01*
X44180047Y-81107139D01*
X44310568Y-80920734D01*
X44406739Y-80714496D01*
X44465635Y-80494692D01*
X44484081Y-80283859D01*
X44485468Y-80268001D01*
X44485468Y-80267998D01*
X44465635Y-80041313D01*
X44465635Y-80041308D01*
X44406739Y-79821504D01*
X44310568Y-79615266D01*
X44180047Y-79428861D01*
X44180045Y-79428858D01*
X44019141Y-79267954D01*
X43832734Y-79137432D01*
X43832728Y-79137429D01*
X43774725Y-79110382D01*
X43722285Y-79064210D01*
X43703133Y-78997017D01*
X43723348Y-78930135D01*
X43774725Y-78885618D01*
X43832734Y-78858568D01*
X44019139Y-78728047D01*
X44180047Y-78567139D01*
X44310568Y-78380734D01*
X44406739Y-78174496D01*
X44465635Y-77954692D01*
X44485468Y-77728000D01*
X44465635Y-77501308D01*
X44412901Y-77304500D01*
X44406741Y-77281511D01*
X44406738Y-77281502D01*
X44392733Y-77251468D01*
X44310568Y-77075266D01*
X44180047Y-76888861D01*
X44180045Y-76888858D01*
X44143057Y-76851870D01*
X95770000Y-76851870D01*
X95770001Y-76851876D01*
X95776408Y-76911483D01*
X95826702Y-77046328D01*
X95826706Y-77046335D01*
X95912952Y-77161544D01*
X95912955Y-77161547D01*
X96028164Y-77247793D01*
X96028171Y-77247797D01*
X96163017Y-77298091D01*
X96163016Y-77298091D01*
X96169944Y-77298835D01*
X96222627Y-77304500D01*
X97918372Y-77304499D01*
X97977983Y-77298091D01*
X98112831Y-77247796D01*
X98228046Y-77161546D01*
X98314296Y-77046331D01*
X98364591Y-76911483D01*
X98371000Y-76851873D01*
X98370999Y-75753999D01*
X103411627Y-75753999D01*
X103411628Y-75754000D01*
X104179924Y-75754000D01*
X104246963Y-75773685D01*
X104292718Y-75826489D01*
X104302662Y-75895647D01*
X104302397Y-75897397D01*
X104285514Y-76003996D01*
X104285514Y-76004003D01*
X104302397Y-76110603D01*
X104293442Y-76179896D01*
X104248446Y-76233348D01*
X104181694Y-76253987D01*
X104179924Y-76254000D01*
X103411628Y-76254000D01*
X103464230Y-76450317D01*
X103464234Y-76450326D01*
X103560365Y-76656482D01*
X103690842Y-76842820D01*
X103851679Y-77003657D01*
X104038017Y-77134134D01*
X104244173Y-77230265D01*
X104244182Y-77230269D01*
X104440499Y-77282872D01*
X104440500Y-77282871D01*
X104440500Y-76514575D01*
X104460185Y-76447536D01*
X104512989Y-76401781D01*
X104582147Y-76391837D01*
X104583831Y-76392091D01*
X104616199Y-76397218D01*
X104659015Y-76404000D01*
X104659019Y-76404000D01*
X104721985Y-76404000D01*
X104764800Y-76397218D01*
X104797102Y-76392102D01*
X104866394Y-76401056D01*
X104919847Y-76446052D01*
X104940487Y-76512803D01*
X104940500Y-76514575D01*
X104940500Y-77282872D01*
X105136817Y-77230269D01*
X105136826Y-77230265D01*
X105342982Y-77134134D01*
X105529320Y-77003657D01*
X105690157Y-76842820D01*
X105724433Y-76793870D01*
X110205500Y-76793870D01*
X110205501Y-76793876D01*
X110211908Y-76853483D01*
X110262202Y-76988328D01*
X110262206Y-76988335D01*
X110348452Y-77103544D01*
X110348455Y-77103547D01*
X110463664Y-77189793D01*
X110463671Y-77189797D01*
X110598517Y-77240091D01*
X110598516Y-77240091D01*
X110605444Y-77240835D01*
X110658127Y-77246500D01*
X112353872Y-77246499D01*
X112413483Y-77240091D01*
X112548331Y-77189796D01*
X112663546Y-77103546D01*
X112749796Y-76988331D01*
X112800091Y-76853483D01*
X112806500Y-76793873D01*
X112806500Y-75946001D01*
X117820532Y-75946001D01*
X117840364Y-76172686D01*
X117840366Y-76172697D01*
X117899258Y-76392488D01*
X117899261Y-76392497D01*
X117995431Y-76598732D01*
X117995432Y-76598734D01*
X118125954Y-76785141D01*
X118286858Y-76946045D01*
X118286861Y-76946047D01*
X118473266Y-77076568D01*
X118679504Y-77172739D01*
X118679509Y-77172740D01*
X118679511Y-77172741D01*
X118689965Y-77175542D01*
X118899308Y-77231635D01*
X119061230Y-77245801D01*
X119125998Y-77251468D01*
X119126000Y-77251468D01*
X119126002Y-77251468D01*
X119182807Y-77246498D01*
X119352692Y-77231635D01*
X119572496Y-77172739D01*
X119778734Y-77076568D01*
X119965139Y-76946047D01*
X120117316Y-76793870D01*
X124429500Y-76793870D01*
X124429501Y-76793876D01*
X124435908Y-76853483D01*
X124486202Y-76988328D01*
X124486206Y-76988335D01*
X124572452Y-77103544D01*
X124572455Y-77103547D01*
X124687664Y-77189793D01*
X124687671Y-77189797D01*
X124822517Y-77240091D01*
X124822516Y-77240091D01*
X124829444Y-77240835D01*
X124882127Y-77246500D01*
X126577872Y-77246499D01*
X126637483Y-77240091D01*
X126772331Y-77189796D01*
X126887546Y-77103546D01*
X126973796Y-76988331D01*
X127024091Y-76853483D01*
X127030500Y-76793873D01*
X127030499Y-75098128D01*
X127024091Y-75038517D01*
X127002458Y-74980517D01*
X126973797Y-74903671D01*
X126973793Y-74903664D01*
X126887547Y-74788455D01*
X126887544Y-74788452D01*
X126772335Y-74702206D01*
X126772328Y-74702202D01*
X126637482Y-74651908D01*
X126637483Y-74651908D01*
X126577883Y-74645501D01*
X126577881Y-74645500D01*
X126577873Y-74645500D01*
X126577864Y-74645500D01*
X124882129Y-74645500D01*
X124882123Y-74645501D01*
X124822516Y-74651908D01*
X124687671Y-74702202D01*
X124687664Y-74702206D01*
X124572455Y-74788452D01*
X124572452Y-74788455D01*
X124486206Y-74903664D01*
X124486202Y-74903671D01*
X124435908Y-75038517D01*
X124429673Y-75096516D01*
X124429501Y-75098123D01*
X124429500Y-75098135D01*
X124429500Y-76793870D01*
X120117316Y-76793870D01*
X120126047Y-76785139D01*
X120256568Y-76598734D01*
X120352739Y-76392496D01*
X120411635Y-76172692D01*
X120431468Y-75946000D01*
X120411635Y-75719308D01*
X120352739Y-75499504D01*
X120256568Y-75293266D01*
X120126047Y-75106861D01*
X120126045Y-75106858D01*
X119965141Y-74945954D01*
X119778734Y-74815432D01*
X119778732Y-74815431D01*
X119572497Y-74719261D01*
X119572488Y-74719258D01*
X119352697Y-74660366D01*
X119352693Y-74660365D01*
X119352692Y-74660365D01*
X119352691Y-74660364D01*
X119352686Y-74660364D01*
X119126002Y-74640532D01*
X119125998Y-74640532D01*
X118899313Y-74660364D01*
X118899302Y-74660366D01*
X118679511Y-74719258D01*
X118679502Y-74719261D01*
X118473267Y-74815431D01*
X118473265Y-74815432D01*
X118286858Y-74945954D01*
X118125954Y-75106858D01*
X117995432Y-75293265D01*
X117995431Y-75293267D01*
X117899261Y-75499502D01*
X117899258Y-75499511D01*
X117840366Y-75719302D01*
X117840364Y-75719313D01*
X117820532Y-75945998D01*
X117820532Y-75946001D01*
X112806500Y-75946001D01*
X112806499Y-75098128D01*
X112800091Y-75038517D01*
X112778458Y-74980517D01*
X112749797Y-74903671D01*
X112749793Y-74903664D01*
X112663547Y-74788455D01*
X112663544Y-74788452D01*
X112548335Y-74702206D01*
X112548328Y-74702202D01*
X112413482Y-74651908D01*
X112413483Y-74651908D01*
X112353883Y-74645501D01*
X112353881Y-74645500D01*
X112353873Y-74645500D01*
X112353864Y-74645500D01*
X110658129Y-74645500D01*
X110658123Y-74645501D01*
X110598516Y-74651908D01*
X110463671Y-74702202D01*
X110463664Y-74702206D01*
X110348455Y-74788452D01*
X110348452Y-74788455D01*
X110262206Y-74903664D01*
X110262202Y-74903671D01*
X110211908Y-75038517D01*
X110205673Y-75096516D01*
X110205501Y-75098123D01*
X110205500Y-75098135D01*
X110205500Y-76793870D01*
X105724433Y-76793870D01*
X105820634Y-76656482D01*
X105916765Y-76450326D01*
X105916769Y-76450317D01*
X105969372Y-76254000D01*
X105201076Y-76254000D01*
X105134037Y-76234315D01*
X105088282Y-76181511D01*
X105078338Y-76112353D01*
X105078603Y-76110603D01*
X105095486Y-76004003D01*
X105095486Y-76003996D01*
X105078603Y-75897397D01*
X105087558Y-75828104D01*
X105132554Y-75774652D01*
X105199306Y-75754013D01*
X105201076Y-75754000D01*
X105969372Y-75754000D01*
X105969372Y-75753999D01*
X105916769Y-75557682D01*
X105916765Y-75557673D01*
X105820634Y-75351517D01*
X105690157Y-75165179D01*
X105529320Y-75004342D01*
X105342982Y-74873865D01*
X105136828Y-74777734D01*
X104940500Y-74725127D01*
X104940500Y-75493424D01*
X104920815Y-75560463D01*
X104868011Y-75606218D01*
X104798853Y-75616162D01*
X104797102Y-75615897D01*
X104721986Y-75604000D01*
X104721981Y-75604000D01*
X104659019Y-75604000D01*
X104659014Y-75604000D01*
X104583898Y-75615897D01*
X104514604Y-75606942D01*
X104461152Y-75561946D01*
X104440513Y-75495194D01*
X104440500Y-75493424D01*
X104440500Y-74725127D01*
X104244171Y-74777734D01*
X104038017Y-74873865D01*
X103851679Y-75004342D01*
X103690842Y-75165179D01*
X103560365Y-75351517D01*
X103464234Y-75557673D01*
X103464230Y-75557682D01*
X103411627Y-75753999D01*
X98370999Y-75753999D01*
X98370999Y-75156128D01*
X98364591Y-75096517D01*
X98346816Y-75048861D01*
X98314297Y-74961671D01*
X98314293Y-74961664D01*
X98228047Y-74846455D01*
X98228044Y-74846452D01*
X98112835Y-74760206D01*
X98112828Y-74760202D01*
X97977982Y-74709908D01*
X97977983Y-74709908D01*
X97918383Y-74703501D01*
X97918381Y-74703500D01*
X97918373Y-74703500D01*
X97918364Y-74703500D01*
X96222629Y-74703500D01*
X96222623Y-74703501D01*
X96163016Y-74709908D01*
X96028171Y-74760202D01*
X96028164Y-74760206D01*
X95912955Y-74846452D01*
X95912952Y-74846455D01*
X95826706Y-74961664D01*
X95826702Y-74961671D01*
X95776408Y-75096517D01*
X95770001Y-75156116D01*
X95770001Y-75156123D01*
X95770000Y-75156135D01*
X95770000Y-76851870D01*
X44143057Y-76851870D01*
X44019141Y-76727954D01*
X43832734Y-76597432D01*
X43832728Y-76597429D01*
X43774725Y-76570382D01*
X43722285Y-76524210D01*
X43703133Y-76457017D01*
X43723348Y-76390135D01*
X43774725Y-76345618D01*
X43832734Y-76318568D01*
X44019139Y-76188047D01*
X44180047Y-76027139D01*
X44310568Y-75840734D01*
X44406739Y-75634496D01*
X44465635Y-75414692D01*
X44485468Y-75188000D01*
X44483471Y-75165179D01*
X44473295Y-75048861D01*
X44465635Y-74961308D01*
X44406739Y-74741504D01*
X44310568Y-74535266D01*
X44180047Y-74348861D01*
X44180045Y-74348858D01*
X44019141Y-74187954D01*
X43832734Y-74057432D01*
X43832732Y-74057431D01*
X43626497Y-73961261D01*
X43626488Y-73961258D01*
X43406697Y-73902366D01*
X43406693Y-73902365D01*
X43406692Y-73902365D01*
X43406691Y-73902364D01*
X43406686Y-73902364D01*
X43180002Y-73882532D01*
X43179998Y-73882532D01*
X42953313Y-73902364D01*
X42953302Y-73902366D01*
X42733511Y-73961258D01*
X42733502Y-73961261D01*
X42527267Y-74057431D01*
X42527265Y-74057432D01*
X42340858Y-74187954D01*
X42179954Y-74348858D01*
X42049432Y-74535265D01*
X42049431Y-74535267D01*
X41953261Y-74741502D01*
X41953258Y-74741511D01*
X41894366Y-74961302D01*
X41894364Y-74961313D01*
X41874532Y-75187998D01*
X41874532Y-75188001D01*
X41894364Y-75414686D01*
X41894366Y-75414697D01*
X41953258Y-75634488D01*
X41953261Y-75634497D01*
X42049431Y-75840732D01*
X42049432Y-75840734D01*
X42179954Y-76027141D01*
X42340858Y-76188045D01*
X42340861Y-76188047D01*
X42527266Y-76318568D01*
X42561426Y-76334497D01*
X42585275Y-76345618D01*
X42637714Y-76391791D01*
X42656866Y-76458984D01*
X42636650Y-76525865D01*
X42585275Y-76570382D01*
X42527267Y-76597431D01*
X42527265Y-76597432D01*
X42340858Y-76727954D01*
X42179954Y-76888858D01*
X42049432Y-77075265D01*
X42049431Y-77075267D01*
X41953261Y-77281502D01*
X41953258Y-77281511D01*
X41894366Y-77501302D01*
X41894364Y-77501313D01*
X41874532Y-77727998D01*
X41874532Y-77728001D01*
X41894364Y-77954686D01*
X41894366Y-77954697D01*
X41953258Y-78174488D01*
X41953261Y-78174497D01*
X42049431Y-78380732D01*
X42049432Y-78380734D01*
X42179954Y-78567141D01*
X42340858Y-78728045D01*
X42340861Y-78728047D01*
X42527266Y-78858568D01*
X42585275Y-78885618D01*
X42637714Y-78931791D01*
X42656866Y-78998984D01*
X42636650Y-79065865D01*
X42585275Y-79110382D01*
X42527267Y-79137431D01*
X42527265Y-79137432D01*
X42340858Y-79267954D01*
X42179954Y-79428858D01*
X42049432Y-79615265D01*
X42049431Y-79615267D01*
X41953261Y-79821502D01*
X41953258Y-79821511D01*
X41894366Y-80041302D01*
X41894364Y-80041313D01*
X41874532Y-80267998D01*
X41874532Y-80268001D01*
X41894364Y-80494686D01*
X41894366Y-80494697D01*
X41953258Y-80714488D01*
X41953261Y-80714497D01*
X42049431Y-80920732D01*
X42049432Y-80920734D01*
X42179954Y-81107141D01*
X42340858Y-81268045D01*
X42340861Y-81268047D01*
X42527266Y-81398568D01*
X42585278Y-81425619D01*
X42637713Y-81471788D01*
X42656866Y-81538982D01*
X42636651Y-81605863D01*
X42585277Y-81650380D01*
X42527268Y-81677430D01*
X42527265Y-81677432D01*
X42340858Y-81807954D01*
X42179954Y-81968858D01*
X42049432Y-82155265D01*
X42049431Y-82155267D01*
X41953261Y-82361502D01*
X41953258Y-82361511D01*
X41894366Y-82581302D01*
X41894364Y-82581313D01*
X41874532Y-82807998D01*
X41874532Y-82808001D01*
X41894364Y-83034686D01*
X41894366Y-83034697D01*
X41953258Y-83254488D01*
X41953261Y-83254497D01*
X42049431Y-83460732D01*
X42049432Y-83460734D01*
X42179954Y-83647141D01*
X42340858Y-83808045D01*
X42340861Y-83808047D01*
X42527266Y-83938568D01*
X42585278Y-83965619D01*
X42637713Y-84011788D01*
X42656866Y-84078982D01*
X42636651Y-84145863D01*
X42585277Y-84190380D01*
X42527268Y-84217430D01*
X42527265Y-84217432D01*
X42340858Y-84347954D01*
X42179954Y-84508858D01*
X42049432Y-84695265D01*
X42049431Y-84695267D01*
X41953261Y-84901502D01*
X41953258Y-84901511D01*
X41894366Y-85121302D01*
X41894364Y-85121313D01*
X41874532Y-85347998D01*
X41874532Y-85348001D01*
X41894364Y-85574686D01*
X41894366Y-85574697D01*
X41953258Y-85794488D01*
X41953261Y-85794497D01*
X42049431Y-86000732D01*
X42049432Y-86000734D01*
X42179954Y-86187141D01*
X42340858Y-86348045D01*
X42340861Y-86348047D01*
X42527266Y-86478568D01*
X42585275Y-86505618D01*
X42637714Y-86551791D01*
X42656866Y-86618984D01*
X42636650Y-86685865D01*
X42585275Y-86730382D01*
X42527267Y-86757431D01*
X42527265Y-86757432D01*
X42340858Y-86887954D01*
X42179954Y-87048858D01*
X42049432Y-87235265D01*
X42049431Y-87235267D01*
X41953261Y-87441502D01*
X41953258Y-87441511D01*
X41894366Y-87661302D01*
X41894364Y-87661313D01*
X41874532Y-87887998D01*
X41874532Y-87888001D01*
X41894364Y-88114686D01*
X41894366Y-88114697D01*
X41953258Y-88334488D01*
X41953261Y-88334497D01*
X42049431Y-88540732D01*
X42049432Y-88540734D01*
X42179954Y-88727141D01*
X42340858Y-88888045D01*
X42340861Y-88888047D01*
X42527266Y-89018568D01*
X42585275Y-89045618D01*
X42637714Y-89091791D01*
X42656866Y-89158984D01*
X42636650Y-89225865D01*
X42585275Y-89270382D01*
X42527267Y-89297431D01*
X42527265Y-89297432D01*
X42340858Y-89427954D01*
X42179954Y-89588858D01*
X42049432Y-89775265D01*
X42049431Y-89775267D01*
X41953261Y-89981502D01*
X41953258Y-89981511D01*
X41894366Y-90201302D01*
X41894364Y-90201313D01*
X41874532Y-90427998D01*
X41874532Y-90428001D01*
X41894364Y-90654686D01*
X41894366Y-90654697D01*
X41953258Y-90874488D01*
X41953261Y-90874497D01*
X42049431Y-91080732D01*
X42049432Y-91080734D01*
X42179954Y-91267141D01*
X42340858Y-91428045D01*
X42340861Y-91428047D01*
X42527266Y-91558568D01*
X42585275Y-91585618D01*
X42637714Y-91631791D01*
X42656866Y-91698984D01*
X42636650Y-91765865D01*
X42585275Y-91810382D01*
X42527267Y-91837431D01*
X42527265Y-91837432D01*
X42340858Y-91967954D01*
X42179954Y-92128858D01*
X42049432Y-92315265D01*
X42049431Y-92315267D01*
X41953261Y-92521502D01*
X41953258Y-92521511D01*
X41894366Y-92741302D01*
X41894364Y-92741313D01*
X41874532Y-92967998D01*
X41874532Y-92968001D01*
X41894364Y-93194686D01*
X41894366Y-93194697D01*
X41953258Y-93414488D01*
X41953261Y-93414497D01*
X42049431Y-93620732D01*
X42049432Y-93620734D01*
X42179954Y-93807141D01*
X42340858Y-93968045D01*
X42340861Y-93968047D01*
X42527266Y-94098568D01*
X42585275Y-94125618D01*
X42637714Y-94171791D01*
X42656866Y-94238984D01*
X42636650Y-94305865D01*
X42585275Y-94350382D01*
X42527267Y-94377431D01*
X42527265Y-94377432D01*
X42340858Y-94507954D01*
X42179954Y-94668858D01*
X42049432Y-94855265D01*
X42049431Y-94855267D01*
X41953261Y-95061502D01*
X41953258Y-95061511D01*
X41894366Y-95281302D01*
X41894364Y-95281313D01*
X41874532Y-95507998D01*
X41874532Y-95508001D01*
X41894364Y-95734686D01*
X41894366Y-95734697D01*
X41953258Y-95954488D01*
X41953261Y-95954497D01*
X42049431Y-96160732D01*
X42049432Y-96160734D01*
X42179954Y-96347141D01*
X42340858Y-96508045D01*
X42340861Y-96508047D01*
X42527266Y-96638568D01*
X42585275Y-96665618D01*
X42637714Y-96711791D01*
X42656866Y-96778984D01*
X42636650Y-96845865D01*
X42585275Y-96890382D01*
X42527267Y-96917431D01*
X42527265Y-96917432D01*
X42340858Y-97047954D01*
X42179954Y-97208858D01*
X42049432Y-97395265D01*
X42049431Y-97395267D01*
X41953261Y-97601502D01*
X41953258Y-97601511D01*
X41894366Y-97821302D01*
X41894364Y-97821313D01*
X41874532Y-98047998D01*
X41874532Y-98048001D01*
X41894364Y-98274686D01*
X41894366Y-98274697D01*
X41953258Y-98494488D01*
X41953261Y-98494497D01*
X42049431Y-98700732D01*
X42049432Y-98700734D01*
X42179954Y-98887141D01*
X42340858Y-99048045D01*
X42340861Y-99048047D01*
X42527266Y-99178568D01*
X42733504Y-99274739D01*
X42953308Y-99333635D01*
X43115230Y-99347801D01*
X43179998Y-99353468D01*
X43180000Y-99353468D01*
X43180002Y-99353468D01*
X43236673Y-99348509D01*
X43406692Y-99333635D01*
X43626496Y-99274739D01*
X43832734Y-99178568D01*
X44019139Y-99048047D01*
X44180047Y-98887139D01*
X44240096Y-98801377D01*
X44294675Y-98757752D01*
X44341673Y-98748500D01*
X54526481Y-98748500D01*
X54593520Y-98768185D01*
X54614162Y-98784819D01*
X58543002Y-102713659D01*
X58576487Y-102774982D01*
X58571503Y-102844674D01*
X58529631Y-102900607D01*
X58528207Y-102901658D01*
X58449127Y-102959113D01*
X58322466Y-103099785D01*
X58227821Y-103263715D01*
X58227818Y-103263722D01*
X58179163Y-103413468D01*
X58169326Y-103443744D01*
X58149540Y-103632000D01*
X58169326Y-103820256D01*
X58169327Y-103820259D01*
X58227818Y-104000277D01*
X58227821Y-104000284D01*
X58322466Y-104164215D01*
X58322648Y-104164417D01*
X58322716Y-104164559D01*
X58326285Y-104169471D01*
X58325386Y-104170123D01*
X58352879Y-104227408D01*
X58354500Y-104247391D01*
X58354500Y-107461608D01*
X58334815Y-107528647D01*
X58322656Y-107544574D01*
X58322468Y-107544782D01*
X58322464Y-107544787D01*
X58227821Y-107708715D01*
X58227818Y-107708722D01*
X58169326Y-107888742D01*
X58169325Y-107888746D01*
X58163789Y-107941415D01*
X58137204Y-108006029D01*
X58079906Y-108046013D01*
X58010087Y-108048671D01*
X57952788Y-108016132D01*
X56285514Y-106348858D01*
X54105598Y-104168941D01*
X54103064Y-104166250D01*
X54061929Y-104119817D01*
X54061928Y-104119816D01*
X54061924Y-104119812D01*
X54010896Y-104084591D01*
X54007887Y-104082377D01*
X53959060Y-104044124D01*
X53959055Y-104044120D01*
X53949813Y-104039961D01*
X53930266Y-104028936D01*
X53921931Y-104023183D01*
X53921932Y-104023183D01*
X53921930Y-104023182D01*
X53863941Y-104001189D01*
X53860490Y-103999759D01*
X53803930Y-103974304D01*
X53793946Y-103972474D01*
X53772343Y-103966451D01*
X53762874Y-103962860D01*
X53762870Y-103962859D01*
X53701313Y-103955384D01*
X53697612Y-103954821D01*
X53636608Y-103943642D01*
X53636603Y-103943642D01*
X53574697Y-103947387D01*
X53570952Y-103947500D01*
X44341673Y-103947500D01*
X44274634Y-103927815D01*
X44240098Y-103894623D01*
X44180045Y-103808858D01*
X44019141Y-103647954D01*
X43832734Y-103517432D01*
X43832728Y-103517429D01*
X43774725Y-103490382D01*
X43722285Y-103444210D01*
X43703133Y-103377017D01*
X43723348Y-103310135D01*
X43774725Y-103265618D01*
X43778806Y-103263715D01*
X43832734Y-103238568D01*
X44019139Y-103108047D01*
X44180047Y-102947139D01*
X44240096Y-102861377D01*
X44294675Y-102817752D01*
X44341673Y-102808500D01*
X55470173Y-102808500D01*
X55537212Y-102828185D01*
X55543058Y-102832182D01*
X55584281Y-102862132D01*
X55584286Y-102862135D01*
X55757208Y-102939126D01*
X55757213Y-102939128D01*
X55942370Y-102978484D01*
X55942371Y-102978484D01*
X56131660Y-102978484D01*
X56131662Y-102978484D01*
X56316819Y-102939128D01*
X56489746Y-102862135D01*
X56642887Y-102750872D01*
X56769549Y-102610200D01*
X56864195Y-102446268D01*
X56922690Y-102266240D01*
X56942476Y-102077984D01*
X56922690Y-101889728D01*
X56864195Y-101709700D01*
X56769549Y-101545768D01*
X56642887Y-101405096D01*
X56619102Y-101387815D01*
X56489750Y-101293835D01*
X56489745Y-101293832D01*
X56316823Y-101216841D01*
X56316818Y-101216839D01*
X56171016Y-101185849D01*
X56131662Y-101177484D01*
X55942370Y-101177484D01*
X55909913Y-101184382D01*
X55757213Y-101216839D01*
X55757208Y-101216841D01*
X55584286Y-101293832D01*
X55518811Y-101341402D01*
X55460430Y-101383818D01*
X55394626Y-101407298D01*
X55387547Y-101407500D01*
X44341673Y-101407500D01*
X44274634Y-101387815D01*
X44240098Y-101354623D01*
X44180045Y-101268858D01*
X44019141Y-101107954D01*
X43832734Y-100977432D01*
X43832732Y-100977431D01*
X43626497Y-100881261D01*
X43626488Y-100881258D01*
X43406697Y-100822366D01*
X43406693Y-100822365D01*
X43406692Y-100822365D01*
X43406691Y-100822364D01*
X43406686Y-100822364D01*
X43180002Y-100802532D01*
X43179998Y-100802532D01*
X42953313Y-100822364D01*
X42953302Y-100822366D01*
X42733511Y-100881258D01*
X42733502Y-100881261D01*
X42527267Y-100977431D01*
X42527265Y-100977432D01*
X42340858Y-101107954D01*
X42179954Y-101268858D01*
X42049432Y-101455265D01*
X42049431Y-101455267D01*
X41953261Y-101661502D01*
X41953258Y-101661511D01*
X41894366Y-101881302D01*
X41894364Y-101881313D01*
X41874532Y-102107998D01*
X41874532Y-102108001D01*
X41894364Y-102334686D01*
X41894366Y-102334697D01*
X41953258Y-102554488D01*
X41953261Y-102554497D01*
X42049431Y-102760732D01*
X42049432Y-102760734D01*
X42179954Y-102947141D01*
X42340858Y-103108045D01*
X42340861Y-103108047D01*
X42527266Y-103238568D01*
X42581194Y-103263715D01*
X42585275Y-103265618D01*
X42637714Y-103311791D01*
X42656866Y-103378984D01*
X42636650Y-103445865D01*
X42585275Y-103490382D01*
X42527267Y-103517431D01*
X42527265Y-103517432D01*
X42340858Y-103647954D01*
X42179954Y-103808858D01*
X42049432Y-103995265D01*
X42049431Y-103995267D01*
X41953261Y-104201502D01*
X41953258Y-104201511D01*
X41894366Y-104421302D01*
X41894364Y-104421313D01*
X41874532Y-104647998D01*
X41874532Y-104648001D01*
X41894364Y-104874686D01*
X41894366Y-104874697D01*
X41953258Y-105094488D01*
X41953261Y-105094497D01*
X42049431Y-105300732D01*
X42049432Y-105300734D01*
X42179954Y-105487141D01*
X42340858Y-105648045D01*
X42340861Y-105648047D01*
X42527266Y-105778568D01*
X42585275Y-105805618D01*
X42637714Y-105851791D01*
X42656866Y-105918984D01*
X42636650Y-105985865D01*
X42585275Y-106030382D01*
X42527267Y-106057431D01*
X42527265Y-106057432D01*
X42340858Y-106187954D01*
X42179954Y-106348858D01*
X42049432Y-106535265D01*
X42049431Y-106535267D01*
X41953261Y-106741502D01*
X41953258Y-106741511D01*
X41894366Y-106961302D01*
X41894364Y-106961313D01*
X41874532Y-107187998D01*
X41874532Y-107188001D01*
X41894364Y-107414686D01*
X41894366Y-107414697D01*
X41953258Y-107634488D01*
X41953261Y-107634497D01*
X42049431Y-107840732D01*
X42049432Y-107840734D01*
X42179954Y-108027141D01*
X42340858Y-108188045D01*
X42340861Y-108188047D01*
X42527266Y-108318568D01*
X42585278Y-108345619D01*
X42637713Y-108391788D01*
X42656866Y-108458982D01*
X42636651Y-108525863D01*
X42585277Y-108570380D01*
X42527268Y-108597430D01*
X42527265Y-108597432D01*
X42340858Y-108727954D01*
X42179954Y-108888858D01*
X42049432Y-109075265D01*
X42049431Y-109075267D01*
X41953261Y-109281502D01*
X41953258Y-109281511D01*
X41894366Y-109501302D01*
X41894364Y-109501313D01*
X41874532Y-109727998D01*
X41874532Y-109728001D01*
X41894364Y-109954686D01*
X41894366Y-109954697D01*
X41953258Y-110174488D01*
X41953261Y-110174497D01*
X42049431Y-110380732D01*
X42049432Y-110380734D01*
X42179954Y-110567141D01*
X42340858Y-110728045D01*
X42340861Y-110728047D01*
X42527266Y-110858568D01*
X42585278Y-110885619D01*
X42637713Y-110931788D01*
X42656866Y-110998982D01*
X42636651Y-111065863D01*
X42585277Y-111110380D01*
X42527268Y-111137430D01*
X42527265Y-111137432D01*
X42340858Y-111267954D01*
X42179954Y-111428858D01*
X42049432Y-111615265D01*
X42049431Y-111615267D01*
X41953261Y-111821502D01*
X41953258Y-111821511D01*
X41894366Y-112041302D01*
X41894364Y-112041313D01*
X41874532Y-112267998D01*
X41874532Y-112268001D01*
X41894364Y-112494686D01*
X41894366Y-112494697D01*
X41953258Y-112714488D01*
X41953261Y-112714497D01*
X42049431Y-112920732D01*
X42049432Y-112920734D01*
X42179954Y-113107141D01*
X42340858Y-113268045D01*
X42340861Y-113268047D01*
X42527266Y-113398568D01*
X42585278Y-113425619D01*
X42637713Y-113471788D01*
X42656866Y-113538982D01*
X42636651Y-113605863D01*
X42585277Y-113650380D01*
X42527268Y-113677430D01*
X42527265Y-113677432D01*
X42340858Y-113807954D01*
X42179954Y-113968858D01*
X42049432Y-114155265D01*
X42049431Y-114155267D01*
X41953261Y-114361502D01*
X41953258Y-114361511D01*
X41894366Y-114581302D01*
X41894364Y-114581313D01*
X41874532Y-114807998D01*
X41874532Y-114808001D01*
X41894364Y-115034686D01*
X41894366Y-115034697D01*
X41953258Y-115254488D01*
X41953261Y-115254497D01*
X42049431Y-115460732D01*
X42049432Y-115460734D01*
X42179954Y-115647141D01*
X42340858Y-115808045D01*
X42386414Y-115839943D01*
X42527266Y-115938568D01*
X42585278Y-115965619D01*
X42637713Y-116011788D01*
X42656866Y-116078982D01*
X42636651Y-116145863D01*
X42585277Y-116190380D01*
X42527268Y-116217430D01*
X42527265Y-116217432D01*
X42340858Y-116347954D01*
X42179954Y-116508858D01*
X42049432Y-116695265D01*
X42049431Y-116695267D01*
X41953261Y-116901502D01*
X41953258Y-116901511D01*
X41894366Y-117121302D01*
X41894364Y-117121313D01*
X41874532Y-117347998D01*
X41874532Y-117348001D01*
X41894364Y-117574686D01*
X41894366Y-117574697D01*
X41953258Y-117794488D01*
X41953261Y-117794497D01*
X42049431Y-118000732D01*
X42049432Y-118000734D01*
X42179954Y-118187141D01*
X42340858Y-118348045D01*
X42340861Y-118348047D01*
X42527266Y-118478568D01*
X42585275Y-118505618D01*
X42637714Y-118551791D01*
X42656866Y-118618984D01*
X42636650Y-118685865D01*
X42585275Y-118730382D01*
X42527267Y-118757431D01*
X42527265Y-118757432D01*
X42340858Y-118887954D01*
X42179954Y-119048858D01*
X42049432Y-119235265D01*
X42049431Y-119235267D01*
X41953263Y-119441500D01*
X41953258Y-119441511D01*
X41894366Y-119661302D01*
X41894364Y-119661313D01*
X41874532Y-119887998D01*
X41874532Y-119888001D01*
X38853369Y-119888001D01*
X38828530Y-119662253D01*
X38759868Y-119399616D01*
X38653697Y-119149776D01*
X38512281Y-118918056D01*
X38338632Y-118709396D01*
X38284910Y-118661261D01*
X38136454Y-118528243D01*
X37910055Y-118378459D01*
X37887981Y-118368111D01*
X37664257Y-118263233D01*
X37404303Y-118185025D01*
X37404301Y-118185024D01*
X37404299Y-118185024D01*
X37307999Y-118170852D01*
X37135732Y-118145500D01*
X36932219Y-118145500D01*
X36932214Y-118145500D01*
X36729260Y-118160355D01*
X36729246Y-118160357D01*
X36464297Y-118219376D01*
X36464290Y-118219379D01*
X36210736Y-118316355D01*
X35974012Y-118449211D01*
X35759140Y-118615130D01*
X35759139Y-118615132D01*
X35570734Y-118810549D01*
X35570732Y-118810551D01*
X35412778Y-119031329D01*
X35288656Y-119272746D01*
X35288649Y-119272762D01*
X35201005Y-119529666D01*
X35201001Y-119529684D01*
X35151693Y-119796631D01*
X35151693Y-119796633D01*
X35141779Y-120067909D01*
X32000000Y-120067909D01*
X32000000Y-61067909D01*
X35141779Y-61067909D01*
X35171468Y-61337735D01*
X35171470Y-61337748D01*
X35206127Y-61470315D01*
X35240132Y-61600384D01*
X35346303Y-61850224D01*
X35418588Y-61968668D01*
X35487716Y-62081940D01*
X35487717Y-62081942D01*
X35487719Y-62081944D01*
X35661368Y-62290604D01*
X35863546Y-62471757D01*
X36089947Y-62621542D01*
X36335743Y-62736767D01*
X36595697Y-62814975D01*
X36864268Y-62854500D01*
X36864273Y-62854500D01*
X37067786Y-62854500D01*
X37119394Y-62850722D01*
X37270740Y-62839645D01*
X37381488Y-62814975D01*
X37535702Y-62780623D01*
X37535704Y-62780622D01*
X37535709Y-62780621D01*
X37789261Y-62683646D01*
X38025991Y-62550786D01*
X38240853Y-62384875D01*
X38429269Y-62189447D01*
X38587223Y-61968668D01*
X38711348Y-61727244D01*
X38798998Y-61470320D01*
X38848306Y-61203371D01*
X38853256Y-61067909D01*
X146141779Y-61067909D01*
X146171468Y-61337735D01*
X146171470Y-61337748D01*
X146206127Y-61470315D01*
X146240132Y-61600384D01*
X146346303Y-61850224D01*
X146418588Y-61968668D01*
X146487716Y-62081940D01*
X146487717Y-62081942D01*
X146487719Y-62081944D01*
X146661368Y-62290604D01*
X146863546Y-62471757D01*
X147089947Y-62621542D01*
X147335743Y-62736767D01*
X147595697Y-62814975D01*
X147864268Y-62854500D01*
X147864273Y-62854500D01*
X148067786Y-62854500D01*
X148119394Y-62850722D01*
X148270740Y-62839645D01*
X148381488Y-62814975D01*
X148535702Y-62780623D01*
X148535704Y-62780622D01*
X148535709Y-62780621D01*
X148789261Y-62683646D01*
X149025991Y-62550786D01*
X149240853Y-62384875D01*
X149429269Y-62189447D01*
X149587223Y-61968668D01*
X149711348Y-61727244D01*
X149798998Y-61470320D01*
X149848306Y-61203371D01*
X149858220Y-60932089D01*
X149828530Y-60662253D01*
X149759868Y-60399616D01*
X149653697Y-60149776D01*
X149512281Y-59918056D01*
X149338632Y-59709396D01*
X149136454Y-59528243D01*
X148910053Y-59378458D01*
X148664257Y-59263233D01*
X148404303Y-59185025D01*
X148404301Y-59185024D01*
X148404299Y-59185024D01*
X148307999Y-59170852D01*
X148135732Y-59145500D01*
X147932219Y-59145500D01*
X147932214Y-59145500D01*
X147729260Y-59160355D01*
X147729246Y-59160357D01*
X147464297Y-59219376D01*
X147464290Y-59219379D01*
X147210736Y-59316355D01*
X146974012Y-59449211D01*
X146759140Y-59615130D01*
X146759139Y-59615132D01*
X146570734Y-59810549D01*
X146570732Y-59810551D01*
X146412778Y-60031329D01*
X146288656Y-60272746D01*
X146288649Y-60272762D01*
X146201005Y-60529666D01*
X146201001Y-60529684D01*
X146151693Y-60796631D01*
X146151693Y-60796633D01*
X146141779Y-61067909D01*
X38853256Y-61067909D01*
X38858220Y-60932089D01*
X38828530Y-60662253D01*
X38759868Y-60399616D01*
X38653697Y-60149776D01*
X38512281Y-59918056D01*
X38338632Y-59709396D01*
X38136454Y-59528243D01*
X37910053Y-59378458D01*
X37664257Y-59263233D01*
X37404303Y-59185025D01*
X37404301Y-59185024D01*
X37404299Y-59185024D01*
X37307999Y-59170852D01*
X37135732Y-59145500D01*
X36932219Y-59145500D01*
X36932214Y-59145500D01*
X36729260Y-59160355D01*
X36729246Y-59160357D01*
X36464297Y-59219376D01*
X36464290Y-59219379D01*
X36210736Y-59316355D01*
X35974012Y-59449211D01*
X35759140Y-59615130D01*
X35759139Y-59615132D01*
X35570734Y-59810549D01*
X35570732Y-59810551D01*
X35412778Y-60031329D01*
X35288656Y-60272746D01*
X35288649Y-60272762D01*
X35201005Y-60529666D01*
X35201001Y-60529684D01*
X35151693Y-60796631D01*
X35151693Y-60796633D01*
X35141779Y-61067909D01*
X32000000Y-61067909D01*
X32000000Y-56124500D01*
X32019685Y-56057461D01*
X32072489Y-56011706D01*
X32124000Y-56000500D01*
X152875500Y-56000500D01*
X152942539Y-56020185D01*
G37*
%TD.AperFunction*%
%TD*%
M02*
