%TF.GenerationSoftware,KiCad,Pcbnew,7.0.7*%
%TF.CreationDate,2024-01-02T14:59:55+01:00*%
%TF.ProjectId,arduino-uno-connector,61726475-696e-46f2-9d75-6e6f2d636f6e,rev?*%
%TF.SameCoordinates,Original*%
%TF.FileFunction,Soldermask,Top*%
%TF.FilePolarity,Negative*%
%FSLAX46Y46*%
G04 Gerber Fmt 4.6, Leading zero omitted, Abs format (unit mm)*
G04 Created by KiCad (PCBNEW 7.0.7) date 2024-01-02 14:59:55*
%MOMM*%
%LPD*%
G01*
G04 APERTURE LIST*
%ADD10C,3.200000*%
%ADD11R,1.600000X1.600000*%
%ADD12O,1.600000X1.600000*%
%ADD13R,1.700000X1.700000*%
%ADD14O,1.700000X1.700000*%
G04 APERTURE END LIST*
D10*
%TO.C,H3*%
X148000000Y-61000000D03*
%TD*%
D11*
%TO.C,SW4*%
X140165500Y-75888000D03*
D12*
X147785500Y-75888000D03*
%TD*%
D10*
%TO.C,H4*%
X148000000Y-120000000D03*
%TD*%
%TO.C,H2*%
X37000000Y-120000000D03*
%TD*%
D11*
%TO.C,SW1*%
X97070500Y-76004000D03*
D12*
X104690500Y-76004000D03*
%TD*%
D11*
%TO.C,SW2*%
X111506000Y-75946000D03*
D12*
X119126000Y-75946000D03*
%TD*%
D13*
%TO.C,J1*%
X132410000Y-115900000D03*
D14*
X132410000Y-118440000D03*
X129870000Y-115900000D03*
X129870000Y-118440000D03*
X127330000Y-115900000D03*
X127330000Y-118440000D03*
X124790000Y-115900000D03*
X124790000Y-118440000D03*
X122250000Y-115900000D03*
X122250000Y-118440000D03*
X119710000Y-115900000D03*
X119710000Y-118440000D03*
X117170000Y-115900000D03*
X117170000Y-118440000D03*
X114630000Y-115900000D03*
X114630000Y-118440000D03*
X112090000Y-115900000D03*
X112090000Y-118440000D03*
X109550000Y-115900000D03*
X109550000Y-118440000D03*
X107010000Y-115900000D03*
X107010000Y-118440000D03*
X104470000Y-115900000D03*
X104470000Y-118440000D03*
X101930000Y-115900000D03*
X101930000Y-118440000D03*
X99390000Y-115900000D03*
X99390000Y-118440000D03*
X96850000Y-115900000D03*
X96850000Y-118440000D03*
%TD*%
D11*
%TO.C,SW3*%
X125730000Y-75946000D03*
D12*
X133350000Y-75946000D03*
%TD*%
D10*
%TO.C,H1*%
X37000000Y-61000000D03*
%TD*%
D11*
%TO.C,A1*%
X91440000Y-84328000D03*
D12*
X91440000Y-86868000D03*
X91440000Y-89408000D03*
X91440000Y-91948000D03*
X91440000Y-94488000D03*
X91440000Y-97028000D03*
X91440000Y-99568000D03*
X91440000Y-102108000D03*
X91440000Y-107188000D03*
X91440000Y-109728000D03*
X91440000Y-112268000D03*
X91440000Y-114808000D03*
X91440000Y-117348000D03*
X91440000Y-119888000D03*
X43180000Y-119888000D03*
X43180000Y-117348000D03*
X43180000Y-114808000D03*
X43180000Y-112268000D03*
X43180000Y-109728000D03*
X43180000Y-107188000D03*
X43180000Y-104648000D03*
X43180000Y-102108000D03*
X43180000Y-98048000D03*
X43180000Y-95508000D03*
X43180000Y-92968000D03*
X43180000Y-90428000D03*
X43180000Y-87888000D03*
X43180000Y-85348000D03*
X43180000Y-82808000D03*
X43180000Y-80268000D03*
X43180000Y-77728000D03*
X43180000Y-75188000D03*
%TD*%
M02*
